<?xml version="1.0" encoding="iso-8859-1"?>
<!-- Generator: Adobe Illustrator 19.0.0, SVG Export Plug-In . SVG Version: 6.00 Build 0)  -->
<svg version="1.1" id="Capa_1" xmlns="http://www.w3.org/2000/svg" xmlns:xlink="http://www.w3.org/1999/xlink" x="0px" y="0px"
	 viewBox="0 0 512 512" style="enable-background:new 0 0 512 512;" xml:space="preserve">
<g>
	<g>
		<path d="M497,151H391V90h15c8.284,0,15-6.716,15-15V15c0-8.284-6.716-15-15-15H106c-8.284,0-15,6.716-15,15v60
			c0,8.284,6.716,15,15,15h15v61H15c-8.284,0-15,6.716-15,15v331c0,8.284,6.716,15,15,15h121h240h121c8.284,0,15-6.716,15-15V166
			C512,157.716,505.284,151,497,151z M30,241h30v30H30V241z M30,361h30v30H30V361z M121,482H30v-61h45c8.284,0,15-6.716,15-15v-60
			c0-8.284-6.716-15-15-15H30v-30h45c8.284,0,15-6.716,15-15v-60c0-8.284-6.716-15-15-15H30v-30h91V482z M241,482h-30V361h30V482z
			 M301,482h-30V361h30V482z M361,482h-30V346c0-8.284-6.716-15-15-15H196c-8.284,0-15,6.716-15,15v136h-30V271h210V482z M181,181
			v60h-30v-60H181z M151,151V90h30v61H151z M241,181v60h-30v-60H241z M211,151V90h30v61H211z M301,181v60h-30v-60H301z M271,151V90
			h30v61H271z M361,241h-30v-60h30V241z M361,151h-30V90h30V151z M121,60V30h270v30H121z M482,391h-30v-30h30V391z M482,271h-30v-30
			h30V271z M482,211h-45c-8.284,0-15,6.716-15,15v60c0,8.284,6.716,15,15,15h45v30h-45c-8.284,0-15,6.716-15,15v60
			c0,8.284,6.716,15,15,15h45v61h-91V181h91V211z"/>
	</g>
</g>
<g>
</g>
<g>
</g>
<g>
</g>
<g>
</g>
<g>
</g>
<g>
</g>
<g>
</g>
<g>
</g>
<g>
</g>
<g>
</g>
<g>
</g>
<g>
</g>
<g>
</g>
<g>
</g>
<g>
</g>
</svg>
