<?xml version="1.0" encoding="iso-8859-1"?>
<!-- Generator: Adobe Illustrator 19.0.0, SVG Export Plug-In . SVG Version: 6.00 Build 0)  -->
<svg version="1.1" id="Capa_1" xmlns="http://www.w3.org/2000/svg" xmlns:xlink="http://www.w3.org/1999/xlink" x="0px" y="0px"
	 viewBox="0 0 512 512" style="enable-background:new 0 0 512 512;" xml:space="preserve">
<g>
	<g>
		<path d="M435.842,73.748C387.525,26.191,323.646,0,255.972,0S124.423,26.189,76.114,73.744
			C27.753,121.35,0.732,184.731,0.029,252.213c-0.085,8.188,6.412,14.932,14.599,15.151c8.212,0.231,15.034-6.169,15.387-14.35
			c0.054-1.248,0.16-2.506,0.316-3.739c0-0.001,0-0.002,0-0.003C33.165,226.883,52.356,210,74.972,210c24.813,0,45,20.187,45,45
			c0,8.284,6.716,15,15,15s15-6.716,15-15c0-24.813,20.187-45,45-45c24.935,0,46,20.607,46,45v197.002
			c0,16.541-13.458,29.998-30,29.998c-16.542,0-30-13.458-30-30c0-8.284-6.716-15-15-15s-15,6.716-15,15c0,33.084,26.916,60,60,60
			c33.084,0,60-26.915,60-59.998V255c0-24.393,21.065-45,46-45c24.813,0,45,20.187,45,45c0,8.284,6.716,15,15,15s15-6.716,15-15
			c0-24.813,20.187-45,45-45c24.168,0,43.935,18.909,45.002,43.049c0.355,8.039,6.98,14.338,14.978,14.337
			c0.14,0,0.279-0.002,0.419-0.006c8.184-0.224,14.676-6.968,14.588-15.154C511.238,184.74,484.206,121.355,435.842,73.748z
			 M123.354,197.737C110.285,186.677,93.394,180,74.972,180c-12.521,0-24.413,3.108-34.885,8.628
			C61.083,121.365,113.131,67.4,179.263,43.438c-7.915,10.068-15.3,21.782-22.028,35.083
			C140.274,112.056,128.7,153.152,123.354,197.737z M240.972,195.483c-13.228-10.03-29.237-15.483-46-15.483
			c-14.965,0-28.917,4.412-40.633,11.994c5.326-37.467,15.415-71.754,29.667-99.933c16.081-31.793,36.244-52.647,56.966-59.542
			V195.483z M316.972,180c-16.764,0-32.773,5.453-46,15.483V32.519c20.722,6.895,40.885,27.749,56.966,59.542
			c14.252,28.179,24.341,62.466,29.667,99.933C345.888,184.412,331.937,180,316.972,180z M436.971,180
			c-18.422,0-35.313,6.677-48.382,17.737c-5.347-44.585-16.92-85.681-33.881-119.216c-6.727-13.3-14.111-25.013-22.026-35.081
			c66.099,23.953,118.137,77.878,139.169,145.099C461.426,183.079,449.556,180,436.971,180z"/>
	</g>
</g>
<g>
	<g>
		<path d="M406.972,302c-52.264,0-105,13.915-105,45c0,5.273,0,114.737,0,120c0,31.085,52.736,45,105,45c52.264,0,105-13.915,105-45
			c0-5.273,0-114.737,0-120C511.972,315.915,459.235,302,406.972,302z M406.972,332c41.459,0,66.596,9.456,73.639,15
			c-7.043,5.544-32.18,15-73.639,15c-41.459,0-66.596-9.456-73.639-15C340.376,341.456,365.513,332,406.972,332z M481.972,465.722
			c-4.393,5.208-30.136,16.278-75,16.278c-44.865,0-70.607-11.07-75-16.278v-25.701c19.999,8.141,47.563,11.979,75,11.979
			s55.001-3.838,75-11.979V465.722z M481.972,405.722c-4.393,5.208-30.135,16.278-75,16.278s-70.607-11.07-75-16.278v-25.701
			c19.999,8.141,47.563,11.979,75,11.979s55.001-3.838,75-11.979V405.722z"/>
	</g>
</g>
<g>
</g>
<g>
</g>
<g>
</g>
<g>
</g>
<g>
</g>
<g>
</g>
<g>
</g>
<g>
</g>
<g>
</g>
<g>
</g>
<g>
</g>
<g>
</g>
<g>
</g>
<g>
</g>
<g>
</g>
</svg>
