<?xml version="1.0" encoding="iso-8859-1"?>
<!-- Generator: Adobe Illustrator 19.0.0, SVG Export Plug-In . SVG Version: 6.00 Build 0)  -->
<svg version="1.1" id="Capa_1" xmlns="http://www.w3.org/2000/svg" xmlns:xlink="http://www.w3.org/1999/xlink" x="0px" y="0px"
	 viewBox="0 0 511.999 511.999" style="enable-background:new 0 0 511.999 511.999;" xml:space="preserve">
<g>
	<g>
		<path d="M479.541,249.56c-0.042-0.087-0.078-0.177-0.121-0.264l-60.001-120.002c-0.037-0.074-0.08-0.143-0.118-0.216
			c-2.684-5.122-7.919-8.076-13.298-8.076H105.996c-5.488,0-10.636,2.995-13.298,8.076c-0.038,0.073-0.081,0.143-0.118,0.216
			L32.579,249.296c-0.043,0.087-0.08,0.176-0.121,0.264c-1.55,3.243-1.458,6.351-1.458,6.351c-0.026,3.432,1.174,6.901,3.393,9.598
			c0.04,0.049,0.083,0.094,0.124,0.143c0.011,0.013,0.022,0.025,0.033,0.038c0.047,0.056,0.089,0.114,0.137,0.169l210.004,241.005
			c0.026,0.03,0.057,0.056,0.083,0.086c5.926,6.692,16.449,6.772,22.451,0c0.026-0.03,0.057-0.055,0.083-0.085L477.313,265.86
			c0.048-0.055,0.09-0.114,0.137-0.169c0.011-0.013,0.022-0.025,0.033-0.038c2.39-2.853,3.542-6.349,3.516-9.742
			C480.996,255.911,481.125,252.873,479.541,249.56z M381.732,151.003l-38.293,76.586L286,151.003H381.732z M316,241.005H195.998
			l60.001-80.002L316,241.005z M225.999,151.003l-57.439,76.586l-38.293-76.586H225.999z M105.996,169.544l35.73,71.46h-71.46
			L105.996,169.544z M78.961,271.005h76.627l57.469,153.89L78.961,271.005z M255.998,454.133l-68.387-183.128h136.776
			L255.998,454.133z M298.941,424.895l57.469-153.89h76.627L298.941,424.895z M370.272,241.005l35.731-71.46l35.73,71.46H370.272z"
			/>
	</g>
</g>
<g>
	<g>
		<path d="M255.999,0c-8.284,0-15,6.716-15,15v45.001c0,8.284,6.715,15,15,15c8.284,0,15-6.716,15-15V15
			C271,6.716,264.284,0,255.999,0z"/>
	</g>
</g>
<g>
	<g>
		<path d="M206.604,64.394l-30.001-30.001c-5.857-5.858-15.355-5.858-21.213,0c-5.858,5.858-5.858,15.355,0,21.213l30.001,30.001
			c5.857,5.858,15.356,5.858,21.213,0C212.462,79.75,212.462,70.252,206.604,64.394z"/>
	</g>
</g>
<g>
	<g>
		<path d="M356.607,34.394c-5.857-5.858-15.355-5.858-21.213,0l-30.001,30.001c-5.858,5.858-5.858,15.355,0,21.213
			c5.857,5.858,15.356,5.859,21.213,0l30.001-30.001C362.465,49.749,362.465,40.252,356.607,34.394z"/>
	</g>
</g>
<g>
</g>
<g>
</g>
<g>
</g>
<g>
</g>
<g>
</g>
<g>
</g>
<g>
</g>
<g>
</g>
<g>
</g>
<g>
</g>
<g>
</g>
<g>
</g>
<g>
</g>
<g>
</g>
<g>
</g>
</svg>
