<?xml version="1.0" encoding="iso-8859-1"?>
<!-- Generator: Adobe Illustrator 19.0.0, SVG Export Plug-In . SVG Version: 6.00 Build 0)  -->
<svg version="1.1" id="Capa_1" xmlns="http://www.w3.org/2000/svg" xmlns:xlink="http://www.w3.org/1999/xlink" x="0px" y="0px"
	 viewBox="0 0 512 512" style="enable-background:new 0 0 512 512;" xml:space="preserve">
<g>
	<g>
		<path d="M256,151c-8.271,0-15-6.729-15-15c0-6.042,3.596-11.468,9.159-13.825c6.717-2.844,14.755-0.417,22.059,6.659
			c5.951,5.765,15.445,5.614,21.211-0.335c5.764-5.95,5.614-15.446-0.336-21.21c-6.771-6.561-14.3-11.198-22.093-13.815V76
			c0-8.284-6.716-15-15-15s-15,6.716-15,15v17.571c-0.851,0.303-1.699,0.623-2.54,0.979C221.778,101.615,211,117.885,211,136
			c0,24.813,20.187,45,45,45c8.271,0,15,6.729,15,15c0,6.286-3.965,11.953-9.866,14.103c-7.7,2.807-16.674-0.999-24.606-10.444
			c-5.327-6.343-14.788-7.167-21.134-1.839c-6.344,5.328-7.167,14.79-1.839,21.134c8.109,9.654,17.549,16.275,27.445,19.608V256
			c0,8.284,6.716,15,15,15s15-6.716,15-15v-17.573c0.134-0.047,0.268-0.088,0.401-0.136C289.105,231.843,301,214.847,301,196
			C301,171.187,280.813,151,256,151z"/>
	</g>
</g>
<g>
	<g>
		<path d="M427.766,361.199c-24.416-11.153-55.589-19.553-91.192-24.65l53.444-74.279C410.286,234.1,421,200.811,421,166
			C421,74.467,346.981,0,256,0S91,74.467,91,166c0,34.809,10.714,68.099,30.982,96.27l53.444,74.279
			c-35.603,5.098-66.777,13.498-91.192,24.65C40.235,381.297,31,404.813,31,421c0,19.008,12.384,46.171,71.381,67.629
			C143.815,503.7,198.372,512,256,512s112.185-8.3,153.619-23.371C468.616,467.171,481,440.008,481,421
			C481,404.813,471.765,381.297,427.766,361.199z M146.334,244.749C129.761,221.713,121,194.482,121,166
			c0-74.991,60.561-136,135-136s135,61.009,135,136c0,28.483-8.761,55.714-25.334,78.748L256,397.167L146.334,244.749z M256,482
			c-119.036,0-195-36.128-195-61c0-10.147,13.346-22.302,35.699-32.513c24.915-11.381,59.702-19.897,98.669-24.222l48.456,67.346
			c5.976,8.307,18.369,8.316,24.352,0l48.456-67.346c38.968,4.324,73.755,12.841,98.669,24.222C437.654,398.698,451,410.853,451,421
			C451,445.872,375.036,482,256,482z"/>
	</g>
</g>
<g>
</g>
<g>
</g>
<g>
</g>
<g>
</g>
<g>
</g>
<g>
</g>
<g>
</g>
<g>
</g>
<g>
</g>
<g>
</g>
<g>
</g>
<g>
</g>
<g>
</g>
<g>
</g>
<g>
</g>
</svg>
