<?xml version="1.0" encoding="iso-8859-1"?>
<!-- Generator: Adobe Illustrator 19.0.0, SVG Export Plug-In . SVG Version: 6.00 Build 0)  -->
<svg version="1.1" id="Capa_1" xmlns="http://www.w3.org/2000/svg" xmlns:xlink="http://www.w3.org/1999/xlink" x="0px" y="0px"
	 viewBox="0 0 512 512" style="enable-background:new 0 0 512 512;" xml:space="preserve">
<g>
	<g>
		<path d="M467,120H362v-15c0-24.813-20.187-45-45-45h-46V15c0-5.766-3.305-11.021-8.502-13.52
			c-5.196-2.497-11.364-1.795-15.868,1.807L218.5,25.791L190.37,3.287c-5.479-4.383-13.262-4.383-18.74,0L143.5,25.791L115.37,3.287
			c-4.502-3.603-10.672-4.304-15.868-1.807C94.305,3.979,91,9.234,91,15v45H45C20.187,60,0,80.187,0,105v362
			c0,24.813,20.187,45,45,45h272c24.813,0,45-20.187,45-45v-75h105c24.813,0,45-20.187,45-45V165C512,140.187,491.814,120,467,120z
			 M121,46.21l13.13,10.503c5.479,4.383,13.262,4.383,18.74,0L181,34.21l28.13,22.503c5.479,4.383,13.262,4.383,18.74,0L241,46.21
			V120H121V46.21z M271,150v30H91v-30H271z M332,467c0,8.271-6.729,15-15,15H45c-8.271,0-15-6.729-15-15V105c0-8.271,6.729-15,15-15
			h46v30H76c-8.284,0-15,6.716-15,15v60c0,8.284,6.716,15,15,15h210c8.284,0,15-6.716,15-15v-60c0-8.284-6.716-15-15-15h-15V90h46
			c8.271,0,15,6.729,15,15V467z M482,347c0,8.271-6.728,15-15,15H362v-90h120V347z M482,242H362v-32h120V242z M482,180H362v-30h105
			c8.271,0,15,6.729,15,15V180z"/>
	</g>
</g>
<g>
	<g>
		<path d="M106,242H76c-8.284,0-15,6.716-15,15c0,8.284,6.716,15,15,15h30c8.284,0,15-6.716,15-15C121,248.716,114.284,242,106,242z
			"/>
	</g>
</g>
<g>
	<g>
		<path d="M196,242h-30c-8.284,0-15,6.716-15,15c0,8.284,6.716,15,15,15h30c8.284,0,15-6.716,15-15C211,248.716,204.284,242,196,242
			z"/>
	</g>
</g>
<g>
	<g>
		<path d="M286,242h-30c-8.284,0-15,6.716-15,15c0,8.284,6.716,15,15,15h30c8.284,0,15-6.716,15-15C301,248.716,294.284,242,286,242
			z"/>
	</g>
</g>
<g>
	<g>
		<circle cx="91" cy="317" r="15"/>
	</g>
</g>
<g>
	<g>
		<circle cx="91" cy="377" r="15"/>
	</g>
</g>
<g>
	<g>
		<circle cx="91" cy="437" r="15"/>
	</g>
</g>
<g>
	<g>
		<circle cx="181" cy="317" r="15"/>
	</g>
</g>
<g>
	<g>
		<circle cx="181" cy="377" r="15"/>
	</g>
</g>
<g>
	<g>
		<circle cx="181" cy="437" r="15"/>
	</g>
</g>
<g>
	<g>
		<circle cx="271" cy="317" r="15"/>
	</g>
</g>
<g>
	<g>
		<circle cx="271" cy="377" r="15"/>
	</g>
</g>
<g>
	<g>
		<circle cx="271" cy="437" r="15"/>
	</g>
</g>
<g>
</g>
<g>
</g>
<g>
</g>
<g>
</g>
<g>
</g>
<g>
</g>
<g>
</g>
<g>
</g>
<g>
</g>
<g>
</g>
<g>
</g>
<g>
</g>
<g>
</g>
<g>
</g>
<g>
</g>
</svg>
