<?xml version="1.0" encoding="iso-8859-1"?>
<!-- Generator: Adobe Illustrator 19.0.0, SVG Export Plug-In . SVG Version: 6.00 Build 0)  -->
<svg version="1.1" id="Capa_1" xmlns="http://www.w3.org/2000/svg" xmlns:xlink="http://www.w3.org/1999/xlink" x="0px" y="0px"
	 viewBox="0 0 512 512" style="enable-background:new 0 0 512 512;" xml:space="preserve">
<g>
	<g>
		<path d="M417.606,156.393l-30-30c-5.857-5.858-15.355-5.858-21.213,0l-30,30C333.58,159.207,332,163.022,332,167v150
			c0,8.284,6.716,15,15,15h60c8.284,0,15-6.716,15-15V167C422,163.022,420.42,159.207,417.606,156.393z M392,302h-30V173.213l15-15
			l15,15V302z"/>
	</g>
</g>
<g>
	<g>
		<path d="M175.606,246.393l-30-30c-5.857-5.858-15.355-5.858-21.213,0l-30,30C91.58,249.207,90,253.022,90,257v60
			c0,8.284,6.716,15,15,15h60c8.284,0,15-6.716,15-15v-60C180,253.022,178.42,249.207,175.606,246.393z M150,302h-30v-38.787l15-15
			l15,15V302z"/>
	</g>
</g>
<g>
	<g>
		<path d="M296.606,186.393l-30-30c-5.857-5.858-15.355-5.858-21.213,0l-30,30C212.58,189.207,211,193.022,211,197v120
			c0,8.284,6.716,15,15,15h60c8.284,0,15-6.716,15-15V197C301,193.022,299.42,189.207,296.606,186.393z M271,302h-30v-98.787l15-15
			l15,15V302z"/>
	</g>
</g>
<g>
	<g>
		<path d="M467,0H45C20.187,0,0,20.187,0,45v30c0,8.284,6.716,15,15,15h15v257c0,24.813,20.187,45,45,45h166v32.58
			c-17.459,6.192-30,22.865-30,42.42c0,24.813,20.187,45,45,45s45-20.187,45-45c0-19.555-12.541-36.228-30-42.42V392h166
			c24.813,0,45-20.187,45-45V90h15c8.284,0,15-6.716,15-15V45C512,20.187,491.813,0,467,0z M256,482c-8.271,0-15-6.729-15-15
			s6.729-15,15-15s15,6.729,15,15S264.271,482,256,482z M452,347c0,8.271-6.729,15-15,15H75c-8.271,0-15-6.729-15-15V90h392V347z
			 M482,60H30V45c0-8.271,6.729-15,15-15h422c8.271,0,15,6.729,15,15V60z"/>
	</g>
</g>
<g>
</g>
<g>
</g>
<g>
</g>
<g>
</g>
<g>
</g>
<g>
</g>
<g>
</g>
<g>
</g>
<g>
</g>
<g>
</g>
<g>
</g>
<g>
</g>
<g>
</g>
<g>
</g>
<g>
</g>
</svg>
