<?xml version="1.0" encoding="iso-8859-1"?>
<!-- Generator: Adobe Illustrator 19.0.0, SVG Export Plug-In . SVG Version: 6.00 Build 0)  -->
<svg version="1.1" id="Capa_1" xmlns="http://www.w3.org/2000/svg" xmlns:xlink="http://www.w3.org/1999/xlink" x="0px" y="0px"
	 viewBox="0 0 512 512" style="enable-background:new 0 0 512 512;" xml:space="preserve">
<g>
	<g>
		<path d="M512,196v-30c0-0.084-0.011-0.165-0.013-0.249c-0.075-4.653-2.306-9.139-6.33-11.986
			c-0.161-0.114-0.322-0.226-0.487-0.334c-0.07-0.046-0.135-0.097-0.207-0.142l-241-151c-4.871-3.052-11.057-3.052-15.928,0
			l-241,151c-0.071,0.045-0.136,0.096-0.207,0.142c-0.165,0.108-0.326,0.22-0.487,0.334c-3.512,2.485-5.907,6.43-6.28,10.994
			c-0.028,0.329-0.044,0.66-0.05,0.992C0.011,165.834,0,165.916,0,166v30c0,23.356,17.887,42.607,40.68,44.788
			c-13.948,59.708-13.948,121.715,0,181.424C17.887,424.393,0,443.644,0,467v30c0,8.284,6.716,15,15,15h482c8.284,0,15-6.716,15-15
			v-30c0-23.356-17.887-42.607-40.68-44.788c13.948-59.708,13.948-121.715,0-181.424C494.113,238.607,512,219.356,512,196z
			 M256,32.701L444.809,151H67.191L256,32.701z M482,467v15H30v-15c0-8.271,6.729-15,15-15c7.162,0,414.523,0,422,0
			C475.271,452,482,458.729,482,467z M71.504,241h6.992c15.043,59.441,15.043,121.559,0,181h-6.992
			C56.461,362.559,56.461,300.441,71.504,241z M109.37,240.8h52.26c-13.882,59.572-13.882,121.427,0,181h-52.26
			C123.252,362.227,123.252,300.373,109.37,240.8z M192.504,241h6.992c15.043,59.441,15.043,121.559,0,181h-6.992
			C177.461,362.559,177.461,300.441,192.504,241z M230.37,240.8h51.26c-13.882,59.572-13.882,121.627,0,181.2h-51.26
			C244.252,362.427,244.252,300.372,230.37,240.8z M312.504,241h6.992c15.043,59.441,15.043,121.559,0,181h-6.992
			C297.461,362.559,297.461,300.441,312.504,241z M350.37,240.8h52.26c-13.882,59.572-13.882,121.627,0,181.2h-52.26
			C364.252,362.427,364.252,300.372,350.37,240.8z M433.504,241h6.992c15.043,59.441,15.043,121.559,0,181h-6.992
			C418.461,362.559,418.461,300.441,433.504,241z M482,196c0,8.271-6.729,15-15,15H45c-8.271,0-15-6.729-15-15v-15h452V196z"/>
	</g>
</g>
<g>
	<g>
		<circle cx="256" cy="106" r="15"/>
	</g>
</g>
<g>
</g>
<g>
</g>
<g>
</g>
<g>
</g>
<g>
</g>
<g>
</g>
<g>
</g>
<g>
</g>
<g>
</g>
<g>
</g>
<g>
</g>
<g>
</g>
<g>
</g>
<g>
</g>
<g>
</g>
</svg>
