<?xml version="1.0" encoding="iso-8859-1"?>
<!-- Generator: Adobe Illustrator 19.0.0, SVG Export Plug-In . SVG Version: 6.00 Build 0)  -->
<svg version="1.1" id="Capa_1" xmlns="http://www.w3.org/2000/svg" xmlns:xlink="http://www.w3.org/1999/xlink" x="0px" y="0px"
	 viewBox="0 0 512 512" style="enable-background:new 0 0 512 512;" xml:space="preserve">
<g>
	<g>
		<path d="M345.522,240h-17.755c-6.481-17.637-23.441-29.479-42.245-29.479c-24.813,0-45,20.187-45,45c0,8.271-6.729,15-15,15
			c-6.042,0-11.469-3.595-13.825-9.16c-2.844-6.715-0.416-14.755,6.659-22.058c5.765-5.95,5.615-15.446-0.335-21.211
			c-5.949-5.764-15.446-5.614-21.21,0.335c-6.415,6.621-10.996,13.965-13.642,21.572h-17.647c-8.284,0-15,6.716-15,15
			S157.236,270,165.521,270h17.387c0.351,1.026,0.735,2.047,1.164,3.06c7.064,16.682,23.334,27.46,41.449,27.46
			c24.813,0,45-20.187,45-45c0-8.271,6.729-15,15-15c6.286,0,11.953,3.965,14.103,9.866c2.807,7.706-1,16.675-10.444,24.607
			c-6.344,5.328-7.167,14.79-1.839,21.133c5.33,6.345,14.79,7.166,21.134,1.839c9.824-8.251,16.518-17.879,19.791-27.965h17.256
			c8.284,0,15-6.716,15-15S353.806,240,345.522,240z"/>
	</g>
</g>
<g>
	<g>
		<path d="M497,30c-8.271,0-15-6.729-15-15c0-8.284-6.716-15-15-15H45c-8.284,0-15,6.716-15,15c0,8.271-6.729,15-15,15
			C6.716,30,0,36.716,0,45v60c0,8.284,6.716,15,15,15c8.271,0,15,6.729,15,15c0,8.284,6.716,15,15,15h46v317
			c0,24.813,20.187,45,45,45h240c24.813,0,45-20.187,45-45V150h46c8.284,0,15-6.716,15-15c0-8.271,6.729-15,15-15
			c8.284,0,15-6.716,15-15V45C512,36.716,505.284,30,497,30z M136,482c-8.271,0-15-6.729-15-15v-43.491
			c29.344,5.98,52.51,29.147,58.491,58.491H136z M391,467c0,8.271-6.729,15-15,15h-43.491c5.98-29.344,29.147-52.51,58.491-58.491
			V467z M391,393.076c-45.916,6.597-82.327,43.008-88.924,88.924h-92.152c-6.597-45.916-43.008-82.327-88.924-88.924V90h270V393.076
			z M482,92.57c-12.768,4.527-22.903,14.662-27.43,27.43H421V90h15c8.284,0,15-6.716,15-15s-6.716-15-15-15H76
			c-8.284,0-15,6.716-15,15s6.716,15,15,15h15v30H57.43C52.903,107.232,42.768,97.097,30,92.57V57.43
			C42.768,52.903,52.903,42.768,57.43,30h397.14c4.526,12.768,14.662,22.903,27.43,27.43V92.57z"/>
	</g>
</g>
<g>
	<g>
		<path d="M256,120c-8.284,0-15,6.716-15,15v30c0,8.284,6.716,15,15,15s15-6.716,15-15v-30C271,126.716,264.284,120,256,120z"/>
	</g>
</g>
<g>
	<g>
		<path d="M256,331c-8.284,0-15,6.716-15,15v30c0,8.284,6.716,15,15,15s15-6.716,15-15v-30C271,337.716,264.284,331,256,331z"/>
	</g>
</g>
<g>
</g>
<g>
</g>
<g>
</g>
<g>
</g>
<g>
</g>
<g>
</g>
<g>
</g>
<g>
</g>
<g>
</g>
<g>
</g>
<g>
</g>
<g>
</g>
<g>
</g>
<g>
</g>
<g>
</g>
</svg>
