<?xml version="1.0" encoding="iso-8859-1"?>
<!-- Generator: Adobe Illustrator 19.0.0, SVG Export Plug-In . SVG Version: 6.00 Build 0)  -->
<svg version="1.1" id="Capa_1" xmlns="http://www.w3.org/2000/svg" xmlns:xlink="http://www.w3.org/1999/xlink" x="0px" y="0px"
	 viewBox="0 0 512 512" style="enable-background:new 0 0 512 512;" xml:space="preserve">
<g>
	<g>
		<path d="M467,121h-76V75c0-41.355-33.645-75-75-75H196c-41.355,0-75,33.645-75,75v46H45c-24.813,0-45,20.187-45,45v301
			c0,24.813,20.187,45,45,45h422c24.813,0,45-20.187,45-45V166C512,141.187,491.813,121,467,121z M151,75c0-24.813,20.187-45,45-45
			h120c24.813,0,45,20.187,45,45v46h-30V75c0-8.284-6.716-15-15-15H196c-8.284,0-15,6.716-15,15v46h-30V75z M301,90v31h-90V90H301z
			 M90,482H45c-8.271,0-15-6.729-15-15v-45h15c24.813,0,45,20.187,45,45V482z M482,467c0,8.271-6.729,15-15,15h-45v-15
			c0-24.813,20.187-45,45-45h15V467z M482,392h-15c-41.355,0-75,33.645-75,75v15H120v-15c0-41.355-33.645-75-75-75H30V247.562
			l61,22.624V316c0,3.978,1.58,7.793,4.394,10.607l30,30c5.857,5.857,15.355,5.858,21.213,0l30-30
			C179.42,323.793,181,319.978,181,316v-12.105l38.272,14.352c23.167,8.688,49.256,9.099,73.448,0.107L331,304.126V316
			c0,3.978,1.58,7.793,4.394,10.607l30,30c5.857,5.857,15.355,5.858,21.213,0l30-30C419.42,323.793,421,319.978,421,316v-45.285
			l61-22.423V392z M121,309.787V241h30v68.787l-15,15L121,309.787z M361,309.787V241h30v68.787l-15,15L361,309.787z M482,216.329
			l-61,22.423V226c0-8.284-6.716-15-15-15h-60c-8.284,0-15,6.716-15,15v46.121l-48.731,18.112
			c-16.923,6.29-35.554,6.264-52.463-0.076L181,271.855V226c0-8.284-6.716-15-15-15h-60c-8.284,0-15,6.716-15,15v12.188l-61-22.624
			V166c0-8.271,6.729-15,15-15h422c8.271,0,15,6.729,15,15V216.329z"/>
	</g>
</g>
<g>
	<g>
		<path d="M316,392H196c-8.284,0-15,6.716-15,15s6.716,15,15,15h120c8.284,0,15-6.716,15-15S324.284,392,316,392z"/>
	</g>
</g>
<g>
</g>
<g>
</g>
<g>
</g>
<g>
</g>
<g>
</g>
<g>
</g>
<g>
</g>
<g>
</g>
<g>
</g>
<g>
</g>
<g>
</g>
<g>
</g>
<g>
</g>
<g>
</g>
<g>
</g>
</svg>
