<?xml version="1.0" encoding="iso-8859-1"?>
<!-- Generator: Adobe Illustrator 19.0.0, SVG Export Plug-In . SVG Version: 6.00 Build 0)  -->
<svg version="1.1" id="Capa_1" xmlns="http://www.w3.org/2000/svg" xmlns:xlink="http://www.w3.org/1999/xlink" x="0px" y="0px"
	 viewBox="0 0 512 512" style="enable-background:new 0 0 512 512;" xml:space="preserve">
<g>
	<g>
		<path d="M415.607,154.393c-5.857-5.858-15.355-5.858-21.213,0L390,158.787V105c0-24.813-20.187-45-45-45h-97.806
			C222.947,23.846,181.708,0,135,0C60.561,0,0,60.561,0,135s60.561,135,135,135s135-60.561,135-135c0-15.772-2.728-30.918-7.722-45
			H345c8.271,0,15,6.729,15,15v53.787l-4.394-4.394c-5.857-5.858-15.355-5.858-21.213,0c-5.858,5.858-5.858,15.355,0,21.213
			l29.998,29.998c5.782,5.782,15.308,5.91,21.218,0l29.998-29.998C421.465,169.748,421.465,160.251,415.607,154.393z M135,240
			c-57.897,0-105-47.103-105-105C30,77.103,77.103,30,135,30c57.897,0,105,47.103,105,105C240,192.897,192.897,240,135,240z"/>
	</g>
</g>
<g>
	<g>
		<path d="M135,60c-41.355,0-75,33.645-75,75s33.645,75,75,75s75-33.645,75-75S176.355,60,135,60z M135,180
			c-24.813,0-45-20.187-45-45s20.187-45,45-45s45,20.187,45,45S159.813,180,135,180z"/>
	</g>
</g>
<g>
	<g>
		<path d="M377,242c-74.439,0-135,60.561-135,135c0,15.772,2.728,30.918,7.722,45H167c-8.271,0-15-6.729-15-15v-53.787l4.394,4.394
			c5.857,5.858,15.356,5.858,21.213,0c5.858-5.858,5.858-15.355,0-21.213l-29.998-29.998c-5.855-5.855-15.38-5.838-21.218,0
			l-29.998,29.998c-5.858,5.858-5.858,15.355,0,21.213c5.857,5.858,15.355,5.858,21.213,0l4.394-4.394V407c0,24.813,20.187,45,45,45
			h97.806c24.247,36.154,65.487,60,112.194,60c74.439,0,135-60.561,135-135S451.439,242,377,242z M377,482
			c-57.897,0-105-47.103-105-105c0-57.897,47.103-105,105-105c57.897,0,105,47.103,105,105C482,434.897,434.897,482,377,482z"/>
	</g>
</g>
<g>
	<g>
		<path d="M377,302c-41.355,0-75,33.645-75,75c0,41.355,33.645,75,75,75c41.355,0,75-33.645,75-75C452,335.645,418.355,302,377,302z
			 M377,422c-24.813,0-45-20.187-45-45s20.187-45,45-45s45,20.187,45,45S401.813,422,377,422z"/>
	</g>
</g>
<g>
</g>
<g>
</g>
<g>
</g>
<g>
</g>
<g>
</g>
<g>
</g>
<g>
</g>
<g>
</g>
<g>
</g>
<g>
</g>
<g>
</g>
<g>
</g>
<g>
</g>
<g>
</g>
<g>
</g>
</svg>
