<?xml version="1.0" encoding="iso-8859-1"?>
<!-- Generator: Adobe Illustrator 19.0.0, SVG Export Plug-In . SVG Version: 6.00 Build 0)  -->
<svg version="1.1" id="Capa_1" xmlns="http://www.w3.org/2000/svg" xmlns:xlink="http://www.w3.org/1999/xlink" x="0px" y="0px"
	 viewBox="0 0 512 512" style="enable-background:new 0 0 512 512;" xml:space="preserve">
<g>
	<g>
		<path d="M496.234,256.043l-33.388-37.453c-5.891-6.608-9.68-15.4-11.263-26.129C433.956,72.923,323.658-14.328,199.027,1.957
			C94.972,15.551,12.218,104.199,4.836,209.857c-3.393,48.563,8.468,95.76,34.302,136.491
			c26.296,41.459,25.882,77.602,25.308,127.624c-0.084,7.406-0.172,15.066-0.172,23.027c0,8.284,6.716,15.001,15.001,15.001h270.012
			c8.284,0,15.001-6.716,15.001-15.001V450.31l12.357,0.436c42.4,1.498,77.647-32.374,77.647-74.957v-44.798h8.351
			C501.528,330.992,522.081,285.037,496.234,256.043z M462.642,300.991H439.29c-8.284,0-15.001,6.716-15.001,15.001v59.799
			c0,25.575-21.178,45.886-46.588,44.974l-27.886-0.984c-8.452-0.32-15.53,6.491-15.53,14.992v47.227H95.074
			c0.555-54.484,1.956-100.385-30.602-151.719c-22.379-35.285-32.651-76.202-29.707-118.331
			c6.36-91.063,78.65-168.55,168.15-180.242c105.293-13.756,203.533,60.322,218.989,165.131c2.451,16.626,8.691,30.661,18.55,41.718
			l33.386,37.452C482.456,285.672,475.597,300.991,462.642,300.991z"/>
	</g>
</g>
<g>
	<g>
		<path d="M229.28,210.987c-8.271,0-15.001-6.729-15.001-15.001c0-6.042,3.596-11.469,9.159-13.826
			c6.718-2.845,14.757-0.416,22.06,6.659c5.951,5.765,15.446,5.614,21.212-0.335c5.764-5.95,5.614-15.447-0.336-21.211
			c-6.772-6.561-14.301-11.198-22.094-13.816v-17.474c0-8.284-6.716-15.001-15.001-15.001c-8.284,0-15.001,6.716-15.001,15.001
			v17.572c-0.851,0.303-1.699,0.623-2.54,0.979c-16.683,7.064-27.461,23.335-27.461,41.451c0,24.814,20.188,45.002,45.002,45.002
			c8.271,0,15.001,6.729,15.001,15.001c0,6.286-3.965,11.954-9.866,14.104c-7.7,2.808-16.675-0.999-24.607-10.444
			c-5.327-6.343-14.789-7.167-21.135-1.839c-6.344,5.328-7.167,14.791-1.839,21.135c8.109,9.654,17.55,16.276,27.446,19.609v17.44
			c0,8.284,6.716,15.001,15.001,15.001s15.001-6.716,15.001-15.001V298.42c0.134-0.047,0.268-0.088,0.401-0.137
			c17.705-6.448,29.6-23.445,29.6-42.293C274.282,231.174,254.095,210.987,229.28,210.987z"/>
	</g>
</g>
<g>
	<g>
		<path d="M229.28,60.98c-90.985,0-165.007,74.022-165.007,165.007s74.022,165.007,165.007,165.007s165.007-74.022,165.007-165.007
			S320.267,60.98,229.28,60.98z M229.28,360.993c-74.442,0-135.006-60.564-135.006-135.006c0-74.442,60.564-135.006,135.006-135.006
			s135.006,60.564,135.006,135.006C364.286,300.43,303.724,360.993,229.28,360.993z"/>
	</g>
</g>
<g>
</g>
<g>
</g>
<g>
</g>
<g>
</g>
<g>
</g>
<g>
</g>
<g>
</g>
<g>
</g>
<g>
</g>
<g>
</g>
<g>
</g>
<g>
</g>
<g>
</g>
<g>
</g>
<g>
</g>
</svg>
