<?xml version="1.0" encoding="iso-8859-1"?>
<!-- Generator: Adobe Illustrator 19.0.0, SVG Export Plug-In . SVG Version: 6.00 Build 0)  -->
<svg version="1.1" id="Capa_1" xmlns="http://www.w3.org/2000/svg" xmlns:xlink="http://www.w3.org/1999/xlink" x="0px" y="0px"
	 viewBox="0 0 512 512" style="enable-background:new 0 0 512 512;" xml:space="preserve">
<g>
	<g>
		<path d="M364.056,94.024C341.568,39.534,288.732,0,226,0C143.253,0,76,68.136,76,151c0,0.413,0.005,0.823,0.013,1.23
			C33.643,159.257,0,196.109,0,241c0,23.998,9.583,46.624,26.983,63.71C44.249,321.664,66.983,331,91,331h0.689
			C91.241,335.942,91,340.943,91,346c0,91.533,74.019,166,165,166s165-74.467,165-166c0-6.266-0.363-12.447-1.047-18.533
			c23.16-5.735,44.305-18.267,60.678-36.197C500.859,269.118,512,240.611,512,211C512,134.663,439.806,76.731,364.056,94.024z
			 M256,482c-74.439,0-135-61.009-135-136c0-74.439,60.561-135,135-135s135,60.561,135,135C391,420.991,330.439,482,256,482z
			 M413.884,298.043C393.291,230.378,330.308,181,256,181c-75.387,0-139.126,50.82-158.762,120H91c-33.065,0-61-27.477-61-60
			c0-52.191,65.482-80.369,103.427-42.427c5.857,5.858,15.356,5.858,21.213,0c5.858-5.858,5.858-15.355,0-21.213
			c-13.396-13.396-30.279-22.024-48.596-25.09c-0.018-0.426-0.043-0.858-0.043-1.27c0-66.72,53.832-121,120-121
			c47.694,0,91.13,29.988,109.863,74.36c-10.826,5.613-20.845,12.916-29.716,21.787c-5.858,5.858-5.858,15.355,0,21.213
			c5.857,5.857,15.355,5.858,21.213,0c8.594-8.594,18.623-15.228,29.542-19.694C361.094,127.081,372.666,121,391,121
			c50.178,0,91,40.374,91,90C482,251.722,452.961,287.74,413.884,298.043z"/>
	</g>
</g>
<g>
	<g>
		<path d="M256,331c-8.271,0-15-6.729-15-15c0-6.042,3.596-11.468,9.159-13.825c6.717-2.844,14.755-0.417,22.059,6.659
			c5.951,5.765,15.445,5.614,21.211-0.335c5.764-5.95,5.614-15.446-0.336-21.21c-6.772-6.561-14.3-11.198-22.093-13.814V256
			c0-8.284-6.716-15-15-15s-15,6.716-15,15v17.571c-0.851,0.303-1.699,0.623-2.54,0.979C221.778,281.615,211,297.885,211,316
			c0,24.813,20.187,45,45,45c8.271,0,15,6.729,15,15c0,6.286-3.965,11.953-9.866,14.103c-7.699,2.806-16.674-0.999-24.606-10.444
			c-5.327-6.344-14.788-7.167-21.134-1.839c-6.344,5.328-7.167,14.79-1.839,21.134c8.109,9.654,17.549,16.275,27.445,19.608V437
			c0,8.284,6.716,15,15,15s15-6.716,15-15v-18.572c0.134-0.047,0.268-0.088,0.401-0.137C289.105,411.843,301,394.847,301,376
			C301,351.187,280.813,331,256,331z"/>
	</g>
</g>
<g>
</g>
<g>
</g>
<g>
</g>
<g>
</g>
<g>
</g>
<g>
</g>
<g>
</g>
<g>
</g>
<g>
</g>
<g>
</g>
<g>
</g>
<g>
</g>
<g>
</g>
<g>
</g>
<g>
</g>
</svg>
