<?xml version="1.0" encoding="iso-8859-1"?>
<!-- Generator: Adobe Illustrator 19.0.0, SVG Export Plug-In . SVG Version: 6.00 Build 0)  -->
<svg version="1.1" id="Capa_1" xmlns="http://www.w3.org/2000/svg" xmlns:xlink="http://www.w3.org/1999/xlink" x="0px" y="0px"
	 viewBox="0 0 512 512" style="enable-background:new 0 0 512 512;" xml:space="preserve">
<g>
	<g>
		<path d="M225.888,301.977h-119.94c-8.28,0-14.993,6.713-14.993,14.993v59.97c0,8.28,6.713,14.993,14.993,14.993h119.94
			c8.28,0,14.993-6.713,14.993-14.993v-59.97C240.88,308.69,234.168,301.977,225.888,301.977z M210.895,361.947H120.94v-29.985
			h89.955V361.947z"/>
	</g>
</g>
<g>
	<g>
		<path d="M496.754,481.888h-14.993V225.657c4.734-3.703,9.075-8.009,12.897-12.88c10.374-13.222,16.356-29.648,17.024-46.564
			c0.808-3.88,0.098-8.069-2.335-11.585l-57.57-83.22V45.105c0-24.801-20.177-44.978-44.978-44.978h-301.85
			c-24.801,0-44.978,20.177-44.978,44.978v26.328l-56.087,81.57C1.478,155.663,0,159.178,0,163.046
			c0,24.085,10.855,47.645,29.985,62.611v256.231H14.993C6.713,481.888,0,488.6,0,496.88s6.713,14.993,14.993,14.993h481.761
			c8.28,0,14.993-6.713,14.993-14.993S505.033,481.888,496.754,481.888z M468.337,148.053h-84.852l-28.97-56.972h74.409
			L468.337,148.053z M359.198,178.039c-5.262,18.997-22.706,32.984-43.354,32.984c-20.649,0-38.092-13.987-43.355-32.984H359.198z
			 M270.866,148.053V91.082h50.01l28.97,56.972H270.866z M89.955,45.105c0-8.267,6.726-14.993,14.993-14.993h301.85
			c8.267,0,14.993,6.726,14.993,14.993v15.992H89.955V45.105z M161.69,148.053l28.486-56.972h50.705v56.972H161.69z
			 M239.257,178.039c-5.262,18.997-22.706,32.984-43.354,32.984c-20.649,0-38.092-13.987-43.355-32.984H239.257z M82.849,91.082
			h73.803l-28.486,56.972h-84.49L82.849,91.082z M32.22,177.839h87.01c-6.108,21.046-27.623,36.511-51.931,32.557
			C50.729,207.699,37.333,194.553,32.22,177.839z M390.806,481.888h-89.955v-89.955h14.993c8.28,0,14.993-6.713,14.993-14.993
			s-6.713-14.993-14.993-14.993h-14.993v-14.993c0-24.801,20.177-44.978,44.978-44.978c24.801,0,44.978,20.177,44.978,44.978
			V481.888z M451.777,481.889h-30.985V346.956c0-41.335-33.628-74.963-74.963-74.963c-41.334,0-74.963,33.628-74.963,74.963v134.933
			H59.97V239.52c0.835,0.167,1.67,0.334,2.513,0.471c4.173,0.679,8.343,1.018,12.489,1.018c23.833,0,46.35-11.317,60.758-30.305
			c13.675,18.377,35.557,30.303,60.173,30.303c24.495,0,46.283-11.808,59.97-30.032c13.687,18.224,35.475,30.032,59.97,30.032
			c24.576,0,46.425-11.885,60.104-30.211c16.638,21.938,44.519,33.881,73.317,29.195c0.843-0.137,1.677-0.304,2.513-0.471V481.889z
			 M444.448,210.396c-23.556,3.831-45.706-10.597-51.951-32.357h87.031C474.414,194.752,461.016,207.699,444.448,210.396z"/>
	</g>
</g>
<g>
</g>
<g>
</g>
<g>
</g>
<g>
</g>
<g>
</g>
<g>
</g>
<g>
</g>
<g>
</g>
<g>
</g>
<g>
</g>
<g>
</g>
<g>
</g>
<g>
</g>
<g>
</g>
<g>
</g>
</svg>
