<?xml version="1.0" encoding="iso-8859-1"?>
<!-- Generator: Adobe Illustrator 19.0.0, SVG Export Plug-In . SVG Version: 6.00 Build 0)  -->
<svg version="1.1" id="Capa_1" xmlns="http://www.w3.org/2000/svg" xmlns:xlink="http://www.w3.org/1999/xlink" x="0px" y="0px"
	 viewBox="0 0 512 512" style="enable-background:new 0 0 512 512;" xml:space="preserve">
<g>
	<g>
		<path d="M467,0H45C20.187,0,0,20.187,0,45v362c0,24.813,20.187,45,45,45v45c0,8.284,6.716,15,15,15h90c8.284,0,15-6.716,15-15v-45
			h182v45c0,8.284,6.716,15,15,15h90c8.284,0,15-6.716,15-15v-45c24.813,0,45-20.187,45-45V45C512,20.187,491.813,0,467,0z M135,482
			H75v-30h60V482z M437,482h-60v-30h60V482z M482,407c0,8.271-6.729,15-15,15H45c-8.271,0-15-6.729-15-15V45c0-8.271,6.729-15,15-15
			h422c8.271,0,15,6.729,15,15V407z"/>
	</g>
</g>
<g>
	<g>
		<path d="M437,60H75c-8.284,0-15,6.716-15,15v302c0,8.284,6.716,15,15,15h362c8.284,0,15-6.716,15-15V256v-60V75
			C452,66.716,445.284,60,437,60z M422,241h-15c-8.271,0-15-6.729-15-15s6.729-15,15-15h15V241z M422,181h-15
			c-24.813,0-45,20.187-45,45s20.187,45,45,45h15v91H90V90h332V181z"/>
	</g>
</g>
<g>
	<g>
		<path d="M316,241h-46.509c-6.968-34.192-37.271-60-73.491-60c-41.355,0-75,33.645-75,75s33.645,75,75,75
			c36.22,0,66.522-25.808,73.491-60H316c8.284,0,15-6.716,15-15S324.284,241,316,241z M196,271h42.42
			c-6.192,17.458-22.865,30-42.42,30c-24.813,0-45-20.187-45-45s20.187-45,45-45c19.555,0,36.228,12.542,42.42,30H196
			c-8.284,0-15,6.716-15,15S187.716,271,196,271z"/>
	</g>
</g>
<g>
	<g>
		<circle cx="136" cy="135" r="15"/>
	</g>
</g>
<g>
	<g>
		<circle cx="196" cy="135" r="15"/>
	</g>
</g>
<g>
	<g>
		<circle cx="256" cy="135" r="15"/>
	</g>
</g>
<g>
	<g>
		<circle cx="316" cy="135" r="15"/>
	</g>
</g>
<g>
</g>
<g>
</g>
<g>
</g>
<g>
</g>
<g>
</g>
<g>
</g>
<g>
</g>
<g>
</g>
<g>
</g>
<g>
</g>
<g>
</g>
<g>
</g>
<g>
</g>
<g>
</g>
<g>
</g>
</svg>
