<?xml version="1.0" encoding="iso-8859-1"?>
<!-- Generator: Adobe Illustrator 19.0.0, SVG Export Plug-In . SVG Version: 6.00 Build 0)  -->
<svg version="1.1" id="Capa_1" xmlns="http://www.w3.org/2000/svg" xmlns:xlink="http://www.w3.org/1999/xlink" x="0px" y="0px"
	 viewBox="0 0 512.001 512.001" style="enable-background:new 0 0 512.001 512.001;" xml:space="preserve">
<g>
	<g>
		<path d="M511.994,255.855c-0.014-1.39-0.297-3.184-0.766-4.597l-60-179.999c-2.71-8.115-11.617-12.302-19.581-9.26
			c-0.073,0.028-0.148,0.047-0.221,0.076c-41.768,16.708-89.311,17.709-131.774,3.009c-3.67-14.668-14.556-26.502-28.654-31.502
			v-18.58c0-8.284-6.716-15-15-15c-8.284,0-15,6.716-15,15v18.58c-14.097,5-24.983,16.833-28.654,31.502
			c-42.463,14.7-90.006,13.699-131.774-3.009c-0.073-0.029-0.148-0.048-0.222-0.076c-8.005-3.061-16.903,1.228-19.58,9.26
			l-60,179.999c-0.01,0.032-0.016,0.064-0.027,0.095c-0.435,1.338-0.728,3.025-0.738,4.552C0.005,255.936,0,255.969,0,256
			c0,8.084,1.282,16.043,3.812,23.658C14.015,310.367,42.623,331,75,331c41.353,0,74.998-33.644,75.003-74.997
			c0-0.05-0.007-0.098-0.007-0.148c-0.015-1.528-0.299-3.132-0.726-4.451c-0.016-0.049-0.024-0.098-0.041-0.146L98.546,99.206
			c38.505,9.322,79.236,8.077,116.954-3.601c3.127,6.435,7.745,12.015,13.4,16.295L197.752,362h-1.753c-24.813,0-45,20.187-45,45v15
			h-15c-24.813,0-45,20.187-45,45v30c0,8.284,6.716,15,15,15h299.998c8.284,0,15-6.716,15-15v-30c0-24.813-20.187-45-45-45h-15v-15
			c0-24.813-20.187-45-45-45h-1.752l-31.149-250.1c5.655-4.28,10.272-9.86,13.4-16.295c37.69,11.669,78.421,12.93,116.954,3.601
			l-50.684,152.052c-0.01,0.032-0.016,0.064-0.027,0.095c-0.429,1.318-0.728,3.052-0.738,4.552c0,0.032-0.005,0.064-0.005,0.096
			c0,8.084,1.282,16.043,3.812,23.658C376.012,310.367,404.621,331,436.998,331c41.353,0,74.998-33.644,75.003-74.997
			C512.001,255.952,511.994,255.904,511.994,255.855z M75,301c-19.148,0-36.099-12.02-42.444-30h84.875
			C111.238,288.462,94.556,301,75,301z M114.188,241.001H35.813L75,123.436L114.188,241.001z M255.999,61.002
			c8.271,0,15,6.729,15,15s-6.729,15-15,15c-8.271,0-15-6.729-15-15S247.728,61.002,255.999,61.002z M375.998,451.999
			c8.271,0,15,6.729,15,15v15H121v-15c0-8.271,6.729-15,15-15H375.998z M315.998,391.999c8.271,0,15,6.729,15,15v15H181v-15
			c0-8.271,6.729-15,15-15h15h89.999H315.998z M284.015,362h-56.032l28.016-224.948L284.015,362z M436.998,123.436l39.188,117.565
			h-78.376L436.998,123.436z M436.998,301c-19.148,0-36.099-12.02-42.444-30h84.875C473.235,288.462,456.553,301,436.998,301z"/>
	</g>
</g>
<g>
</g>
<g>
</g>
<g>
</g>
<g>
</g>
<g>
</g>
<g>
</g>
<g>
</g>
<g>
</g>
<g>
</g>
<g>
</g>
<g>
</g>
<g>
</g>
<g>
</g>
<g>
</g>
<g>
</g>
</svg>
