<?xml version="1.0" encoding="iso-8859-1"?>
<!-- Generator: Adobe Illustrator 19.0.0, SVG Export Plug-In . SVG Version: 6.00 Build 0)  -->
<svg version="1.1" id="Capa_1" xmlns="http://www.w3.org/2000/svg" xmlns:xlink="http://www.w3.org/1999/xlink" x="0px" y="0px"
	 viewBox="0 0 512 512" style="enable-background:new 0 0 512 512;" xml:space="preserve">
<g>
	<g>
		<path d="M494.426,228.573c-5.857-5.858-15.355-5.858-21.213,0c-5.858,5.858-5.858,15.355,0,21.213
			c5.666,5.666,8.787,13.2,8.787,21.213c0,16.262-14.196,30-31,30h-0.669c-0.014-0.161-0.025-0.321-0.04-0.482
			c-3.711-40.611-23.168-78.247-54.787-105.977c-26.511-23.25-59.575-37.917-94.538-42.213c0.01-0.443,0.034-0.883,0.034-1.328
			c0-33.084-26.916-60-60-60c-33.084,0-60,26.916-60,60c0,0.229,0.015,0.455,0.017,0.684c-9.107,0.821-18.104,2.378-26.92,4.687
			C134.104,133.766,106.182,121,76,121c-9.267,0-16.318,8.332-14.796,17.466l11.376,68.245
			c-16.729,18.662-28.855,40.84-35.566,64.998C15.997,275.489,0,293.911,0,316v30c0,25.636,21.291,44.948,44.121,45.004l4.881,0.006
			c10.255,20.051,24.58,37.886,41.998,52.274V497c0,8.284,6.716,15,15,15h60c8.284,0,15-6.716,15-15v-16h90v16
			c0,8.284,6.716,15,15,15h60c8.284,0,15-6.716,15-15v-33.99c50.82-25.926,84.143-75.977,89.286-132.01H451
			c16.003,0,31.19-6.185,42.765-17.414C505.524,302.177,512,287.053,512,271C512,254.973,505.759,239.906,494.426,228.573z M241,121
			c16.542,0,30,13.458,30,30s-13.458,30-30,30s-30-13.458-30-30S224.458,121,241,121z M339.994,439.773
			c-5.463,2.387-8.994,7.783-8.994,13.745V482h-30v-46c0-8.284-6.716-15-15-15s-15,6.716-15,15v15h-90v-18c0-8.284-6.716-15-15-15
			s-15,6.716-15,15c0,10.282,0,32.65,0,49h-30v-45.989c0-4.718-2.22-9.16-5.991-11.994c-18.669-14.022-33.46-32.697-42.774-54.004
			c-2.386-5.458-7.773-8.986-13.729-8.992c-7.241-0.007-11.113-0.011-13.069-0.015C45.291,361.002,45.146,361,45,361
			c-8.271,0-15-6.729-15-15v-30c0-8.271,6.729-15,14.998-15c0.105,0,4.012,0,4.002,0c7.134,0,13.281-5.025,14.7-12.016
			c5.152-25.379,17.455-48.507,35.577-66.884c3.375-3.423,4.905-8.257,4.115-12.999l-9.313-55.874
			c16.812,4.234,31.744,14.361,42.482,29.18c3.838,5.296,10.666,7.495,16.872,5.435c11.538-3.83,23.536-6.047,35.748-6.654
			C199.598,199.001,218.918,211,241,211c21.919,0,41.121-11.821,51.592-29.416c67.714,5.945,121.895,56.791,127.824,121.664
			C425.744,361.563,393.426,416.428,339.994,439.773z"/>
	</g>
</g>
<g>
	<g>
		<circle cx="106" cy="286" r="15"/>
	</g>
</g>
<g>
	<g>
		<path d="M286,241h-90c-8.284,0-15,6.716-15,15s6.716,15,15,15h90c8.284,0,15-6.716,15-15S294.284,241,286,241z"/>
	</g>
</g>
<g>
	<g>
		<path d="M361,0c-33.084,0-60,26.916-60,60s26.916,60,60,60s60-26.916,60-60S394.084,0,361,0z M361,90c-16.542,0-30-13.458-30-30
			s13.458-30,30-30s30,13.458,30,30S377.542,90,361,90z"/>
	</g>
</g>
<g>
</g>
<g>
</g>
<g>
</g>
<g>
</g>
<g>
</g>
<g>
</g>
<g>
</g>
<g>
</g>
<g>
</g>
<g>
</g>
<g>
</g>
<g>
</g>
<g>
</g>
<g>
</g>
<g>
</g>
</svg>
