<?xml version="1.0" encoding="iso-8859-1"?>
<!-- Generator: Adobe Illustrator 19.0.0, SVG Export Plug-In . SVG Version: 6.00 Build 0)  -->
<svg version="1.1" id="Capa_1" xmlns="http://www.w3.org/2000/svg" xmlns:xlink="http://www.w3.org/1999/xlink" x="0px" y="0px"
	 viewBox="0 0 512 512" style="enable-background:new 0 0 512 512;" xml:space="preserve">
<g>
	<g>
		<path d="M256,211c-8.271,0-15-6.729-15-15c0-6.042,3.596-11.468,9.159-13.825c6.713-2.843,14.754-0.418,22.059,6.659
			c5.95,5.766,15.446,5.612,21.211-0.336c5.764-5.95,5.614-15.446-0.336-21.211c-6.772-6.561-14.3-11.198-22.093-13.815V136
			c0-8.284-6.716-15-15-15s-15,6.716-15,15v17.571c-0.851,0.303-1.699,0.623-2.54,0.979C221.778,161.615,211,177.885,211,196
			c0,24.813,20.187,45,45,45c8.271,0,15,6.729,15,15c0,6.286-3.965,11.953-9.866,14.103c-7.699,2.805-16.674-0.999-24.606-10.445
			c-5.329-6.344-14.788-7.167-21.134-1.839c-6.344,5.328-7.167,14.79-1.839,21.133c8.109,9.655,17.549,16.276,27.445,19.608V316
			c0,8.284,6.716,15,15,15s15-6.716,15-15v-17.572c0.134-0.047,0.268-0.088,0.401-0.137C289.105,291.843,301,274.847,301,256
			C301,231.187,280.813,211,256,211z"/>
	</g>
</g>
<g>
	<g>
		<path d="M467,150c8.284,0,15-6.716,15-15c0-8.271,6.729-15,15-15c8.284,0,15-6.716,15-15V45c0-8.284-6.716-15-15-15
			c-8.271,0-15-6.729-15-15c0-8.284-6.716-15-15-15H45c-8.284,0-15,6.716-15,15c0,8.271-6.729,15-15,15C6.716,30,0,36.716,0,45v60
			c0,8.284,6.716,15,15,15c8.271,0,15,6.729,15,15c0,8.284,6.716,15,15,15h46v302c0,33.084,26.916,60,60,60h300
			c33.084,0,60-26.916,60-60v-75c0-8.284-6.716-15-15-15h-75V150H467z M151,482c-16.542,0-30-13.458-30-30V90h270v287v42.384V452
			c0,10.925,2.949,21.167,8.072,30H151z M481,392v60c0,16.542-13.458,30-30,30s-30-13.458-30-30v-32.616V392H481z M76,60
			c-8.284,0-15,6.716-15,15s6.716,15,15,15h15v30H57.43C52.903,107.232,42.768,97.097,30,92.57V57.43
			C42.768,52.903,52.903,42.768,57.43,30h397.14c4.526,12.768,14.662,22.903,27.43,27.43v35.14
			c-12.768,4.527-22.903,14.662-27.43,27.43H421V90h15c8.284,0,15-6.716,15-15s-6.716-15-15-15H76z"/>
	</g>
</g>
<g>
	<g>
		<path d="M346,362H166c-8.284,0-15,6.716-15,15s6.716,15,15,15h180c8.284,0,15-6.716,15-15S354.284,362,346,362z"/>
	</g>
</g>
<g>
	<g>
		<path d="M346,422H166c-8.284,0-15,6.716-15,15s6.716,15,15,15h180c8.284,0,15-6.716,15-15S354.284,422,346,422z"/>
	</g>
</g>
<g>
</g>
<g>
</g>
<g>
</g>
<g>
</g>
<g>
</g>
<g>
</g>
<g>
</g>
<g>
</g>
<g>
</g>
<g>
</g>
<g>
</g>
<g>
</g>
<g>
</g>
<g>
</g>
<g>
</g>
</svg>
