<?xml version="1.0" encoding="iso-8859-1"?>
<!-- Generator: Adobe Illustrator 19.0.0, SVG Export Plug-In . SVG Version: 6.00 Build 0)  -->
<svg version="1.1" id="Capa_1" xmlns="http://www.w3.org/2000/svg" xmlns:xlink="http://www.w3.org/1999/xlink" x="0px" y="0px"
	 viewBox="0 0 512 512" style="enable-background:new 0 0 512 512;" xml:space="preserve">
<g>
	<g>
		<path d="M493.927,165.92L421,111.917V66.974c0-8.284-6.716-15-15-15h-65.043L283,8.974C267.103-2.95,244.897-2.949,229.063,8.928
			l-58.019,43.046H106c-8.284,0-15,6.716-15,15v44.942l-73,54.058c-11.254,8.44-18,21.973-18,36v265c0,24.719,20.111,45,45,45h422
			c24.895,0,45-20.277,45-45v-265C512,188.025,505.313,174.459,493.927,165.92z M421,149.246l52.564,38.925L421,230.196V149.246z
			 M247,32.974C252.299,29,259.701,29,265.063,33.021l25.546,18.954h-69.217L247,32.974z M121,81.974c7.938,0,264.814,0,270,0
			v172.208l-96.42,77.09L271,314.291v-24.87c17.175-6.055,30-22.526,30-42.447c0-24.871-20.125-45-45-45c-8.291,0-15-6.708-15-15
			c0-8.291,6.708-15,15-15c4.006,0,7.773,1.56,10.606,4.393c5.857,5.858,15.355,5.858,21.213,0c5.858-5.858,5.858-15.355,0-21.213
			c-4.829-4.829-10.564-8.421-16.819-10.627v-17.553c0-8.284-6.716-15-15-15s-15,6.716-15,15v17.553
			c-17.383,6.129-30,22.748-30,42.447c0,24.872,20.127,45,45,45c8.291,0,15,6.708,15,15c0,8.291-6.708,15-15,15
			c-4.007,0-7.773-1.561-10.607-4.394c-5.857-5.857-15.355-5.857-21.213,0.001c-5.858,5.858-5.857,15.355,0.001,21.213
			c4.829,4.829,10.564,8.421,16.819,10.626v24.87l-23.58,16.98L121,254.182V81.974z M91,149.247v80.949L38.436,188.17L91,149.247z
			 M30,466.235V219.836l162.144,129.637L30,466.235z M59.481,481.975L256,340.459l196.519,141.516H59.481z M482,466.235
			L319.856,349.473L482,219.836V466.235z"/>
	</g>
</g>
<g>
</g>
<g>
</g>
<g>
</g>
<g>
</g>
<g>
</g>
<g>
</g>
<g>
</g>
<g>
</g>
<g>
</g>
<g>
</g>
<g>
</g>
<g>
</g>
<g>
</g>
<g>
</g>
<g>
</g>
</svg>
