<?xml version="1.0" encoding="iso-8859-1"?>
<!-- Generator: Adobe Illustrator 19.0.0, SVG Export Plug-In . SVG Version: 6.00 Build 0)  -->
<svg version="1.1" id="Capa_1" xmlns="http://www.w3.org/2000/svg" xmlns:xlink="http://www.w3.org/1999/xlink" x="0px" y="0px"
	 viewBox="0 0 512 512" style="enable-background:new 0 0 512 512;" xml:space="preserve">
<g>
	<g>
		<path d="M434.201,316.197c-0.018,0.019-0.037,0.034-0.055,0.053l-45.088,47.68c-4.486-14.751-16.359-26.309-31.292-30.359
			C378.207,314.401,391,287.168,391,257c0-8.284-6.716-15-15-15h-30c-29.354,0-55.927,12.113-75,31.596V210h135
			c8.284,0,15-6.716,15-15V15c0-8.284-6.716-15-15-15H106c-8.284,0-15,6.716-15,15v180c0,8.284,6.716,15,15,15h135v63.585
			C221.928,254.104,195.352,242,166,242h-30c-8.284,0-15,6.716-15,15c0,17.588,4.47,34.845,12.777,50.144
			c-7.414,3.724-14.473,8.375-21.006,13.964C104.616,309.562,91.178,302,76,302H15c-8.284,0-15,6.716-15,15v180
			c0,8.284,6.716,15,15,15h61c13.471,0,25.57-5.958,33.824-15.368C138.483,504.688,169.004,512,212.063,512H346
			c32.873,0,64.275-15.701,83.94-41.92l73.014-96.018c0.01-0.013,0.017-0.027,0.027-0.04c0.01-0.014,0.023-0.025,0.033-0.039
			C508.893,366.146,512,356.815,512,347C512,306.24,461.94,286.672,434.201,316.197z M91,467c0,8.271-6.729,15-15,15H30V332h46
			c8.271,0,15,6.729,15,15V467z M346,272h13.493c-6.97,34.191-37.274,60-73.493,60h-13.493C279.477,297.809,309.781,272,346,272z
			 M391,180h-27.42c4.527-12.764,14.656-22.893,27.42-27.42V180z M391,30v27.42c-12.764-4.527-22.893-14.656-27.42-27.42H391z
			 M121,30h27.42c-4.527,12.764-14.656,22.893-27.42,27.42V30z M121,180v-27.42c12.764,4.527,22.893,14.656,27.42,27.42H121z
			 M179.491,180.001c-5.981-29.345-29.147-52.511-58.491-58.492V88.491c29.344-5.98,52.51-29.147,58.491-58.491H332.51
			c5.98,29.344,29.147,52.511,58.491,58.491v33.019c-29.344,5.98-52.51,29.147-58.491,58.491H179.491z M166,272
			c27.117,0,50.918,14.467,64.093,36.087c-20.796-10.975-44.521-14.495-67.199-10.559c-5.003-7.797-8.521-16.466-10.374-25.528H166z
			 M479.02,355.974L406,452c-14.089,18.785-36.519,30-60,30H212.063c-34.839,0-62.429-5.485-91.304-13.6
			c0.06-1.709,0.041,7.389,0.041-114.818l10.653-8.999c28.246-24.857,70.847-24.857,99.094,0C245.715,357.93,248.453,362,256,362
			c11.31,0,80.756,0,90,0c8.271,0,15,6.729,15,15s-6.729,15-15,15H239.394c-8.284,0-15,6.716-15,15s6.716,15,15,15h116.66
			c12.424,0,24.408-5.206,32.888-14.284l67.001-70.854c0.013-0.014,0.023-0.028,0.036-0.042c0.013-0.014,0.028-0.026,0.041-0.04
			c2.872-3.083,6.771-4.78,10.98-4.78C479.324,332,486.388,346.141,479.02,355.974z"/>
	</g>
</g>
<g>
	<g>
		<path d="M256,60c-24.813,0-45,20.187-45,45s20.187,45,45,45s45-20.187,45-45S280.813,60,256,60z M256,120c-8.271,0-15-6.729-15-15
			s6.729-15,15-15s15,6.729,15,15S264.271,120,256,120z"/>
	</g>
</g>
<g>
</g>
<g>
</g>
<g>
</g>
<g>
</g>
<g>
</g>
<g>
</g>
<g>
</g>
<g>
</g>
<g>
</g>
<g>
</g>
<g>
</g>
<g>
</g>
<g>
</g>
<g>
</g>
<g>
</g>
</svg>
