<?xml version="1.0" encoding="iso-8859-1"?>
<!-- Generator: Adobe Illustrator 19.0.0, SVG Export Plug-In . SVG Version: 6.00 Build 0)  -->
<svg version="1.1" id="Capa_1" xmlns="http://www.w3.org/2000/svg" xmlns:xlink="http://www.w3.org/1999/xlink" x="0px" y="0px"
	 viewBox="0 0 512 512" style="enable-background:new 0 0 512 512;" xml:space="preserve">
<g>
	<g>
		<path d="M436,120h-76.086c0.708-4.945,1.086-9.951,1.086-15C361,47.103,313.897,0,256,0c-57.897,0-105,47.103-105,105
			c0,5.049,0.378,10.055,1.086,15H76c-24.813,0-45,20.187-45,45c0,22.36,16.395,40.956,37.793,44.416L196,350.756V497
			c0,5.532,3.045,10.615,7.922,13.225c2.218,1.187,4.65,1.775,7.077,1.775c2.91,0,5.812-0.846,8.321-2.519l90-60
			c4.173-2.782,6.68-7.466,6.68-12.481v-86.244l127.207-141.341C464.605,205.956,481,187.36,481,165
			C481,140.187,460.813,120,436,120z M256,30c41.355,0,75,33.645,75,75c0,5.078-0.515,10.092-1.51,15H182.51
			c-0.995-4.908-1.51-9.922-1.51-15C181,63.645,214.645,30,256,30z M286,428.972l-60,40V360h60V428.972z M294.319,330H217.68
			l-108-120h292.639L294.319,330z M436,180H76c-8.271,0-15-6.729-15-15s6.729-15.2,15-15.2l264.785,0.2
			c0.031,0,0.063,0.004,0.094,0.004c0.034,0,0.067-0.004,0.101-0.004l95.02-0.2c8.271,0,15,6.929,15,15.2S444.271,180,436,180z"/>
	</g>
</g>
<g>
</g>
<g>
</g>
<g>
</g>
<g>
</g>
<g>
</g>
<g>
</g>
<g>
</g>
<g>
</g>
<g>
</g>
<g>
</g>
<g>
</g>
<g>
</g>
<g>
</g>
<g>
</g>
<g>
</g>
</svg>
