<?xml version="1.0" encoding="iso-8859-1"?>
<!-- Generator: Adobe Illustrator 19.0.0, SVG Export Plug-In . SVG Version: 6.00 Build 0)  -->
<svg version="1.1" id="Capa_1" xmlns="http://www.w3.org/2000/svg" xmlns:xlink="http://www.w3.org/1999/xlink" x="0px" y="0px"
	 viewBox="0 0 512.001 512.001" style="enable-background:new 0 0 512.001 512.001;" xml:space="preserve">
<g>
	<g>
		<path d="M496.983,210.987h-19.501c-19.98-98.515-104.156-171.85-204.476-179.353c-0.246-0.019-0.488-0.011-0.732-0.018
			C147.31,22.787,42.062,116.143,30.997,234.973l-28.46,42.689c-6.64,9.96,0.532,23.318,12.48,23.318h19.515
			c0.014,0.07,0.031,0.14,0.045,0.209C55.63,404.482,147.684,480.963,255.972,480.963c118.214,0,214.491-90.725,225.033-203.97
			l28.458-42.687C516.103,224.349,508.932,210.987,496.983,210.987z M283.874,448.995C180.428,463.878,81.285,393.238,63.023,290.23
			c-0.699-3.928-1.011-19.247-15.882-19.247h-4.099c15.014-22.52,24.025-36.037,31.97-47.955l31.993,47.99
			c-9.048,0.615-15.488,9.076-13.678,17.96c14.694,72.089,79.691,131.829,162.968,131.825
			c72.682-0.004,135.159-47.143,157.246-112.952l10.966,16.449c2.75,4.126,7.36,6.619,12.312,6.674
			C410.658,392.754,353.1,439.093,283.874,448.995z M364.512,234.306l26.304,39.456c-7.51,56.264-51.163,102.954-107.814,114.501
			c-67.057,13.69-132.884-25.345-155.225-87.282h7.231c11.971,0,19.11-13.377,12.481-23.318l-26.307-39.46
			c7.509-56.265,51.164-102.95,107.815-114.497c66.344-13.524,132.594,24.147,155.242,87.282h-7.248
			C365.021,210.987,357.883,224.363,364.512,234.306z M436.987,288.94l-31.992-47.989c9.048-0.625,15.463-9.048,13.687-17.909
			v-0.001c-0.001-0.008-0.003-0.015-0.004-0.022c-0.001-0.001-0.001-0.003-0.001-0.004c-0.002-0.008-0.004-0.017-0.006-0.025
			C400.945,136.013,312.364,72.917,216.129,95.713c-51.07,12.095-98.812,52.623-117.652,108.432l-10.984-16.477
			c-2.751-4.126-7.362-6.619-12.312-6.674c26.144-61.739,84.017-108.709,154.484-118.236c102.8-13.45,199.418,55.378,218.843,156.41
			c1.665,8.705,1.295,9.012,2.101,11.485c0.014,0.043,0.023,0.088,0.038,0.131c1.964,5.84,7.534,10.199,14.248,10.199h4.063
			C462.125,251.234,443.112,279.753,436.987,288.94z"/>
	</g>
</g>
<g>
	<g>
		<path d="M256,240.984c-4.007,0-7.773-1.561-10.605-4.393c-5.862-5.863-5.863-15.349-0.001-21.212
			c5.863-5.862,15.35-5.863,21.213,0c5.857,5.858,15.354,5.858,21.211,0c5.858-5.858,5.858-15.354,0-21.212
			c-4.829-4.829-10.563-8.42-16.818-10.626v-17.552c0-8.283-6.716-14.999-14.999-14.999c-8.283,0-14.999,6.716-14.999,14.999v17.552
			c-17.207,6.067-29.998,22.559-29.998,42.444c-0.001,24.871,20.126,44.998,44.996,44.998c8.29,0,14.999,6.708,14.999,14.999
			c0,8.29-6.708,14.999-14.999,14.999c-4.007,0-7.772-1.561-10.606-4.394c-5.857-5.857-15.354-5.857-21.211,0.001
			s-5.857,15.354,0.001,21.212c4.829,4.829,10.563,8.42,16.818,10.625v17.552c0,8.283,6.716,14.999,14.999,14.999
			c8.283,0,14.999-6.716,14.999-14.999v-17.552c17.201-6.065,29.998-22.551,29.998-42.444
			C300.997,261.112,280.873,240.984,256,240.984z"/>
	</g>
</g>
<g>
</g>
<g>
</g>
<g>
</g>
<g>
</g>
<g>
</g>
<g>
</g>
<g>
</g>
<g>
</g>
<g>
</g>
<g>
</g>
<g>
</g>
<g>
</g>
<g>
</g>
<g>
</g>
<g>
</g>
</svg>
