<?xml version="1.0" encoding="iso-8859-1"?>
<!-- Generator: Adobe Illustrator 19.0.0, SVG Export Plug-In . SVG Version: 6.00 Build 0)  -->
<svg version="1.1" id="Capa_1" xmlns="http://www.w3.org/2000/svg" xmlns:xlink="http://www.w3.org/1999/xlink" x="0px" y="0px"
	 viewBox="0 0 512 512" style="enable-background:new 0 0 512 512;" xml:space="preserve">
<g>
	<g>
		<path d="M346,181c-26.989,0-52.486,6.514-75,18.052V61c0-10.838-5.813-31.265-44.739-46.31C201.754,5.217,169.698,0,136,0
			C71.723,0,0,20.288,0,61v300c0,39.391,68.417,60,136,60c21.141,0,41.641-1.963,60.079-5.712C222.224,472.318,279.589,512,346,512
			c91.228,0,166-74.797,166-166C512,255.019,437.532,181,346,181z M136,30c66.13,0,105,21.461,105,31c0,8.826-36.81,30-105,30
			C67.706,91,30,69.628,30,61C30,52.125,68.182,30,136,30z M30,99.99C56.237,113.871,96.259,121,136,121
			c33.457,0,75.552-5.231,105-20.74V121c0,8.826-36.81,30-105,30c-67.393,0-106-21.033-106-30V99.99z M30,159.997
			C56.237,173.874,96.264,181,136,181c33.457,0,75.552-5.231,105-20.74V181c0,8.826-36.81,30-105,30c-68.294,0-106-21.372-106-30
			V159.997z M136,391c-67.393,0-106-21.033-106-30v-21.01C56.237,353.871,96.259,361,136,361c15.566,0,30.977-1.09,45.423-3.18
			c0.694,9.883,2.251,19.529,4.597,28.863C170.614,389.52,153.607,391,136,391z M182.058,327.366
			C167.671,329.75,151.966,331,136,331c-68.294,0-106-21.372-106-30v-21.01C56.237,293.871,96.259,301,136,301
			c18.191,0,36.097-1.503,52.532-4.324C185.435,306.541,183.251,316.805,182.058,327.366z M136,271c-67.393,0-106-21.033-106-30
			v-21.01C56.237,233.871,96.259,241,136,241c33.807,0,65.813-5.02,90.12-14.135c3.943-1.479,7.536-3.014,10.843-4.589
			c-13.116,11.572-24.382,25.19-33.297,40.352C184.339,268.038,160.582,271,136,271z M346,482c-74.487,0-135-61.091-135-136
			c0-74.439,60.561-135,135-135c74.99,0,136,60.561,136,135C482,420.991,420.99,482,346,482z"/>
	</g>
</g>
<g>
	<g>
		<path d="M421,316c0-24.813-20.187-45-45-45h-15v-15c0-8.284-6.716-15-15-15s-15,6.716-15,15v15h-45c-8.284,0-15,6.716-15,15
			s6.716,15,15,15h15v90h-15c-8.284,0-15,6.716-15,15s6.716,15,15,15h45v15c0,8.284,6.716,15,15,15s15-6.716,15-15v-15h15
			c24.813,0,45-20.187,45-45c0-11.517-4.354-22.032-11.495-30C416.646,338.032,421,327.517,421,316z M376,391h-45v-30h45
			c8.271,0,15,6.729,15,15S384.271,391,376,391z M376,331h-45v-30h45c8.271,0,15,6.729,15,15S384.271,331,376,331z"/>
	</g>
</g>
<g>
</g>
<g>
</g>
<g>
</g>
<g>
</g>
<g>
</g>
<g>
</g>
<g>
</g>
<g>
</g>
<g>
</g>
<g>
</g>
<g>
</g>
<g>
</g>
<g>
</g>
<g>
</g>
<g>
</g>
</svg>
