<?xml version="1.0" encoding="iso-8859-1"?>
<!-- Generator: Adobe Illustrator 19.0.0, SVG Export Plug-In . SVG Version: 6.00 Build 0)  -->
<svg version="1.1" id="Capa_1" xmlns="http://www.w3.org/2000/svg" xmlns:xlink="http://www.w3.org/1999/xlink" x="0px" y="0px"
	 viewBox="0 0 512 512" style="enable-background:new 0 0 512 512;" xml:space="preserve">
<g>
	<g>
		<path d="M436.813,75.188C388.327,26.702,324.113,0,256,0S123.673,26.702,75.188,75.188C26.702,123.673,0,187.887,0,256
			s26.702,132.327,75.188,180.812C123.673,485.298,187.887,512,256,512s132.327-26.702,180.813-75.188
			C485.298,388.327,512,324.113,512,256S485.298,123.673,436.813,75.188z M256,482C131.383,482,30,380.617,30,256S131.383,30,256,30
			s226,101.383,226,226S380.617,482,256,482z"/>
	</g>
</g>
<g>
	<g>
		<path d="M394.328,117.672C357.138,80.482,308.012,60,256,60c-52.012,0-101.138,20.482-138.328,57.672
			C80.481,154.862,60,203.988,60,256c0,52.012,20.481,101.138,57.672,138.328C154.862,431.519,203.988,452,256,452
			c52.012,0,101.138-20.481,138.328-57.672C431.519,357.138,452,308.012,452,256C452,203.988,431.519,154.862,394.328,117.672z
			 M256,422c-91.533,0-166-74.467-166-166S164.467,90,256,90s166,74.467,166,166S347.533,422,256,422z"/>
	</g>
</g>
<g>
	<g>
		<path d="M316,271c8.284,0,15-6.716,15-15s-6.716-15-15-15h-31.972l44.453-66.679c4.595-6.894,2.733-16.206-4.161-20.802
			c-6.893-4.595-16.207-2.733-20.801,4.16L256,228.958l-47.519-71.279c-4.596-6.893-13.911-8.756-20.801-4.16
			c-6.893,4.595-8.756,13.908-4.161,20.801L227.972,241H196c-8.284,0-15,6.716-15,15s6.716,15,15,15h45v30h-45
			c-8.284,0-15,6.716-15,15s6.716,15,15,15h45v45c0,8.284,6.716,15,15,15s15-6.716,15-15v-45h45c8.284,0,15-6.716,15-15
			s-6.716-15-15-15h-45v-30H316z"/>
	</g>
</g>
<g>
</g>
<g>
</g>
<g>
</g>
<g>
</g>
<g>
</g>
<g>
</g>
<g>
</g>
<g>
</g>
<g>
</g>
<g>
</g>
<g>
</g>
<g>
</g>
<g>
</g>
<g>
</g>
<g>
</g>
</svg>
