<?xml version="1.0" encoding="iso-8859-1"?>
<!-- Generator: Adobe Illustrator 19.0.0, SVG Export Plug-In . SVG Version: 6.00 Build 0)  -->
<svg version="1.1" id="Capa_1" xmlns="http://www.w3.org/2000/svg" xmlns:xlink="http://www.w3.org/1999/xlink" x="0px" y="0px"
	 viewBox="0 0 512.002 512.002" style="enable-background:new 0 0 512.002 512.002;" xml:space="preserve">
<g>
	<g>
		<path d="M482,304.582V105.107c0-0.02,0-0.039,0-0.059v-0.045c0-0.077-0.01-0.151-0.011-0.228
			c-0.042-2.934-0.923-5.629-2.397-7.906c-0.04-0.061-0.071-0.125-0.111-0.186l-0.024-0.036c-0.012-0.017-0.023-0.035-0.035-0.052
			L419.48,6.681c-2.782-4.173-7.465-6.679-12.48-6.679H135c-5.015,0-9.699,2.507-12.481,6.679L62.574,96.599
			c-0.009,0.013-0.017,0.025-0.025,0.038l-0.029,0.044c-0.05,0.074-0.088,0.153-0.135,0.227c-1.56,2.426-2.334,5.129-2.372,7.867
			c-0.001,0.076-0.011,0.15-0.011,0.227v0.045c0,0.02,0,0.039,0,0.059v196.895H15c-8.284,0-15,6.716-15,15v180
			c0,8.284,6.716,15,15,15h60c13.471,0,25.57-5.958,33.824-15.368c15.761,4.43,51.723,15.368,102.239,15.368H347
			c32.874,0,64.275-15.701,84-41.999l72.013-96.015c0-0.001,0.001-0.001,0.002-0.002C521.177,349.77,510.63,314.736,482,304.582z
			 M331,30.002h67.973l40,60H331V30.002z M241,30.002h60v60h-60V30.002z M241,120.002h60v77.972l-21.68-14.453
			c-5.039-3.359-11.603-3.359-16.641,0L241,197.974V120.002z M143.028,30.002H211v60H103.028L143.028,30.002z M90,467.002
			c0,8.271-6.729,15-15,15H30v-150h45c8.271,0,15,6.729,15,15V467.002z M90,304.582v-184.58h121v106
			c0,11.97,13.377,19.11,23.32,12.481L271,214.03l36.68,24.453c9.914,6.611,23.32-0.464,23.32-12.481v-106h121v184.602
			c-6.771,2.4-12.958,6.391-17.932,11.73l-44.087,47.328c-5.698-18.32-22.81-31.66-42.981-31.66h-71.295
			c-9.702,0-19.056-3.53-26.339-9.939c-39.173-34.471-98.052-34.775-137.596-0.954C106.441,313.563,98.856,307.723,90,304.582z
			 M479.015,355.984c-0.001,0.002-0.002,0.003-0.003,0.005L407,452.002c-14.089,18.785-36.519,30-60,30H211.063
			c-35.174,0-62.813-5.392-91.304-13.401c0.06-1.717,0.041,7.442,0.041-114.818l10.653-9.199c28.246-24.857,70.847-24.857,99.094,0
			c12.763,11.232,29.156,17.417,46.158,17.417H347c8.271,0,15,6.729,15,15s-6.729,15-15,15H239c-8.284,0-15,6.716-15,15
			s6.716,15,15,15h118.054c12.444,0,24.446-5.222,32.928-14.327l66.038-70.892c2.872-3.083,6.771-4.78,10.98-4.78
			C479.357,332.002,486.375,346.173,479.015,355.984z"/>
	</g>
</g>
<g>
	<g>
		<path d="M407,272.002h-60c-8.284,0-15,6.716-15,15s6.716,15,15,15h60c8.284,0,15-6.716,15-15S415.284,272.002,407,272.002z"/>
	</g>
</g>
<g>
</g>
<g>
</g>
<g>
</g>
<g>
</g>
<g>
</g>
<g>
</g>
<g>
</g>
<g>
</g>
<g>
</g>
<g>
</g>
<g>
</g>
<g>
</g>
<g>
</g>
<g>
</g>
<g>
</g>
</svg>
