<?xml version="1.0" encoding="iso-8859-1"?>
<!-- Generator: Adobe Illustrator 19.0.0, SVG Export Plug-In . SVG Version: 6.00 Build 0)  -->
<svg version="1.1" id="Capa_1" xmlns="http://www.w3.org/2000/svg" xmlns:xlink="http://www.w3.org/1999/xlink" x="0px" y="0px"
	 viewBox="0 0 512 512" style="enable-background:new 0 0 512 512;" xml:space="preserve">
<g>
	<g>
		<path d="M256,241c-8.271,0-15-6.729-15-15c0-6.042,3.595-11.468,9.16-13.825c6.715-2.844,14.755-0.417,22.058,6.659
			c5.951,5.766,15.446,5.613,21.211-0.336c5.764-5.95,5.614-15.446-0.336-21.211c-6.772-6.561-14.3-11.198-22.093-13.815V166
			c0-8.284-6.716-15-15-15c-8.284,0-15,6.716-15,15v17.571c-0.851,0.303-1.699,0.623-2.54,0.979
			C221.779,191.615,211,207.885,211,226c0,24.813,20.187,45,45,45c8.271,0,15,6.729,15,15c0,6.286-3.965,11.953-9.866,14.103
			c-7.704,2.805-16.674-1-24.606-10.445c-5.328-6.343-14.79-7.167-21.133-1.839c-6.344,5.328-7.167,14.79-1.839,21.133
			c8.109,9.654,17.548,16.275,27.445,19.608V346c0,8.284,6.716,15,15,15c8.284,0,15-6.716,15-15v-17.572
			c0.134-0.047,0.268-0.088,0.401-0.137C289.105,321.843,301,304.847,301,286C301,261.187,280.813,241,256,241z"/>
	</g>
</g>
<g>
	<g>
		<path d="M466,61h-20.084c-68.848,0-126.344-21.645-181.595-58.481c-5.039-3.359-11.603-3.359-16.642,0
			C192.554,39.273,135.06,61,66.084,61H46c-8.284,0-15,6.716-15,15v181.849c0,126.895,93.365,235.498,218.938,253.437l3.941,0.563
			C254.582,511.95,255.291,512,256,512c0.709,0,1.418-0.05,2.121-0.151l3.941-0.563C387.671,493.342,481,384.703,481,257.849V76
			C481,67.716,474.284,61,466,61z M451,257.849c0,111.819-83.05,208.006-193.18,223.739l-1.82,0.26l-1.82-0.26
			C144.049,465.855,61,369.668,61,257.849V91c68.832,0,133.557-17.436,195-57.977C313.302,70.832,377.204,91,451,91V257.849z"/>
	</g>
</g>
<g>
	<g>
		<path d="M407.52,119.041c-24.483-2.494-71.845-5.063-128.248-36.573l-15.957-8.914c-4.545-2.539-10.082-2.54-14.627-0.002
			c-50.913,28.424-74.361,38.37-144.209,45.489C96.823,119.821,91,126.268,91,133.964v123.882
			c0,94.788,69.512,177.583,162.487,193.286c0.827,0.14,1.663,0.209,2.498,0.209c0.838,0,1.677-0.07,2.506-0.211
			C351.609,435.351,421,352.5,421,257.846V133.964C421,126.268,415.177,119.821,407.52,119.041z M391.001,257.846H391
			c0,79.188-57.868,148.917-135.019,163.261C178.852,406.809,121,337.08,121,257.846V147.513
			c43.69-4.455,84.006-15.215,126.274-38.813l8.724-4.87l8.644,4.829c42.189,23.568,82.51,34.386,126.359,38.854V257.846z"/>
	</g>
</g>
<g>
</g>
<g>
</g>
<g>
</g>
<g>
</g>
<g>
</g>
<g>
</g>
<g>
</g>
<g>
</g>
<g>
</g>
<g>
</g>
<g>
</g>
<g>
</g>
<g>
</g>
<g>
</g>
<g>
</g>
</svg>
