<?xml version="1.0" encoding="iso-8859-1"?>
<!-- Generator: Adobe Illustrator 19.0.0, SVG Export Plug-In . SVG Version: 6.00 Build 0)  -->
<svg version="1.1" id="Capa_1" xmlns="http://www.w3.org/2000/svg" xmlns:xlink="http://www.w3.org/1999/xlink" x="0px" y="0px"
	 viewBox="0 0 512 512" style="enable-background:new 0 0 512 512;" xml:space="preserve">
<g>
	<g>
		<path d="M256,241c-8.291,0-15-6.708-15-15c0-8.291,6.708-15,15-15c4.007,0,7.773,1.561,10.607,4.394
			c5.857,5.857,15.355,5.857,21.213-0.001c5.858-5.858,5.857-15.355-0.001-21.213c-4.829-4.829-10.564-8.421-16.819-10.626V166
			c0-8.284-6.716-15-15-15s-15,6.716-15,15v17.553c-17.383,6.129-30,22.748-30,42.447c0,24.872,20.127,45,45,45
			c4.007,0,7.774,1.561,10.606,4.393c5.862,5.863,5.863,15.35,0.001,21.214c-5.864,5.863-15.35,5.863-21.215,0
			c-5.857-5.857-15.355-5.857-21.213,0.001c-5.858,5.858-5.857,15.355,0.001,21.213c4.829,4.829,10.564,8.421,16.819,10.626V346
			c0,8.284,6.716,15,15,15s15-6.716,15-15v-17.553c17.383-6.129,30-22.748,30-42.447C301,261.128,280.873,241,256,241z"/>
	</g>
</g>
<g>
	<g>
		<path d="M500.539,211.423l-25.45-6.179c-5.597-24.372-15.079-47.304-28.283-68.396l12.974-21.624
			c3.542-5.902,2.611-13.457-2.256-18.324L415.1,54.475c-4.867-4.868-12.421-5.798-18.324-2.256l-21.625,12.974
			c-21.091-13.203-44.023-22.686-68.396-28.282l-6.179-25.45C298.943,4.735,292.921,0,286,0h-60
			c-6.921,0-12.943,4.735-14.577,11.461l-6.179,25.45c-24.373,5.597-47.305,15.079-68.395,28.282l-21.625-12.975
			c-5.903-3.541-13.457-2.611-18.324,2.256L54.475,96.9c-4.867,4.867-5.797,12.422-2.256,18.324l12.974,21.624
			c-13.204,21.092-22.686,44.025-28.283,68.396l-25.45,6.179C4.735,213.057,0,219.079,0,226v60c0,6.921,4.735,12.943,11.461,14.577
			l25.45,6.179c5.597,24.373,15.079,47.304,28.282,68.395l-12.974,21.624c-3.542,5.902-2.611,13.457,2.255,18.324L96.9,457.525
			c4.868,4.867,12.422,5.798,18.324,2.256l21.624-12.974c21.092,13.203,44.024,22.686,68.396,28.282l6.179,25.45
			C213.057,507.265,219.079,512,226,512h60c6.921,0,12.943-4.735,14.577-11.461l6.179-25.45
			c24.372-5.597,47.305-15.079,68.396-28.282l21.624,12.974c5.902,3.542,13.457,2.611,18.324-2.256l42.425-42.427
			c4.867-4.867,5.797-12.422,2.255-18.324l-12.974-21.624c13.204-21.091,22.686-44.022,28.282-68.395l25.45-6.179
			C507.265,298.943,512,292.921,512,286v-60C512,219.079,507.265,213.057,500.539,211.423z M482,274.206l-23.208,5.635
			c-5.745,1.395-10.134,6.034-11.21,11.846c-5.002,27.023-15.379,52.125-30.84,74.609c-3.329,4.841-3.525,11.179-0.502,16.217
			l11.792,19.653l-25.863,25.864l-19.653-11.792c-5.038-3.023-11.376-2.826-16.216,0.502c-22.485,15.461-47.588,25.838-74.611,30.84
			c-5.813,1.076-10.451,5.466-11.846,11.21L274.206,482h-36.412l-5.635-23.208c-1.395-5.745-6.034-10.134-11.846-11.21
			c-27.022-5.002-52.126-15.379-74.611-30.84c-4.841-3.329-11.179-3.526-16.216-0.502l-19.653,11.792L83.97,402.168l11.792-19.653
			c3.022-5.038,2.826-11.376-0.502-16.217c-15.461-22.483-25.838-47.585-30.84-74.609c-1.076-5.813-5.466-10.451-11.21-11.846
			L30,274.206v-36.412l23.208-5.635c5.745-1.395,10.134-6.034,11.21-11.846c5.002-27.022,15.378-52.125,30.84-74.611
			c3.329-4.841,3.525-11.179,0.502-16.216l-11.79-19.654l25.862-25.863l19.656,11.793c5.039,3.022,11.377,2.826,16.217-0.503
			c22.483-15.461,47.585-25.837,74.608-30.84c5.813-1.076,10.451-5.466,11.846-11.21L237.794,30h36.412l5.635,23.208
			c1.395,5.745,6.034,10.134,11.846,11.21c27.023,5.002,52.125,15.379,74.609,30.84c4.841,3.328,11.178,3.525,16.217,0.503
			l19.655-11.793l25.862,25.863l-11.792,19.654c-3.022,5.038-2.826,11.375,0.502,16.216c15.462,22.486,25.838,47.589,30.84,74.611
			c1.076,5.813,5.466,10.451,11.21,11.846l23.21,5.636V274.206z"/>
	</g>
</g>
<g>
	<g>
		<path d="M256,91c-90.981,0-165,74.019-165,165s74.019,165,165,165s165-74.019,165-165S346.981,91,256,91z M256,391
			c-74.439,0-135-60.561-135-135s60.561-135,135-135s135,60.561,135,135S330.439,391,256,391z"/>
	</g>
</g>
<g>
</g>
<g>
</g>
<g>
</g>
<g>
</g>
<g>
</g>
<g>
</g>
<g>
</g>
<g>
</g>
<g>
</g>
<g>
</g>
<g>
</g>
<g>
</g>
<g>
</g>
<g>
</g>
<g>
</g>
</svg>
