<?xml version="1.0" encoding="iso-8859-1"?>
<!-- Generator: Adobe Illustrator 19.0.0, SVG Export Plug-In . SVG Version: 6.00 Build 0)  -->
<svg version="1.1" id="Capa_1" xmlns="http://www.w3.org/2000/svg" xmlns:xlink="http://www.w3.org/1999/xlink" x="0px" y="0px"
	 viewBox="0 0 512.001 512.001" style="enable-background:new 0 0 512.001 512.001;" xml:space="preserve">
<g>
	<g>
		<path d="M255.688,271.001c-8.291,0-15-6.708-15-15c0-8.291,6.708-15,15-15c4.007,0,7.773,1.561,10.607,4.394
			c5.857,5.857,15.355,5.857,21.213-0.001c5.858-5.858,5.857-15.355-0.001-21.213c-4.829-4.829-10.564-8.421-16.819-10.626v-17.554
			c0-8.284-6.716-15-15-15s-15,6.716-15,15v17.553c-17.383,6.129-30,22.748-30,42.447c0,24.872,20.127,45,45,45
			c8.291,0,15,6.708,15,15c0,8.291-6.708,15-15,15c-4.007,0-7.773-1.561-10.607-4.394c-5.857-5.857-15.355-5.857-21.213,0.001
			c-5.858,5.858-5.857,15.355,0.001,21.213c4.829,4.829,10.564,8.421,16.819,10.626v17.554c0,8.284,6.716,15,15,15s15-6.716,15-15
			v-17.553c17.383-6.129,30-22.748,30-42.447C300.688,291.129,280.561,271.001,255.688,271.001z"/>
	</g>
</g>
<g>
	<g>
		<path d="M255.688,121.001c-90.864,0-165,73.9-165,165c0,91.02,73.861,166,165,166c91.011,0,165-74.861,165-166
			C420.688,195.28,346.932,121.001,255.688,121.001z M361.394,370.494l-10.287-10.287c-5.857-5.858-15.355-5.858-21.213,0
			c-5.858,5.858-5.858,15.355,0,21.213l10.441,10.441c-23.17,18.84-52.621,30.14-84.647,30.14c-32.026,0-61.477-11.3-84.647-30.14
			l10.441-10.441c5.858-5.858,5.858-15.355,0-21.213c-5.857-5.858-15.355-5.858-21.213,0l-10.287,10.287
			c-15.415-19.531-25.615-43.413-28.469-69.493h14.175c8.284,0,15-6.716,15-15s-6.716-15-15-15h-14.162
			c2.888-26,13.186-49.792,28.733-69.216l10.01,10.01c5.857,5.858,15.356,5.858,21.213,0c5.858-5.858,5.858-15.355,0-21.213
			l-10.01-10.01c23.104-18.493,52.389-29.571,84.216-29.571c31.827,0,61.112,11.078,84.216,29.571l-10.01,10.01
			c-5.858,5.858-5.858,15.355,0,21.213c5.857,5.858,15.356,5.858,21.213,0l10.01-10.01c15.547,19.424,25.846,43.216,28.733,69.216
			h-14.162c-8.284,0-15,6.716-15,15s6.716,15,15,15h14.175C387.009,327.082,376.81,350.963,361.394,370.494z"/>
	</g>
</g>
<g>
	<g>
		<path d="M446.607,116.295l10.607,10.607c5.857,5.858,15.356,5.858,21.213,0c5.858-5.858,5.858-15.355,0-21.213
			C466.588,93.85,437.64,64.903,436,63.263c-5.857-5.858-15.355-5.858-21.213,0c-5.858,5.858-5.858,15.355,0,21.213l10.607,10.606
			l-21.646,21.646c-23.328-20.43-50.892-36.135-81.194-45.585c5.278-7.687,8.135-16.738,8.135-26.143c0-24.813-20.187-45-45-45h-60
			c-24.813,0-45,20.187-45,45c0,9.405,2.857,18.456,8.135,26.143c-30.158,9.405-57.606,25.003-80.864,45.292L86.607,95.082
			l10.607-10.606c5.858-5.857,5.858-15.355,0-21.213c-5.858-5.858-15.355-5.858-21.213,0
			c-22.617,22.616-16.466,16.466-42.427,42.426c-5.858,5.857-5.858,15.355,0,21.213c5.858,5.858,15.355,5.858,21.213,0
			l10.607-10.607l21.316,21.316c-34.852,39.639-56.022,91.585-56.022,148.39c0,124.125,100.727,226,225,226
			c124.114,0,225-101.727,225-226c0-56.646-21.05-108.463-55.728-148.06L446.607,116.295z M225.688,30.001h60
			c8.271,0,15,6.729,15,15c0,8.523-7.009,16-15,16h-60c-7.991,0-15-7.477-15-16C210.688,36.73,217.417,30.001,225.688,30.001z
			 M450.688,286.001c0,108.075-87.477,196-195,196s-195-87.925-195-196c0-108.196,88.25-195,195-195
			C363.211,91.001,450.688,178.478,450.688,286.001z"/>
	</g>
</g>
<g>
</g>
<g>
</g>
<g>
</g>
<g>
</g>
<g>
</g>
<g>
</g>
<g>
</g>
<g>
</g>
<g>
</g>
<g>
</g>
<g>
</g>
<g>
</g>
<g>
</g>
<g>
</g>
<g>
</g>
</svg>
