<?xml version="1.0" encoding="iso-8859-1"?>
<!-- Generator: Adobe Illustrator 19.0.0, SVG Export Plug-In . SVG Version: 6.00 Build 0)  -->
<svg version="1.1" id="Capa_1" xmlns="http://www.w3.org/2000/svg" xmlns:xlink="http://www.w3.org/1999/xlink" x="0px" y="0px"
	 viewBox="0 0 512.001 512.001" style="enable-background:new 0 0 512.001 512.001;" xml:space="preserve">
<g>
	<g>
		<path d="M256,150c-8.271,0-15-6.729-15-15c0-6.042,3.595-11.468,9.159-13.825c6.716-2.844,14.755-0.417,22.059,6.659
			c5.95,5.764,15.447,5.614,21.21-0.335c5.765-5.95,5.614-15.446-0.335-21.21c-6.772-6.561-14.3-11.198-22.093-13.814V75
			c0-8.284-6.716-15-15-15s-15,6.716-15,15v17.571c-18.337,6.524-30,23.613-30,42.429c0,24.813,20.187,45,45,45
			c8.271,0,15,6.729,15,15c0,6.286-3.965,11.954-9.866,14.103c-7.706,2.805-16.674-1-24.606-10.445
			c-5.328-6.343-14.789-7.167-21.133-1.839s-7.167,14.79-1.839,21.133c8.109,9.655,17.548,16.276,27.445,19.608V255
			c0,8.284,6.716,15,15,15s15-6.716,15-15v-17.572c0.134-0.047,0.268-0.088,0.401-0.137C289.105,230.843,301,213.847,301,195
			C301,170.187,280.813,150,256,150z"/>
	</g>
</g>
<g>
	<g>
		<path d="M256,0C165.018,0,91,74.019,91,165c0,35.237,11.109,67.925,30,94.758V497c0,6.067,3.655,11.537,9.26,13.858
			c5.606,2.321,12.057,1.038,16.347-3.252L181,473.213V497c0,6.067,3.655,11.537,9.26,13.858c5.604,2.321,12.058,1.038,16.347-3.252
			L256,458.213l49.394,49.393c4.295,4.296,10.75,5.57,16.347,3.252c5.605-2.322,9.26-7.792,9.26-13.858v-23.787l34.394,34.394
			c4.298,4.298,10.752,5.569,16.347,3.252c5.605-2.322,9.26-7.792,9.26-13.858V259.758C409.891,232.925,421,200.237,421,165
			C421,74.019,346.982,0,256,0z M181,430.787l-30,30V292.186c9.215,7.621,19.268,14.263,30,19.762V430.787z M301,460.786
			l-34.393-34.392c-5.857-5.858-15.355-5.858-21.213,0L211,460.787V323.762c14.31,4.062,29.406,6.238,45,6.238s30.69-2.176,45-6.238
			V460.786z M361,460.787l-30-30V311.948c10.732-5.5,20.785-12.141,30-19.762V460.787z M256,300c-74.44,0-135-60.561-135-135
			S181.561,30,256,30s135,60.561,135,135S330.44,300,256,300z"/>
	</g>
</g>
<g>
</g>
<g>
</g>
<g>
</g>
<g>
</g>
<g>
</g>
<g>
</g>
<g>
</g>
<g>
</g>
<g>
</g>
<g>
</g>
<g>
</g>
<g>
</g>
<g>
</g>
<g>
</g>
<g>
</g>
</svg>
