<?xml version="1.0" encoding="iso-8859-1"?>
<!-- Generator: Adobe Illustrator 19.0.0, SVG Export Plug-In . SVG Version: 6.00 Build 0)  -->
<svg version="1.1" id="Capa_1" xmlns="http://www.w3.org/2000/svg" xmlns:xlink="http://www.w3.org/1999/xlink" x="0px" y="0px"
	 viewBox="0 0 512 512" style="enable-background:new 0 0 512 512;" xml:space="preserve">
<g>
	<g>
		<path d="M181.747,165.244c-8.291,0-14.999-6.708-14.999-14.999s6.709-14.999,14.999-14.999c4.006,0,7.773,1.56,10.606,4.393
			c5.857,5.858,15.353,5.859,21.212,0.001c5.858-5.857,5.859-15.354,0.001-21.212c-5.022-5.022-11.026-8.699-17.573-10.877V90.246
			c0-8.284-6.716-14.999-14.999-14.999s-14.999,6.716-14.999,14.999v17.833c-16.795,6.266-29.245,22.531-29.245,42.164
			c0,24.871,20.126,44.998,44.998,44.998c8.291,0,14.999,6.709,14.999,14.999c0,8.292-6.709,14.999-14.999,14.999
			c-4.007,0-7.773-1.561-10.607-4.394c-5.857-5.857-15.354-5.857-21.212,0.001s-5.857,15.354,0.001,21.212
			c4.634,4.634,10.104,8.122,16.064,10.346v17.832c0,8.285,6.716,15,14.999,15s14.999-6.716,14.999-14.999v-17.303
			c17.662-5.875,30.753-22.577,30.753-42.694C226.746,185.373,206.621,165.244,181.747,165.244z"/>
	</g>
</g>
<g>
	<g>
		<path d="M458.263,173.717c-28.957-28.958-66.655-47.035-107.085-51.577C326.967,51.948,258.924,0.003,180.993,0.003
			C82.738,0.003,0,82.84,0,180.996c0,47.433,19.078,92.634,53.719,127.274c29.553,29.554,67.466,47.204,107.152,51.646
			c9.034,26.4,23.706,50.213,42.842,69.349c2.448,2.448,4.954,4.469,7.279,6.259v61.459c0,13.302,16.163,20.049,25.605,10.606
			l35.523-35.523c65.081,22.559,137.153,6.187,186.141-42.801C529.912,357.617,529.912,245.367,458.263,173.717z M74.931,287.058
			c-28.975-28.975-44.932-66.642-44.932-106.062c0-81.675,69.419-150.994,150.994-150.994c79.3,0,149.994,65.769,149.994,150.994
			c0,40.065-15.602,77.732-43.932,106.062c-2.697,2.697-6.557,5.195-10.661,8.611c-3.425,2.85-5.405,7.075-5.405,11.53v32.578
			l-16.761-16.761c-4.277-4.277-10.701-5.565-16.293-3.273C183.004,342.255,118.662,330.787,74.931,287.058z M437.051,408.055
			c-42.868,42.867-106.85,55.697-163.004,32.684c-5.595-2.292-12.02-1.002-16.293,3.273l-16.762,16.761v-32.578
			c0-10.782-9.416-13.49-16.065-20.14c-13.365-13.365-24.128-29.524-31.71-47.447c15.678-1.084,31.357-4.236,46.644-9.535
			l35.523,35.523c9.391,9.392,25.605,2.8,25.605-10.606v-61.459c2.325-1.791,4.832-3.811,7.279-6.259
			c33.997-33.996,52.719-79.196,52.719-127.274c0-9.254-0.701-18.4-2.063-27.381c29.453,5.565,56.668,19.855,78.126,41.315
			C496.806,254.684,496.806,348.3,437.051,408.055z"/>
	</g>
</g>
<g>
</g>
<g>
</g>
<g>
</g>
<g>
</g>
<g>
</g>
<g>
</g>
<g>
</g>
<g>
</g>
<g>
</g>
<g>
</g>
<g>
</g>
<g>
</g>
<g>
</g>
<g>
</g>
<g>
</g>
</svg>
