<?xml version="1.0" encoding="iso-8859-1"?>
<!-- Generator: Adobe Illustrator 19.0.0, SVG Export Plug-In . SVG Version: 6.00 Build 0)  -->
<svg version="1.1" id="Capa_1" xmlns="http://www.w3.org/2000/svg" xmlns:xlink="http://www.w3.org/1999/xlink" x="0px" y="0px"
	 viewBox="0 0 512 512" style="enable-background:new 0 0 512 512;" xml:space="preserve">
<g>
	<g>
		<path d="M497,271H376.03c9.837-23.642,14.97-49.161,14.97-75C391,87.925,303.523,0,196,0C88.192,0,0,88.214,0,196
			c0,78.747,48.2,149.801,121,180.051V497c0,8.284,6.716,15,15,15h361c8.284,0,15-6.716,15-15V286C512,277.716,505.284,271,497,271z
			 M343.173,121c9.259,18.314,15.23,38.577,17.146,60h-59.618c-0.821-20.836-3.348-41.048-7.444-60H343.173z M360.303,210.8
			c-1.906,20.941-7.787,41.533-17.319,60.2h-49.796c4.13-19.012,6.669-39.502,7.499-60.2H360.303z M323.7,91h-38.593
			c-3.479-10.448-7.498-20.311-12.031-29.446c-3.03-6.107-6.244-11.788-9.619-17.036C286.964,55.154,307.562,71.171,323.7,91z
			 M211,33.788c12.713,6.376,25.028,20.595,35.203,41.1c2.535,5.109,4.888,10.492,7.056,16.112H211V33.788z M211,121h51.515
			c4.492,18.649,7.268,38.916,8.162,60H211V121z M211,210.8h59.664c-0.908,20.902-3.703,41.462-8.247,60.2H211V210.8z
			 M145.797,74.888c10.175-20.505,22.49-34.724,35.203-41.1V91h-42.259C140.909,85.38,143.262,79.998,145.797,74.888z
			 M194.101,300.8c-5.439,21.053-22.048,37.863-43.101,43.301c0-13.703,0-26.927,0-43.301H194.101z M128.698,44.27
			c-3.433,5.316-6.697,11.082-9.774,17.283c-4.533,9.136-8.552,18.999-12.031,29.446H67.526
			C83.89,71.014,104.816,54.905,128.698,44.27z M47.935,120.8h50.808c-4.096,18.952-6.623,39.364-7.444,60.2H30.685
			C32.613,159.577,38.62,139.114,47.935,120.8z M48.318,271c-9.551-18.46-15.65-38.777-17.617-60h60.603
			c0.841,20.768,3.425,41.028,7.558,60H48.318z M121,343.045c-20.563-10.431-38.438-24.84-52.769-42.045h38.833
			c3.978,11.891,8.639,22.974,13.936,32.978V343.045z M129.485,121H181v60h-59.677C122.217,159.916,124.993,139.649,129.485,121z
			 M129.591,271c-4.518-18.638-7.344-38.968-8.259-60H181v60h-45H129.591z M151,482v-43.101
			c21.053,5.439,37.663,22.048,43.101,43.101H151z M482,482h-43.101c5.439-21.053,22.048-37.663,43.101-43.101V482z M482,408.257
			c-37.631,6.34-67.403,36.112-73.743,73.743H224.743c-6.34-37.631-36.112-67.403-73.743-73.743v-33.514
			c37.631-6.341,67.403-36.113,73.743-73.743c7.024,0,176.594,0,183.514,0c6.34,37.631,36.112,67.403,73.743,73.743V408.257z
			 M482,344.101c-21.053-5.439-37.663-22.048-43.101-43.101H482V344.101z"/>
	</g>
</g>
<g>
	<g>
		<path d="M316,331c-33.084,0-60,26.916-60,60c0,33.02,26.676,61,60,61c33.358,0,60-28.006,60-61C376,357.916,349.084,331,316,331z
			 M316,422c-16.262,0-30-14.196-30-31c0-16.542,13.458-30,30-30s30,13.458,30,30C346,407.804,332.262,422,316,422z"/>
	</g>
</g>
<g>
</g>
<g>
</g>
<g>
</g>
<g>
</g>
<g>
</g>
<g>
</g>
<g>
</g>
<g>
</g>
<g>
</g>
<g>
</g>
<g>
</g>
<g>
</g>
<g>
</g>
<g>
</g>
<g>
</g>
</svg>
