<?xml version="1.0" encoding="iso-8859-1"?>
<!-- Generator: Adobe Illustrator 19.0.0, SVG Export Plug-In . SVG Version: 6.00 Build 0)  -->
<svg version="1.1" id="Capa_1" xmlns="http://www.w3.org/2000/svg" xmlns:xlink="http://www.w3.org/1999/xlink" x="0px" y="0px"
	 viewBox="0 0 512 512" style="enable-background:new 0 0 512 512;" xml:space="preserve">
<g>
	<g>
		<path d="M436.812,75.188C388.327,26.702,324.113,0,256,0S123.673,26.702,75.188,75.188C26.702,123.673,0,187.887,0,256
			s26.702,132.327,75.188,180.812C123.673,485.298,187.887,512,256,512s132.327-26.702,180.812-75.188
			C485.298,388.327,512,324.113,512,256S485.298,123.673,436.812,75.188z M256,482C131.383,482,30,380.617,30,256S131.383,30,256,30
			s226,101.383,226,226S380.617,482,256,482z"/>
	</g>
</g>
<g>
	<g>
		<path d="M394.328,117.672C357.138,80.482,308.012,60,256,60c-52.012,0-101.138,20.482-138.328,57.672
			C80.481,154.862,60,203.988,60,256c0,52.012,20.481,101.138,57.672,138.328C154.862,431.519,203.988,452,256,452
			c52.012,0,101.138-20.481,138.328-57.672C431.519,357.138,452,308.012,452,256C452,203.988,431.519,154.862,394.328,117.672z
			 M256,422c-91.533,0-166-74.467-166-166S164.467,90,256,90s166,74.467,166,166S347.533,422,256,422z"/>
	</g>
</g>
<g>
	<g>
		<path d="M325.244,334.57c-6.313-5.365-15.779-4.596-21.144,1.717C290.559,352.224,273.476,361,256,361
			c-19.204,0-37.542-10.351-51.64-29.147c-6.782-9.043-12.179-19.484-16.078-30.853H256c8.284,0,15-6.716,15-15s-6.716-15-15-15
			h-74.224c-0.505-4.925-0.976-9.931-0.976-15c0-5.069,0.471-10.075,0.976-15H256c8.284,0,15-6.716,15-15s-6.716-15-15-15h-67.717
			c3.899-11.369,9.295-21.81,16.078-30.853C218.458,161.351,236.796,151,256,151c17.476,0,34.559,8.777,48.101,24.713
			c5.366,6.313,14.832,7.082,21.144,1.717c6.313-5.364,7.082-14.831,1.718-21.144C307.625,133.532,282.424,121,256,121
			c-28.876,0-55.739,14.613-75.64,41.147c-10.585,14.114-18.509,30.757-23.441,48.853H136c-8.284,0-15,6.716-15,15
			s6.716,14.8,15,14.8h15.642C151.221,245.749,151,250.954,151,256s0.221,10.051,0.642,15H136c-8.284,0-15,6.716-15,15
			s6.716,15,15,15h20.919c4.932,18.096,12.856,34.739,23.441,48.853C200.261,376.387,227.124,391,256,391
			c26.424,0,51.625-12.532,70.962-35.287C332.326,349.4,331.557,339.934,325.244,334.57z"/>
	</g>
</g>
<g>
</g>
<g>
</g>
<g>
</g>
<g>
</g>
<g>
</g>
<g>
</g>
<g>
</g>
<g>
</g>
<g>
</g>
<g>
</g>
<g>
</g>
<g>
</g>
<g>
</g>
<g>
</g>
<g>
</g>
</svg>
