<?xml version="1.0" encoding="iso-8859-1"?>
<!-- Generator: Adobe Illustrator 19.0.0, SVG Export Plug-In . SVG Version: 6.00 Build 0)  -->
<svg version="1.1" id="Capa_1" xmlns="http://www.w3.org/2000/svg" xmlns:xlink="http://www.w3.org/1999/xlink" x="0px" y="0px"
	 viewBox="0 0 511.999 511.999" style="enable-background:new 0 0 511.999 511.999;" xml:space="preserve">
<g>
	<g>
		<path d="M511.366,492.705l-38.594-129.647c-5.755-19.18-23.075-32.068-43.101-32.068h-42.518l-35.378-117.927
			c-5.755-19.18-23.075-32.068-43.101-32.068H203.322c-20.025,0-37.346,12.888-43.101,32.069L124.843,330.99H82.326
			c-20.025,0-37.346,12.888-43.11,32.099L0.631,492.705c-2.858,9.603,4.344,19.279,14.376,19.279h240.992h240.992
			C507.011,511.983,514.229,502.32,511.366,492.705z M188.954,221.684c1.918-6.394,7.692-10.69,14.367-10.69h105.355
			c6.675,0,12.449,4.296,14.367,10.69l32.791,109.306h-32.518H188.68h-32.518L188.954,221.684z M35.122,481.984l32.836-110.306
			c1.918-6.394,7.692-10.69,14.367-10.69c15.348,0,90.975,0,106.354,0c6.675,0,12.449,4.296,14.358,10.659l32.846,110.337H35.122z
			 M231.102,360.788h49.796c-0.6,1.703,1.357-4.576-24.899,83.623C229.754,356.246,231.69,362.46,231.102,360.788z M276.114,481.984
			l32.836-110.306c1.918-6.394,7.692-10.69,14.367-10.69c15.38,0,91.007,0,106.354,0c6.675,0,12.449,4.296,14.358,10.659
			l32.846,110.337H276.114z"/>
	</g>
</g>
<g>
	<g>
		<path d="M320.505,59.148l-33.193-18.153L269.159,7.803c-5.668-10.364-20.629-10.406-26.319,0l-18.153,33.192l-33.193,18.153
			c-10.364,5.669-10.406,20.629,0,26.32l33.193,18.153l18.153,33.192c5.668,10.364,20.629,10.406,26.319,0l18.153-33.192
			l33.193-18.153C330.868,79.8,330.91,64.839,320.505,59.148z M269.063,79.411c-2.517,1.376-4.586,3.446-5.962,5.963l-7.102,12.985
			l-7.102-12.985c-1.376-2.517-3.446-4.586-5.962-5.963l-12.985-7.102l12.985-7.102c2.517-1.376,4.586-3.446,5.962-5.963
			l7.102-12.985l7.102,12.985c1.376,2.517,3.446,4.586,5.962,5.963l12.985,7.102L269.063,79.411z"/>
	</g>
</g>
<g>
	<g>
		<path d="M500.499,152.835l-33.193-18.153l-18.153-33.192c-5.668-10.364-20.629-10.406-26.319,0l-18.153,33.192l-33.193,18.153
			c-10.364,5.669-10.406,20.629,0,26.32l33.193,18.153l18.153,33.192c5.668,10.364,20.629,10.406,26.319,0l18.153-33.192
			l33.193-18.153C510.862,173.487,510.904,158.526,500.499,152.835z M449.057,173.098c-2.517,1.376-4.586,3.446-5.962,5.963
			l-7.102,12.985l-7.102-12.985c-1.376-2.517-3.446-4.586-5.962-5.963l-12.985-7.102l12.985-7.102
			c2.517-1.376,4.586-3.446,5.962-5.963l7.102-12.985l7.102,12.985c1.376,2.517,3.446,4.586,5.962,5.963l12.985,7.102
			L449.057,173.098z"/>
	</g>
</g>
<g>
	<g>
		<path d="M140.511,152.835l-33.193-18.153L89.164,101.49c-5.668-10.364-20.629-10.406-26.319,0l-18.153,33.192l-33.193,18.153
			c-10.364,5.669-10.406,20.629,0,26.32l33.193,18.153l18.153,33.192c5.668,10.364,20.629,10.406,26.319,0l18.153-33.192
			l33.193-18.153C150.874,173.487,150.916,158.526,140.511,152.835z M89.068,173.098c-2.517,1.376-4.586,3.446-5.962,5.963
			l-7.102,12.985l-7.102-12.985c-1.376-2.517-3.446-4.586-5.962-5.963l-12.985-7.102l12.985-7.102
			c2.517-1.376,4.586-3.446,5.962-5.963l7.102-12.985l7.102,12.985c1.376,2.517,3.446,4.586,5.962,5.963l12.985,7.102
			L89.068,173.098z"/>
	</g>
</g>
<g>
</g>
<g>
</g>
<g>
</g>
<g>
</g>
<g>
</g>
<g>
</g>
<g>
</g>
<g>
</g>
<g>
</g>
<g>
</g>
<g>
</g>
<g>
</g>
<g>
</g>
<g>
</g>
<g>
</g>
</svg>
