<?xml version="1.0" encoding="iso-8859-1"?>
<!-- Generator: Adobe Illustrator 19.0.0, SVG Export Plug-In . SVG Version: 6.00 Build 0)  -->
<svg version="1.1" id="Capa_1" xmlns="http://www.w3.org/2000/svg" xmlns:xlink="http://www.w3.org/1999/xlink" x="0px" y="0px"
	 viewBox="0 0 512 512" style="enable-background:new 0 0 512 512;" xml:space="preserve">
<g>
	<g>
		<path d="M422,317c0,8.284,6.716,15,15,15h60c0.01,0,0.02-0.002,0.03-0.002c7.862-0.016,14.723-6.252,14.949-14.588
			c0.004-0.138,0.021-0.272,0.021-0.41v-60c0-8.284-6.716-15-15-15s-15,6.716-15,15v23.998l-95.438-94.649
			c-5.865-5.817-15.328-5.797-21.169,0.044L255.457,296.33L61,121.319V15c0-8.284-6.716-15-15-15S31,6.716,31,15v47H15
			C6.716,62,0,68.716,0,77s6.716,15,15,15h16v30H15c-8.284,0-15,6.716-15,15s6.716,15,15,15h16v30H15c-8.284,0-15,6.716-15,15
			s6.716,15,15,15h16v30H15c-8.284,0-15,6.716-15,15s6.716,15,15,15h16v30H15c-8.284,0-15,6.716-15,15s6.716,15,15,15h16v30H15
			c-8.284,0-15,6.716-15,15s6.716,15,15,15h16v30H15c-8.284,0-15,6.716-15,15s6.716,15,15,15h16v15c0,8.284,6.716,15,15,15h15v15
			c0,8.284,6.716,15,15,15s15-6.716,15-15v-15h30v15c0,8.284,6.716,15,15,15s15-6.716,15-15v-15h30v15c0,8.284,6.716,15,15,15
			s15-6.716,15-15v-15h30v15c0,8.284,6.716,15,15,15s15-6.716,15-15v-15h30v15c0,8.284,6.716,15,15,15s15-6.716,15-15v-15h30v15
			c0,8.284,6.716,15,15,15s15-6.716,15-15v-15h31v15c0,8.284,6.716,15,15,15s15-6.716,15-15v-15h45c8.284,0,15-6.716,15-15
			s-6.716-15-15-15H391V233.002L460.573,302H437C428.716,302,422,308.716,422,317z M121,452H61V161.681l60,54V452z M241,452h-90
			V242.681l90,81V452z M361,452h-90V323.213l90-90V452z"/>
	</g>
</g>
<g>
</g>
<g>
</g>
<g>
</g>
<g>
</g>
<g>
</g>
<g>
</g>
<g>
</g>
<g>
</g>
<g>
</g>
<g>
</g>
<g>
</g>
<g>
</g>
<g>
</g>
<g>
</g>
<g>
</g>
</svg>
