<?xml version="1.0" encoding="iso-8859-1"?>
<!-- Generator: Adobe Illustrator 19.0.0, SVG Export Plug-In . SVG Version: 6.00 Build 0)  -->
<svg version="1.1" id="Capa_1" xmlns="http://www.w3.org/2000/svg" xmlns:xlink="http://www.w3.org/1999/xlink" x="0px" y="0px"
	 viewBox="0 0 511.999 511.999" style="enable-background:new 0 0 511.999 511.999;" xml:space="preserve">
<g>
	<g>
		<path d="M395.386,227.192c-23.027-31.528-49.192-54.888-76.751-69.062c7.653-8.071,12.361-18.957,12.361-30.929
			c0-16.106-8.512-30.256-21.267-38.208c13.713-14.334,21.267-33.04,21.267-52.787V24.544c0-19.842-22.411-31.464-38.631-20.018
			l-6.078,4.29c-19.151,13.517-46.076,12.118-65.476-3.403c-16.043-12.835-39.808-1.399-39.808,19.132v10.227
			c0,20.724,8.383,39.85,21.754,53.913c-13.028,7.892-21.754,22.203-21.754,38.515c0,11.972,4.71,22.86,12.361,30.929
			c-27.56,14.173-53.724,37.533-76.751,69.061C82.316,274.152,61.01,331.558,61.01,377.006c0,97.83,96.378,134.993,194.99,134.993
			c99.122,0,194.99-37.48,194.99-134.993C450.99,331.559,429.683,274.152,395.386,227.192z M251.954,48.019
			c17.649,0.962,34.541-3.505,49.044-12.939v1.125c0,24.934-20.606,45.998-44.998,45.998c-24.284,0-44.817-21.529-44.997-47.091
			C223.403,42.721,237.611,47.238,251.954,48.019z M226.001,112.001h59.997c8.271,0,14.999,6.929,14.999,15.199
			s-6.729,14.999-14.999,14.999h-59.997c-8.271,0-14.999-6.729-14.999-14.999S217.731,112.001,226.001,112.001z M333.998,472.243
			c16.772-21.274,26.997-49.416,26.997-80.237c0-8.284-6.716-14.999-14.999-14.999s-14.999,6.716-14.999,14.999
			c0,49.623-33.643,89.995-74.996,89.995s-74.996-40.372-74.996-89.995c0-8.284-6.716-14.999-14.999-14.999
			s-14.999,6.716-14.999,14.999c0,30.822,10.224,58.964,26.997,80.237c-43.673-11.946-86.994-38.177-86.994-95.236
			c0-38.814,19.56-90.674,49.831-132.122c19.827-27.147,61.152-72.687,115.16-72.687s95.333,45.541,115.16,72.687
			c30.271,41.447,49.831,93.308,49.831,132.122C420.991,434.067,377.671,460.297,333.998,472.243z"/>
	</g>
</g>
<g>
	<g>
		<path d="M256,302.011c-8.271,0-14.999-6.729-14.999-14.999c0-6.042,3.595-11.467,9.16-13.824
			c6.714-2.844,14.754-0.417,22.057,6.659c5.95,5.764,15.446,5.614,21.209-0.336c5.765-5.95,5.614-15.445-0.335-21.21
			c-6.772-6.561-14.299-11.197-22.092-13.814v-17.472c0-8.284-6.716-14.999-14.999-14.999c-8.284,0-14.999,6.716-14.999,14.999
			v17.57c-18.334,6.522-29.998,23.612-29.998,42.427c0,24.812,20.186,44.998,44.998,44.998c8.271,0,14.999,6.729,14.999,14.999
			c0,6.286-3.965,11.952-9.865,14.102c-7.706,2.805-16.673-1-24.605-10.445c-5.328-6.343-14.79-7.167-21.132-1.839
			c-6.344,5.328-7.167,14.789-1.839,21.132c8.109,9.654,17.547,16.274,27.444,19.607v17.439c0,8.284,6.716,14.999,14.999,14.999
			S271,415.288,271,407.005v-17.571c0.134-0.047,0.268-0.088,0.401-0.137c17.703-6.448,29.598-23.443,29.598-42.289
			C300.997,322.197,280.811,302.011,256,302.011z"/>
	</g>
</g>
<g>
</g>
<g>
</g>
<g>
</g>
<g>
</g>
<g>
</g>
<g>
</g>
<g>
</g>
<g>
</g>
<g>
</g>
<g>
</g>
<g>
</g>
<g>
</g>
<g>
</g>
<g>
</g>
<g>
</g>
</svg>
