<?xml version="1.0" encoding="iso-8859-1"?>
<!-- Generator: Adobe Illustrator 19.0.0, SVG Export Plug-In . SVG Version: 6.00 Build 0)  -->
<svg version="1.1" id="Capa_1" xmlns="http://www.w3.org/2000/svg" xmlns:xlink="http://www.w3.org/1999/xlink" x="0px" y="0px"
	 viewBox="0 0 512 512" style="enable-background:new 0 0 512 512;" xml:space="preserve">
<g>
	<g>
		<path d="M466.93,181.05h-72.349l104.23-104.23c17.585-17.585,17.585-46.045,0-63.63c-17.584-17.585-46.045-17.586-63.629,0
			L267.32,181.05H44.993C20.184,181.05,0,201.234,0,226.043v240.964C0,491.816,20.184,512,44.993,512H466.93
			c24.809,0,44.993-20.184,44.993-44.993V226.043C511.923,201.234,491.739,181.05,466.93,181.05z M456.392,34.399
			c5.862-5.862,15.347-5.861,21.21,0c5.862,5.863,5.862,15.348,0,21.21l-10.605,10.605l-21.21-21.21L456.392,34.399z
			 M424.576,66.214l21.21,21.21l-98.012,98.012c-0.004,0.004-0.009,0.009-0.013,0.013l-29.235,29.236l-21.211-21.211L424.576,66.214
			z M280.214,218.792l12.993,12.993l-25.986,12.993L280.214,218.792z M481.928,467.007c0,8.27-6.728,14.998-14.998,14.998H44.993
			c-8.27,0-14.998-6.728-14.998-14.998V226.043c0-8.27,6.728-14.998,14.998-14.998h205.559l-30.28,60.562
			c-2.887,5.773-1.755,12.747,2.81,17.311c4.563,4.563,11.534,5.698,17.311,2.81l84.84-42.42c0.033-0.017,0.064-0.037,0.097-0.054
			c1.302-0.66,2.707-1.663,3.8-2.756l35.454-35.454H466.93c8.27,0,14.998,6.728,14.998,14.998V467.007z"/>
	</g>
</g>
<g>
	<g>
		<path d="M165.975,241.041H74.989c-8.283,0-14.998,6.715-14.998,14.998c0,8.283,6.715,14.998,14.998,14.998h90.986
			c8.283,0,14.998-6.715,14.998-14.998C180.973,247.756,174.258,241.041,165.975,241.041z"/>
	</g>
</g>
<g>
	<g>
		<path d="M436.934,331.028H74.989c-8.283,0-14.998,6.715-14.998,14.998c0,8.283,6.715,14.998,14.998,14.998h361.946
			c8.283,0,14.998-6.715,14.998-14.998C451.932,337.743,445.217,331.028,436.934,331.028z"/>
	</g>
</g>
<g>
	<g>
		<path d="M436.934,422.014H74.989c-8.283,0-14.998,6.715-14.998,14.998c0,8.283,6.715,14.998,14.998,14.998h361.946
			c8.283,0,14.998-6.715,14.998-14.998C451.932,428.729,445.217,422.014,436.934,422.014z"/>
	</g>
</g>
<g>
</g>
<g>
</g>
<g>
</g>
<g>
</g>
<g>
</g>
<g>
</g>
<g>
</g>
<g>
</g>
<g>
</g>
<g>
</g>
<g>
</g>
<g>
</g>
<g>
</g>
<g>
</g>
<g>
</g>
</svg>
