<?xml version="1.0" encoding="iso-8859-1"?>
<!-- Generator: Adobe Illustrator 19.0.0, SVG Export Plug-In . SVG Version: 6.00 Build 0)  -->
<svg version="1.1" id="Capa_1" xmlns="http://www.w3.org/2000/svg" xmlns:xlink="http://www.w3.org/1999/xlink" x="0px" y="0px"
	 viewBox="0 0 512 512" style="enable-background:new 0 0 512 512;" xml:space="preserve">
<g>
	<g>
		<path d="M256,150c-8.271,0-15-6.729-15-15c0-6.042,3.595-11.468,9.159-13.825c6.716-2.845,14.756-0.417,22.059,6.659
			c5.95,5.764,15.447,5.614,21.21-0.335c5.765-5.95,5.614-15.446-0.335-21.21c-6.772-6.561-14.3-11.198-22.093-13.815V75
			c0-8.284-6.716-15-15-15s-15,6.716-15,15v17.571c-0.851,0.303-1.699,0.623-2.54,0.979C221.779,100.615,211,116.885,211,135
			c0,24.813,20.187,45,45,45c8.271,0,15,6.729,15,15c0,6.286-3.965,11.954-9.866,14.103c-7.705,2.804-16.674-1-24.606-10.445
			c-5.328-6.343-14.789-7.167-21.133-1.839s-7.167,14.79-1.839,21.133c8.109,9.655,17.548,16.276,27.445,19.608V255
			c0,8.284,6.716,15,15,15S271,263.284,271,255v-17.572c0.134-0.047,0.268-0.088,0.401-0.137C289.105,230.843,301,213.847,301,195
			C301,170.187,280.813,150,256,150z"/>
	</g>
</g>
<g>
	<g>
		<path d="M466,332h-60c-55.745,0-105.115,27.792-135,70.242v-72.931c83.977-7.604,150-78.386,150-164.311
			C421,74.019,346.981,0,256,0S91,74.019,91,165c0,85.925,66.023,156.707,150,164.311v72.931C211.115,359.792,161.745,332,106,332
			H46c-8.284,0-15,6.716-15,15c0,90.981,74.019,165,165,165h60h60c90.981,0,165-74.019,165-165C481,338.716,474.284,332,466,332z
			 M196,482c-69.369,0-126.686-52.595-134.172-120H106c69.369,0,126.686,52.595,134.172,120H196z M121,165
			c0-74.439,60.561-135,135-135s135,60.561,135,135s-60.561,135-135,135S121,239.439,121,165z M316,482h-44.172
			c7.487-67.405,64.804-120,134.172-120h44.172C442.686,429.405,385.369,482,316,482z"/>
	</g>
</g>
<g>
</g>
<g>
</g>
<g>
</g>
<g>
</g>
<g>
</g>
<g>
</g>
<g>
</g>
<g>
</g>
<g>
</g>
<g>
</g>
<g>
</g>
<g>
</g>
<g>
</g>
<g>
</g>
<g>
</g>
</svg>
