<?xml version="1.0" encoding="iso-8859-1"?>
<!-- Generator: Adobe Illustrator 19.0.0, SVG Export Plug-In . SVG Version: 6.00 Build 0)  -->
<svg version="1.1" id="Capa_1" xmlns="http://www.w3.org/2000/svg" xmlns:xlink="http://www.w3.org/1999/xlink" x="0px" y="0px"
	 viewBox="0 0 512 512" style="enable-background:new 0 0 512 512;" xml:space="preserve">
<g>
	<g>
		<path d="M497,0c-11.354,0-275.91,0-286,0H15C6.716,0,0,6.716,0,15c0,10.55,0,478.835,0,482c0,8.284,6.716,15,15,15
			c10.681,0,467.826,0,482,0c8.284,0,15-6.716,15-15c0-3.482,0-474.017,0-482C512,6.716,505.284,0,497,0z M30,30h43.101
			C67.663,51.053,51.053,67.663,30,73.102V30z M30,258.898c21.053,5.439,37.663,22.048,43.101,43.102H30V258.898z M196,482H30v-30
			h166V482z M196,422H30v-30h166V422z M196,362H30v-30h166V362z M196,210.931c-9.561-12.795-15-28.521-15-44.931
			c0-16.41,5.439-32.136,15-44.931V210.931z M196,79.843c-27.954,19.521-45,51.766-45,86.157s17.046,66.637,45,86.157V302h-92.257
			c-6.34-37.631-36.112-67.403-73.743-73.743V103.743C67.631,97.403,97.403,67.631,103.743,30H196V79.843z M316,121.069
			c9.561,12.795,15,28.521,15,44.931c0,16.41-5.439,32.136-15,44.931V121.069z M286,482h-60V332h60V482z M286,302h-60V30h60V302z
			 M482,482H316v-30h166V482z M482,422H316v-30h166V422z M482,362H316v-30h166V362z M482,302h-43.101
			c5.439-21.053,22.048-37.663,43.101-43.102V302z M482,228.257c-37.631,6.34-67.403,36.112-73.743,73.743H316v-49.843
			c27.954-19.521,45-51.766,45-86.157s-17.046-66.637-45-86.157V30h92.257c6.34,37.631,36.112,67.403,73.743,73.743V228.257z
			 M482,73.102C460.947,67.663,444.337,51.053,438.899,30H482V73.102z"/>
	</g>
</g>
<g>
</g>
<g>
</g>
<g>
</g>
<g>
</g>
<g>
</g>
<g>
</g>
<g>
</g>
<g>
</g>
<g>
</g>
<g>
</g>
<g>
</g>
<g>
</g>
<g>
</g>
<g>
</g>
<g>
</g>
</svg>
