<?xml version="1.0" encoding="iso-8859-1"?>
<!-- Generator: Adobe Illustrator 19.0.0, SVG Export Plug-In . SVG Version: 6.00 Build 0)  -->
<svg version="1.1" id="Capa_1" xmlns="http://www.w3.org/2000/svg" xmlns:xlink="http://www.w3.org/1999/xlink" x="0px" y="0px"
	 viewBox="0 0 512 512" style="enable-background:new 0 0 512 512;" xml:space="preserve">
<g>
	<g>
		<path d="M332.027,0.021c-99.472,0-179.973,80.493-179.973,179.973c0,42.655,14.75,83.038,41.82,115.346l-25.471,26.632
			c-16.336-7.687-36.917-5.108-50.953,8.929L13.156,435.193c-17.541,17.542-17.541,46.087,0,63.63
			c8.772,8.771,20.293,13.156,31.815,13.156c11.522,0,23.044-4.385,31.815-13.156L181.079,394.53
			c14.097-14.097,16.727-34.924,8.67-51.478l25.208-26.356c32.589,27.998,73.655,43.271,117.07,43.271
			c48.073,0,93.267-18.721,127.26-52.713C493.28,273.262,512,228.067,512,179.995C512,80.523,431.507,0.021,332.027,0.021z
			 M159.87,373.319L55.578,477.612c-5.847,5.848-15.362,5.848-21.21,0c-5.848-5.848-5.848-15.363,0-21.211l104.293-104.293
			c5.849-5.848,15.363-5.847,21.21,0C165.717,357.957,165.717,367.472,159.87,373.319z M438.077,286.042
			c-28.328,28.327-65.99,43.927-106.05,43.927c-40.061,0-77.723-15.601-106.05-43.927c-28.327-28.328-43.927-65.99-43.927-106.05
			c0-82.893,67.077-149.977,149.977-149.977c82.892,0,149.977,67.077,149.977,149.977
			C482.005,220.053,466.404,257.716,438.077,286.042z"/>
	</g>
</g>
<g>
	<g>
		<path d="M332.781,164.242c-8.29,0-14.998-6.707-14.998-14.998c0-8.29,6.706-14.998,14.998-14.998c4.006,0,7.772,1.56,10.604,4.392
			c5.856,5.858,15.352,5.858,21.21,0.001c5.857-5.856,5.858-15.353,0.001-21.21c-5.046-5.046-11.084-8.734-17.67-10.907V89.253
			c0-8.283-6.715-14.998-14.998-14.998c-8.283,0-14.998,6.715-14.998,14.998v17.869c-16.822,6.321-29.143,22.608-29.143,42.122
			c0,24.867,20.122,44.993,44.993,44.993c8.29,0,14.998,6.707,14.998,14.998c0,8.29-6.708,14.998-14.998,14.998
			c-4.006,0-7.772-1.56-10.604-4.392c-5.856-5.857-15.352-5.858-21.21-0.001c-5.857,5.856-5.858,15.353-0.001,21.21
			c4.607,4.607,10.042,8.082,15.965,10.307v17.869c0,8.283,6.715,14.998,14.998,14.998c8.283,0,14.998-6.715,14.998-14.998v-17.269
			c17.825-5.882,30.848-22.691,30.848-42.721C377.774,184.368,357.651,164.242,332.781,164.242z"/>
	</g>
</g>
<g>
</g>
<g>
</g>
<g>
</g>
<g>
</g>
<g>
</g>
<g>
</g>
<g>
</g>
<g>
</g>
<g>
</g>
<g>
</g>
<g>
</g>
<g>
</g>
<g>
</g>
<g>
</g>
<g>
</g>
</svg>
