<?xml version="1.0" encoding="iso-8859-1"?>
<!-- Generator: Adobe Illustrator 19.0.0, SVG Export Plug-In . SVG Version: 6.00 Build 0)  -->
<svg version="1.1" id="Capa_1" xmlns="http://www.w3.org/2000/svg" xmlns:xlink="http://www.w3.org/1999/xlink" x="0px" y="0px"
	 viewBox="0 0 512 512" style="enable-background:new 0 0 512 512;" xml:space="preserve">
<g>
	<g>
		<path d="M435,272H240V77c0-8.284-6.716-15-15-15C100.641,62,0,162.633,0,287c0,124.359,100.633,225,225,225
			c60.1,0,116.602-23.404,159.099-65.901S450,347.1,450,287C450,278.716,443.284,272,435,272z M210,92.571v158.216L98.193,138.979
			C128.752,112.762,167.491,95.82,210,92.571z M30,287c0-48.374,17.712-92.685,46.984-126.804L203.787,287L76.984,413.803
			C47.713,379.685,30,335.374,30,287z M225,482c-48.374,0-92.685-17.712-126.803-47.184L231.213,301.8l188.216,0.2
			C411.785,402.008,327.436,482,225,482z"/>
	</g>
</g>
<g>
	<g>
		<path d="M446.099,65.901C403.602,23.404,347.1,0,287,0c-8.284,0-15,6.716-15,15v210c0,8.284,6.716,15,15,15h210
			c8.284,0,15-6.716,15-15C512,164.9,488.596,108.398,446.099,65.901z M302,210V30.571C397.59,37.877,474.123,114.41,481.429,210
			H302z"/>
	</g>
</g>
<g>
</g>
<g>
</g>
<g>
</g>
<g>
</g>
<g>
</g>
<g>
</g>
<g>
</g>
<g>
</g>
<g>
</g>
<g>
</g>
<g>
</g>
<g>
</g>
<g>
</g>
<g>
</g>
<g>
</g>
</svg>
