<?xml version="1.0" encoding="iso-8859-1"?>
<!-- Generator: Adobe Illustrator 19.0.0, SVG Export Plug-In . SVG Version: 6.00 Build 0)  -->
<svg version="1.1" id="Capa_1" xmlns="http://www.w3.org/2000/svg" xmlns:xlink="http://www.w3.org/1999/xlink" x="0px" y="0px"
	 viewBox="0 0 512 512" style="enable-background:new 0 0 512 512;" xml:space="preserve">
<g>
	<g>
		<path d="M256,0C115.03,0,0,115.049,0,256c0,140.97,115.049,256,256,256c140.97,0,256-115.049,256-256C512,115.03,396.951,0,256,0z
			 M256,482C131.383,482,30,380.617,30,256S131.383,30,256,30s226,101.383,226,226S380.617,482,256,482z"/>
	</g>
</g>
<g>
	<g>
		<path d="M256,60C148.336,60,60,148.368,60,256c0,107.663,88.368,196,196,196c107.663,0,196-88.368,196-196
			C452,148.337,363.632,60,256,60z M256,422c-91.533,0-166-74.467-166-166S164.467,90,256,90s166,74.467,166,166
			S347.533,422,256,422z"/>
	</g>
</g>
<g>
	<g>
		<path d="M342.713,336.631c-5.174-6.47-14.613-7.519-21.084-2.344c-16.563,13.25-39.698,13.249-56.182,0.062
			c-0.026-0.021-0.069-0.056-0.095-0.076c-11.131-8.905-24.658-14.432-38.759-15.976c6.048-14.657,7.471-31.196,3.343-47.263
			L229.928,271H286c8.284,0,15-6.716,15-15s-6.716-15-15-15h-63.778l-8.736-34.011c-6.764-26.335,11.243-51.523,34.846-55.363
			C277.113,146.942,301,169.083,301,196c0,8.284,6.716,15,15,15s15-6.716,15-15c0-46.069-41.186-81.511-87.485-73.984
			c-41.403,6.735-70.113,49.512-59.086,92.437L191.248,241H166c-8.284,0-15,6.716-15,15s6.716,15,15,15h32.954l1.926,7.497
			c4.52,17.596-1.746,37.385-19.28,49.076c-3.502,1.975-6.861,4.227-10.029,6.761l-0.019,0.015
			c-0.015,0.012-0.028,0.026-0.043,0.039c-5.971,4.863-7.277,13.502-2.99,19.933c4.519,6.778,13.838,8.803,20.801,4.161l8.19-5.459
			c15.627-8.309,34.801-6.763,49.025,4.615c0.026,0.021,0.069,0.056,0.095,0.076c27.387,21.91,66.372,21.896,93.741,0
			C346.84,352.539,347.889,343.1,342.713,336.631z"/>
	</g>
</g>
<g>
</g>
<g>
</g>
<g>
</g>
<g>
</g>
<g>
</g>
<g>
</g>
<g>
</g>
<g>
</g>
<g>
</g>
<g>
</g>
<g>
</g>
<g>
</g>
<g>
</g>
<g>
</g>
<g>
</g>
</svg>
