<?xml version="1.0" encoding="iso-8859-1"?>
<!-- Generator: Adobe Illustrator 19.0.0, SVG Export Plug-In . SVG Version: 6.00 Build 0)  -->
<svg version="1.1" id="Capa_1" xmlns="http://www.w3.org/2000/svg" xmlns:xlink="http://www.w3.org/1999/xlink" x="0px" y="0px"
	 viewBox="0 0 512 512" style="enable-background:new 0 0 512 512;" xml:space="preserve">
<g>
	<g>
		<path d="M437,30h-24.787L386.606,4.393c-0.01-0.01-0.02-0.018-0.03-0.027C383.74,1.547,379.891,0,376,0H136
			c-3.818,0-7.7,1.506-10.576,4.366c-0.01,0.01-0.02,0.018-0.03,0.027L99.787,30H75C33.645,30,0,63.645,0,105v332
			c0,41.355,33.645,75,75,75h362c41.355,0,75-33.645,75-75V105C512,63.645,478.355,30,437,30z M389.389,49.602l-23.405,93.62
			l-81.567-40.784c13.083-9.812,77.102-57.827,90.176-67.632L389.389,49.602z M278.2,254.012l8.776,70.797l-70.721,70.721
			l11.261-90.833L278.2,254.012z M233.52,256.267L239.255,210h33.489l0.777,6.266L233.52,256.267z M276.729,180H235.27
			l-19.146-38.292L256,121.771l39.875,19.938L276.729,180z M331,30l-75,56.25L181,30H331z M137.408,34.806
			c13.083,9.812,77.102,57.827,90.176,67.632l-81.566,40.783l-23.405-93.62L137.408,34.806z M75,482c-24.813,0-45-20.187-45-45V105
			c0-24.813,20.187-45,45-45h19.288l27.159,108.638c2.327,9.308,12.691,14.063,21.26,9.779l46.584-23.292l21.264,42.529
			c-1.873,15.109-28.571,230.47-29.442,237.501c-0.007,0.059-0.005,0.118-0.012,0.177c-0.519,4.665,1.205,9.189,4.292,12.275
			L219.787,482H75z M217.213,437l74.443-74.443l8.556,69.017L256,475.787L217.213,437z M482,437c0,24.813-20.187,45-45,45H292.213
			l34.393-34.393c3.27-3.269,4.849-7.864,4.28-12.452c-1.239-9.992-28.117-226.813-29.442-237.501l21.264-42.529l46.584,23.292
			c8.572,4.286,18.933-0.47,21.26-9.779L417.712,60H437c24.813,0,45,20.187,45,45V437z"/>
	</g>
</g>
<g>
</g>
<g>
</g>
<g>
</g>
<g>
</g>
<g>
</g>
<g>
</g>
<g>
</g>
<g>
</g>
<g>
</g>
<g>
</g>
<g>
</g>
<g>
</g>
<g>
</g>
<g>
</g>
<g>
</g>
</svg>
