<?xml version="1.0" encoding="iso-8859-1"?>
<!-- Generator: Adobe Illustrator 19.0.0, SVG Export Plug-In . SVG Version: 6.00 Build 0)  -->
<svg version="1.1" id="Capa_1" xmlns="http://www.w3.org/2000/svg" xmlns:xlink="http://www.w3.org/1999/xlink" x="0px" y="0px"
	 viewBox="0 0 512 512" style="enable-background:new 0 0 512 512;" xml:space="preserve">
<g>
	<g>
		<path d="M497,151c8.284,0,15-6.716,15-15V76c0-8.292-6.788-15-15-15h-60c-8.284,0-15,6.716-15,15s6.716,15,15,15h23.665
			L284.617,266.213L175,184c-0.099-0.075-0.205-0.136-0.305-0.208c-6.036-4.308-14.208-3.492-19.301,1.601L61,279.787V15
			c0-8.284-6.716-15-15-15S31,6.716,31,15v46H15C6.716,61,0,67.716,0,76s6.716,15,15,15h16v30H15c-8.284,0-15,6.716-15,15
			s6.716,15,15,15h16v30H15c-8.284,0-15,6.716-15,15s6.716,15,15,15h16v30H15c-8.284,0-15,6.716-15,15s6.716,15,15,15h16v30H15
			c-8.284,0-15,6.716-15,15s6.716,15,15,15h16v30H15c-8.284,0-15,6.716-15,15s6.716,15,15,15h16v30H15c-8.284,0-15,6.716-15,15
			s6.716,15,15,15h16v15c0,8.284,6.716,15,15,15h15v16c0,8.284,6.716,15,15,15s15-6.716,15-15v-16h30v16c0,8.284,6.716,15,15,15
			s15-6.716,15-15v-16h30v16c0,8.284,6.716,15,15,15s15-6.716,15-15v-16h30v16c0,8.284,6.716,15,15,15s15-6.716,15-15v-16h30v16
			c0,8.284,6.716,15,15,15s15-6.716,15-15v-16h31v16c0,8.284,6.716,15,15,15s15-6.716,15-15v-16h30v16c0,8.284,6.716,15,15,15
			s15-6.716,15-15v-16h45c8.284,0,15-6.716,15-15s-6.716-15-15-15h-75V171.808l60-59.716V136C482,144.284,488.716,151,497,151z
			 M151,451H61V322.213l90-90V451z M271,451h-90V226l90,67.5V451z M392,451h-91V292.234l91-90.569V451z"/>
	</g>
</g>
<g>
</g>
<g>
</g>
<g>
</g>
<g>
</g>
<g>
</g>
<g>
</g>
<g>
</g>
<g>
</g>
<g>
</g>
<g>
</g>
<g>
</g>
<g>
</g>
<g>
</g>
<g>
</g>
<g>
</g>
</svg>
