<?xml version="1.0" encoding="iso-8859-1"?>
<!-- Generator: Adobe Illustrator 19.0.0, SVG Export Plug-In . SVG Version: 6.00 Build 0)  -->
<svg version="1.1" id="Capa_1" xmlns="http://www.w3.org/2000/svg" xmlns:xlink="http://www.w3.org/1999/xlink" x="0px" y="0px"
	 viewBox="0 0 512.003 512.003" style="enable-background:new 0 0 512.003 512.003;" xml:space="preserve">
<g>
	<g>
		<path d="M497,122.001H116.862L105.9,38.211c-0.021-0.159-0.044-0.318-0.07-0.476C102.252,15.87,83.575,0.001,61.42,0.001H15
			c-8.284,0-15,6.716-15,15s6.716,15,15,15h46.42c7.318,0,13.498,5.194,14.77,12.38c0.517,3.954,39.074,298.663,40.427,309.005
			c0.021,0.159,0.044,0.318,0.07,0.476c0.744,4.55,2.171,8.837,4.148,12.782C103.463,370.883,91,387.509,91,407.001
			c0,24.813,20.187,45,45,45h17.58c-1.665,4.695-2.58,9.742-2.58,15c0,24.813,20.187,45,45,45s45-20.187,45-45
			c0-5.258-0.915-10.305-2.58-15h96.161c-1.665,4.695-2.58,9.742-2.58,15c0,24.813,20.187,45,45,45s45-20.187,45-45
			c0-5.258-0.915-10.305-2.58-15H467c8.284,0,15-6.716,15-15s-6.716-15-15-15H136c-8.271,0-15-6.729-15-15s6.729-15,15-15
			c0.454,0,0.907-0.021,1.358-0.062c43.845-3.986,259.734-23.537,307.932-27.903c20.373-1.852,36.951-17.239,40.314-37.417
			c0.021-0.129,0.041-0.258,0.059-0.387l26.192-187.152C513.119,130.056,506.098,122.001,497,122.001z M377,452.001
			c8.271,0,15,6.729,15,15s-6.729,15-15,15s-15-6.729-15-15S368.729,452.001,377,452.001z M196,452.001c8.271,0,15,6.729,15,15
			s-6.729,15-15,15s-15-6.729-15-15S187.729,452.001,196,452.001z M162.454,359.534c-7.733,0.702-14.776-4.695-16.127-12.319
			l-17.69-135.214h53.593l12.387,144.609L162.454,359.534z M286,348.343c-5.593,0.507-61.506,5.551-61.506,5.551L212.34,212.001H286
			V348.343z M378.132,339.997L316,345.626V212.001h74.483L378.132,339.997z M455.984,321.848
			c-1.18,6.647-6.672,11.699-13.405,12.312l-34.042,3.084l12.085-125.242h50.735L455.984,321.848z M475.556,182.001
			c-14.476,0-338.549,0-350.844,0l-3.925-30h358.967L475.556,182.001z"/>
	</g>
</g>
<g>
</g>
<g>
</g>
<g>
</g>
<g>
</g>
<g>
</g>
<g>
</g>
<g>
</g>
<g>
</g>
<g>
</g>
<g>
</g>
<g>
</g>
<g>
</g>
<g>
</g>
<g>
</g>
<g>
</g>
</svg>
