<?xml version="1.0" encoding="iso-8859-1"?>
<!-- Generator: Adobe Illustrator 19.0.0, SVG Export Plug-In . SVG Version: 6.00 Build 0)  -->
<svg xmlns="http://www.w3.org/2000/svg" xmlns:xlink="http://www.w3.org/1999/xlink" version="1.1" id="Capa_1" x="0px" y="0px" viewBox="0 0 512 512" style="enable-background:new 0 0 512 512;" xml:space="preserve">
<g>
	<g>
		<path d="M490.229,299.299L308.792,107.185c-10.396-10.385-23.458-17.417-37.75-20.333c-9.833-2.021-20.271-2.021-30.063,0    c-14.313,2.917-27.375,9.948-37.979,20.563L21.875,299.195C7.771,313.299,0,332.049,0,351.997c0,41.167,33.5,74.667,74.667,74.667    c19.958,0,38.708-7.771,53.021-22.104L256,268.695l128.521,136.083c14.104,14.115,32.854,21.885,52.813,21.885    c41.167,0,74.667-33.5,74.667-74.667C512,332.102,504.271,313.393,490.229,299.299z"/>
	</g>
</g>
<g>
</g>
<g>
</g>
<g>
</g>
<g>
</g>
<g>
</g>
<g>
</g>
<g>
</g>
<g>
</g>
<g>
</g>
<g>
</g>
<g>
</g>
<g>
</g>
<g>
</g>
<g>
</g>
<g>
</g>
</svg>
