<?xml version="1.0" encoding="iso-8859-1"?>
<!-- Generator: Adobe Illustrator 19.0.0, SVG Export Plug-In . SVG Version: 6.00 Build 0)  -->
<svg xmlns="http://www.w3.org/2000/svg" xmlns:xlink="http://www.w3.org/1999/xlink" version="1.1" id="Capa_1" x="0px" y="0px" viewBox="0 0 512 512" style="enable-background:new 0 0 512 512;" xml:space="preserve">
<g>
	<g>
		<path d="M256,0C114.844,0,0,114.844,0,256s114.844,256,256,256s256-114.844,256-256S397.156,0,256,0z M256,426.667    c-11.76,0-21.333-9.573-21.333-21.333c0-11.76,9.573-21.333,21.333-21.333s21.333,9.573,21.333,21.333    C277.333,417.094,267.76,426.667,256,426.667z M352,184.177c0,24.385-10.406,48.177-28.563,65.292L292.5,278.635    c-9.781,9.219-15.167,21.385-15.167,34.26V352c0,5.891-4.776,10.667-10.667,10.667h-21.333c-5.891,0-10.667-4.776-10.667-10.667    v-39.104c0-24.385,10.406-48.188,28.563-65.302l30.938-29.167c9.781-9.219,15.167-21.385,15.167-34.25v-17.781    c0-27.052-23.927-49.063-53.333-49.063s-53.333,22.01-53.333,49.063v14.938c0,5.891-4.776,10.667-10.667,10.667h-21.333    c-5.891,0-10.667-4.776-10.667-10.667v-14.938c0-50.583,43.063-91.729,96-91.729s96,41.146,96,91.729V184.177z"/>
	</g>
</g>
<g>
</g>
<g>
</g>
<g>
</g>
<g>
</g>
<g>
</g>
<g>
</g>
<g>
</g>
<g>
</g>
<g>
</g>
<g>
</g>
<g>
</g>
<g>
</g>
<g>
</g>
<g>
</g>
<g>
</g>
</svg>
