<?xml version="1.0" encoding="iso-8859-1"?>
<!-- Generator: Adobe Illustrator 19.0.0, SVG Export Plug-In . SVG Version: 6.00 Build 0)  -->
<svg xmlns="http://www.w3.org/2000/svg" xmlns:xlink="http://www.w3.org/1999/xlink" version="1.1" id="Capa_1" x="0px" y="0px" viewBox="0 0 512 512" style="enable-background:new 0 0 512 512;" xml:space="preserve">
<g>
	<g>
		<g>
			<path d="M245.333,266.667h21.333c5.896,0,10.667-4.771,10.667-10.667V10.667C277.333,4.771,272.562,0,266.666,0h-21.333     c-5.896,0-10.667,4.771-10.667,10.667V256C234.666,261.896,239.437,266.667,245.333,266.667z"/>
			<path d="M334.304,100.25C327.436,97.53,320,102.957,320,110.344v23.393c0,4.163,2.496,7.81,6.286,9.53     c69.434,31.523,114.229,108.108,96.491,192.273C409.036,400.74,356.17,452.868,290.82,465.866     C181.541,487.602,85.333,404.155,85.333,298.667c0-69.035,41.247-128.542,100.357-155.388c3.802-1.728,6.31-5.393,6.31-9.57     v-23.355c0-7.389-7.444-12.82-14.315-10.099C86.755,136.266,26.264,233.021,46.617,340.221     c16.043,84.504,84.102,152.257,168.665,167.987c135.441,25.193,254.051-78.579,254.051-209.542     C469.333,208.667,413.306,131.533,334.304,100.25z"/>
		</g>
	</g>
</g>
<g>
</g>
<g>
</g>
<g>
</g>
<g>
</g>
<g>
</g>
<g>
</g>
<g>
</g>
<g>
</g>
<g>
</g>
<g>
</g>
<g>
</g>
<g>
</g>
<g>
</g>
<g>
</g>
<g>
</g>
</svg>
