<?xml version="1.0" encoding="iso-8859-1"?>
<!-- Generator: Adobe Illustrator 19.0.0, SVG Export Plug-In . SVG Version: 6.00 Build 0)  -->
<svg xmlns="http://www.w3.org/2000/svg" xmlns:xlink="http://www.w3.org/1999/xlink" version="1.1" id="Capa_1" x="0px" y="0px" viewBox="0 0 426.667 426.667" style="enable-background:new 0 0 426.667 426.667;" xml:space="preserve">
<g>
	<g>
		<g>
			<path d="M356.646,140.271c-4-4-11.083-4-15.083,0l-15.083,15.094c-4.167,4.167-4.167,10.917,0,15.083l15.083,15.083     c2.083,2.083,4.813,3.125,7.542,3.125c2.729,0,5.458-1.042,7.542-3.125l15.083-15.083c4.167-4.167,4.167-10.917,0-15.083     L356.646,140.271z"/>
			<path d="M100.188,155.365l-15.083-15.094c-4-4-11.083-4-15.083,0l-15.083,15.094c-4.167,4.167-4.167,10.917,0,15.083     l15.083,15.083c2.083,2.083,4.813,3.125,7.542,3.125c2.729,0,5.458-1.042,7.542-3.125l15.083-15.083     C104.354,166.281,104.354,159.531,100.188,155.365z"/>
			<path d="M202.667,128H224c5.896,0,10.667-4.771,10.667-10.667V96c0-5.896-4.771-10.667-10.667-10.667h-21.333     C196.771,85.333,192,90.104,192,96v21.333C192,123.229,196.771,128,202.667,128z"/>
			<path d="M416,277.333h-21.333c-5.896,0-10.667,4.771-10.667,10.667v21.333c0,5.896,4.771,10.667,10.667,10.667H416     c5.896,0,10.667-4.771,10.667-10.667V288C426.667,282.104,421.896,277.333,416,277.333z"/>
			<path d="M32,277.333H10.667C4.771,277.333,0,282.104,0,288v21.333C0,315.229,4.771,320,10.667,320H32     c5.896,0,10.667-4.771,10.667-10.667V288C42.667,282.104,37.896,277.333,32,277.333z"/>
			<path d="M330.667,298.667H96c-5.896,0-10.667,4.771-10.667,10.667v21.333c0,5.896,4.771,10.667,10.667,10.667h234.667     c5.896,0,10.667-4.771,10.667-10.667v-21.333C341.333,303.438,336.563,298.667,330.667,298.667z"/>
		</g>
	</g>
</g>
<g>
</g>
<g>
</g>
<g>
</g>
<g>
</g>
<g>
</g>
<g>
</g>
<g>
</g>
<g>
</g>
<g>
</g>
<g>
</g>
<g>
</g>
<g>
</g>
<g>
</g>
<g>
</g>
<g>
</g>
</svg>
