<?xml version="1.0" encoding="iso-8859-1"?>
<!-- Generator: Adobe Illustrator 19.0.0, SVG Export Plug-In . SVG Version: 6.00 Build 0)  -->
<svg xmlns="http://www.w3.org/2000/svg" xmlns:xlink="http://www.w3.org/1999/xlink" version="1.1" id="Capa_1" x="0px" y="0px" viewBox="0 0 512.003 512.003" style="enable-background:new 0 0 512.003 512.003;" xml:space="preserve">
<g>
	<g>
		<path d="M509.667,249.335L467,196.001c-2.031-2.531-5.094-4-8.333-4h-160v-21.333c0-3.5-1.719-6.771-4.594-8.771    c-2.854-1.99-6.542-2.469-9.813-1.219l-15.448,5.792c-28.177-37.604-72.229-59.802-119.479-59.802    C66.99,106.668,0,173.658,0,256.001s66.99,149.333,149.333,149.333c47.25,0,91.302-22.198,119.479-59.802l15.448,5.792    c3.271,1.25,6.958,0.75,9.813-1.219c2.875-2,4.594-5.271,4.594-8.771v-21.333h10.667c2.833,0,5.542-1.125,7.542-3.125    l13.792-13.792l13.792,13.792c4.167,4.167,10.917,4.167,15.083,0l13.792-13.792l13.792,13.792c4.167,4.167,10.917,4.167,15.083,0    L416,303.085l13.792,13.792c2,2,4.708,3.125,7.542,3.125h21.333c3.24,0,6.302-1.469,8.333-4l42.667-53.333    C512.781,258.772,512.781,253.23,509.667,249.335z M85.333,298.668c-23.531,0-42.667-19.135-42.667-42.667    s19.135-42.667,42.667-42.667S128,232.47,128,256.001S108.865,298.668,85.333,298.668z"/>
	</g>
</g>
<g>
</g>
<g>
</g>
<g>
</g>
<g>
</g>
<g>
</g>
<g>
</g>
<g>
</g>
<g>
</g>
<g>
</g>
<g>
</g>
<g>
</g>
<g>
</g>
<g>
</g>
<g>
</g>
<g>
</g>
</svg>
