<?xml version="1.0" encoding="iso-8859-1"?>
<!-- Generator: Adobe Illustrator 19.0.0, SVG Export Plug-In . SVG Version: 6.00 Build 0)  -->
<svg xmlns="http://www.w3.org/2000/svg" xmlns:xlink="http://www.w3.org/1999/xlink" version="1.1" id="Capa_1" x="0px" y="0px" viewBox="0 0 512 512" style="enable-background:new 0 0 512 512;" xml:space="preserve">
<g>
	<g>
		<g>
			<circle cx="256" cy="256" r="149.333"/>
			<path d="M245.333,85.333h21.333c5.896,0,10.667-4.771,10.667-10.667v-64C277.333,4.771,272.563,0,266.667,0h-21.333     c-5.896,0-10.667,4.771-10.667,10.667v64C234.667,80.563,239.438,85.333,245.333,85.333z"/>
			<path d="M266.667,426.667h-21.333c-5.896,0-10.667,4.771-10.667,10.667v64c0,5.896,4.771,10.667,10.667,10.667h21.333     c5.896,0,10.667-4.771,10.667-10.667v-64C277.333,431.438,272.563,426.667,266.667,426.667z"/>
			<path d="M501.333,234.667h-64c-5.896,0-10.667,4.771-10.667,10.667v21.333c0,5.896,4.771,10.667,10.667,10.667h64     c5.896,0,10.667-4.771,10.667-10.667v-21.333C512,239.438,507.229,234.667,501.333,234.667z"/>
			<path d="M85.333,266.667v-21.333c0-5.896-4.771-10.667-10.667-10.667h-64C4.771,234.667,0,239.438,0,245.333v21.333     c0,5.896,4.771,10.667,10.667,10.667h64C80.563,277.333,85.333,272.563,85.333,266.667z"/>
			<path d="M384.219,142.865c2.083,2.083,4.813,3.125,7.542,3.125s5.458-1.042,7.542-3.125l45.26-45.26     c4.167-4.167,4.167-10.917,0-15.083l-15.083-15.083c-4.167-4.167-10.917-4.167-15.083,0l-45.26,45.26     c-4.167,4.167-4.167,10.917,0,15.083L384.219,142.865z"/>
			<path d="M127.781,369.135c-4.167-4.167-10.917-4.167-15.083,0l-45.26,45.26c-4.167,4.167-4.167,10.917,0,15.083l15.083,15.083     c2.083,2.083,4.813,3.125,7.542,3.125s5.458-1.042,7.542-3.125l45.26-45.26c4.167-4.167,4.167-10.917,0-15.083L127.781,369.135z"/>
			<path d="M399.302,369.135c-4.167-4.167-10.917-4.167-15.083,0l-15.083,15.083c-4.167,4.167-4.167,10.917,0,15.083l45.26,45.26     c2.083,2.083,4.813,3.125,7.542,3.125c2.729,0,5.458-1.042,7.542-3.125l15.083-15.083c4.167-4.167,4.167-10.917,0-15.083     L399.302,369.135z"/>
			<path d="M112.698,142.865c2.083,2.083,4.813,3.125,7.542,3.125c2.729,0,5.458-1.042,7.542-3.125l15.083-15.083     c4.167-4.167,4.167-10.917,0-15.083l-45.26-45.26c-4.167-4.167-10.917-4.167-15.083,0L67.438,82.521     c-4.167,4.167-4.167,10.917,0,15.083L112.698,142.865z"/>
		</g>
	</g>
</g>
<g>
</g>
<g>
</g>
<g>
</g>
<g>
</g>
<g>
</g>
<g>
</g>
<g>
</g>
<g>
</g>
<g>
</g>
<g>
</g>
<g>
</g>
<g>
</g>
<g>
</g>
<g>
</g>
<g>
</g>
</svg>
