<?xml version="1.0" encoding="iso-8859-1"?>
<!-- Generator: Adobe Illustrator 19.0.0, SVG Export Plug-In . SVG Version: 6.00 Build 0)  -->
<svg version="1.1" id="Capa_1" xmlns="http://www.w3.org/2000/svg" xmlns:xlink="http://www.w3.org/1999/xlink" x="0px" y="0px"
	 viewBox="0 0 512 512" style="enable-background:new 0 0 512 512;" xml:space="preserve">
<g>
	<g>
		<path d="M467,188.5h-61c-19.555,0-36.228,12.542-42.42,30h-5.28c-22.798,0-45.153-9.223-61.403-25.318
			c-16.054-18.034-27.478-38.84-33.958-61.849c-0.018-0.063-0.036-0.125-0.055-0.188C258.316,115.701,256,99.57,256,83.2
			c0-16.377-13.458-29.7-30-29.7c-33.084,0-60,26.916-60,60v75H45c-24.813,0-45,20.187-45,45c0,11.517,4.354,22.032,11.495,30
			C4.354,271.468,0,281.983,0,293.5c0,20.723,14.084,38.209,33.181,43.414C31.136,342.051,30,347.644,30,353.5
			c0,20.723,14.084,38.209,33.181,43.414C61.136,402.051,60,407.644,60,413.5c0,24.813,20.187,45,45,45h143.8
			c2.107,0,4.19-0.444,6.114-1.303l64.282-28.697h44.384c6.192,17.458,22.865,30,42.42,30h61c24.813,0,45-20.187,45-45v-180
			C512,208.687,491.813,188.5,467,188.5z M361,398.5h-45c-2.107,0-4.19,0.444-6.115,1.303L245.604,428.5H105
			c-8.271,0-15-6.729-15-15s6.729-15,15-15h30c8.284,0,15-6.716,15-15s-6.716-15-15-15c-6.359,0-53.641,0-60,0
			c-8.271,0-15-6.729-15-15s6.729-15,15-15h30c8.284,0,15-6.716,15-15s-6.716-15-15-15c-6.359,0-53.641,0-60,0
			c-8.271,0-15-6.729-15-15s6.729-15,15-15h60c8.284,0,15-6.716,15-15s-6.716-15-15-15H45c-8.271,0-15-6.729-15-15s6.729-15,15-15
			h136c8.284,0,15-6.716,15-15v-90c0-16.542,13.458-30,29.974-30.003c0.008,0.002,0.017,0.006,0.026,0.011
			c0.029,19.114,2.75,37.971,8.089,56.054c7.774,27.544,21.479,52.421,40.732,73.94c16.935,18.895,49.62,34.998,83.479,34.998h2.7
			V398.5z M482,413.5c0,8.271-6.729,15-15,15h-61c-8.271,0-15-6.729-15-15v-180c0-8.271,6.729-15,15-15h61c8.271,0,15,6.729,15,15
			V413.5z"/>
	</g>
</g>
<g>
	<g>
		<circle cx="436" cy="383.5" r="15"/>
	</g>
</g>
<g>
</g>
<g>
</g>
<g>
</g>
<g>
</g>
<g>
</g>
<g>
</g>
<g>
</g>
<g>
</g>
<g>
</g>
<g>
</g>
<g>
</g>
<g>
</g>
<g>
</g>
<g>
</g>
<g>
</g>
</svg>
