<?xml version="1.0" encoding="iso-8859-1"?>
<!-- Generator: Adobe Illustrator 19.0.0, SVG Export Plug-In . SVG Version: 6.00 Build 0)  -->
<svg version="1.1" id="Capa_1" xmlns="http://www.w3.org/2000/svg" xmlns:xlink="http://www.w3.org/1999/xlink" x="0px" y="0px"
	 viewBox="0 0 512.001 512.001" style="enable-background:new 0 0 512.001 512.001;" xml:space="preserve">
<g>
	<g>
		<path d="M498.83,435.191L414,350.362c-14.006-14.007-34.696-16.704-51.213-8.799l-19.85-19.85
			c29.263-34.109,46.971-78.407,46.971-126.768C389.908,87.453,302.456,0,194.962,0S0.016,87.453,0.016,194.946
			s87.453,194.946,194.946,194.946c48.361,0,92.659-17.707,126.768-46.971l19.849,19.85c-7.91,16.523-5.207,37.208,8.799,51.214
			l84.829,84.829c17.581,17.582,46.039,17.584,63.622,0c0,0,0,0,0.001,0C516.369,481.272,516.369,452.731,498.83,435.191z
			 M311.593,311.485c-0.015,0.015-0.032,0.028-0.047,0.043c-0.015,0.015-0.028,0.032-0.043,0.047
			c-29.866,29.844-71.085,48.325-116.541,48.325c-90.956,0-164.954-73.998-164.954-164.954S104.007,29.991,194.962,29.991
			s164.954,73.998,164.954,164.954C359.917,240.4,341.435,281.62,311.593,311.485z M477.623,477.606
			c-5.848,5.848-15.36,5.846-21.208,0l-84.829-84.83c-5.861-5.861-5.861-15.345,0-21.207c5.85-5.848,15.362-5.845,21.207,0
			l84.829,84.829C483.469,462.245,483.469,471.758,477.623,477.606z"/>
	</g>
</g>
<g>
	<g>
		<path d="M314.214,159.865c-1.753-5.477-6.482-9.467-12.175-10.274l-64.786-9.191L208.345,83.21
			c-2.551-5.049-7.726-8.232-13.382-8.232s-10.832,3.183-13.383,8.231l-28.908,57.189l-64.787,9.191
			c-5.691,0.808-10.422,4.799-12.175,10.274c-1.753,5.476-0.222,11.472,3.943,15.435l46.663,44.41l-10.999,62.616
			c-0.985,5.606,1.29,11.288,5.871,14.665c4.582,3.377,10.681,3.87,15.746,1.271l58.028-29.786l58.028,29.786
			c5.054,2.594,11.154,2.114,15.746-1.271c4.582-3.378,6.856-9.06,5.871-14.665l-10.998-62.615l46.663-44.41
			C314.436,171.336,315.968,165.34,314.214,159.865z M237.11,203.526c-3.637,3.461-5.301,8.513-4.432,13.457l7.171,40.822
			l-38.039-19.526c-4.304-2.209-9.403-2.203-13.695,0l-38.039,19.526l7.171-40.822c0.869-4.945-0.795-9.996-4.432-13.457
			l-30.044-28.593l41.86-5.939c4.854-0.688,9.065-3.707,11.276-8.082l19.055-37.696l19.056,37.697
			c2.211,4.375,6.422,7.394,11.276,8.082l41.859,5.938L237.11,203.526z"/>
	</g>
</g>
<g>
</g>
<g>
</g>
<g>
</g>
<g>
</g>
<g>
</g>
<g>
</g>
<g>
</g>
<g>
</g>
<g>
</g>
<g>
</g>
<g>
</g>
<g>
</g>
<g>
</g>
<g>
</g>
<g>
</g>
</svg>
