<?xml version="1.0" encoding="iso-8859-1"?>
<!-- Generator: Adobe Illustrator 19.0.0, SVG Export Plug-In . SVG Version: 6.00 Build 0)  -->
<svg version="1.1" id="Capa_1" xmlns="http://www.w3.org/2000/svg" xmlns:xlink="http://www.w3.org/1999/xlink" x="0px" y="0px"
	 viewBox="0 0 512 512" style="enable-background:new 0 0 512 512;" xml:space="preserve">
<g>
	<g>
		<path d="M498.81,55.598l-42.423-42.424c-17.543-17.544-46.091-17.546-63.636,0c-11.23,11.231-266.628,266.629-281.964,281.965
			c-0.387,0.387-0.745,0.792-1.081,1.209c-3.006,3.752-0.738-0.459-48.853,135.642c-1.926,5.449-0.551,11.519,3.536,15.605
			c4.06,4.061,10.122,5.474,15.605,3.536c140.264-49.587,133.366-46.446,136.85-49.934c9.516-9.517,260.321-260.322,281.964-281.965
			C516.397,101.648,516.397,73.185,498.81,55.598z M318.511,129.838l21.212,21.211L163.816,326.957l-21.211-21.212L318.511,129.838z
			 M99.603,412.381l28.003-79.211c3.811,3.811,42.33,42.33,51.208,51.208L99.603,412.381z M206.24,369.381l-21.213-21.213
			l175.907-175.907l21.213,21.213L206.24,369.381z M403.358,172.262l-63.636-63.636l21.212-21.211l63.636,63.635L403.358,172.262z
			 M477.598,98.021l-31.818,31.818l-63.635-63.636l31.818-31.818c5.848-5.847,15.363-5.849,21.212,0l42.423,42.424
			C483.461,82.672,483.46,92.159,477.598,98.021z"/>
	</g>
</g>
<g>
	<g>
		<path d="M496.965,481.986H14.999C6.716,481.986,0,488.702,0,496.985c0,8.283,6.716,14.999,14.999,14.999h481.966
			c8.283,0,14.999-6.716,14.999-14.999C511.964,488.702,505.248,481.986,496.965,481.986z"/>
	</g>
</g>
<g>
</g>
<g>
</g>
<g>
</g>
<g>
</g>
<g>
</g>
<g>
</g>
<g>
</g>
<g>
</g>
<g>
</g>
<g>
</g>
<g>
</g>
<g>
</g>
<g>
</g>
<g>
</g>
<g>
</g>
</svg>
