<?xml version="1.0" encoding="iso-8859-1"?>
<!-- Generator: Adobe Illustrator 19.0.0, SVG Export Plug-In . SVG Version: 6.00 Build 0)  -->
<svg version="1.1" id="Capa_1" xmlns="http://www.w3.org/2000/svg" xmlns:xlink="http://www.w3.org/1999/xlink" x="0px" y="0px"
	 viewBox="0 0 512 512" style="enable-background:new 0 0 512 512;" xml:space="preserve">
<g>
	<g>
		<path d="M497,256c8.284,0,15-6.716,15-15V46c0-8.284-6.716-15-15-15H197c-8.284,0-15,6.716-15,15v45H75c-24.813,0-45,20.187-45,45
			v225H15c-8.284,0-15,6.716-15,15v30c0,41.355,33.645,75,75,75h362c41.355,0,75-33.645,75-75v-30c0-8.284-6.716-15-15-15h-15V256
			H497z M460.786,61l-103.18,103.18c-5.85,5.848-15.363,5.848-21.213,0L233.213,61H460.786z M399.498,164.713L460.787,226H233.213
			l61.287-61.287l20.68,20.68c8.772,8.773,20.296,13.159,31.819,13.159s23.047-4.386,31.819-13.159L399.498,164.713z M212,82.212
			l61.287,61.288L212,204.788V82.212z M60,136c0-8.271,6.729-15,15-15h107v120c0,8.284,6.716,15,15,15h255v105H316
			c-8.284,0-15,6.716-15,15v15h-90v-15c0-8.284-6.716-15-15-15H60V136z M482,406c0,24.813-20.187,45-45,45H75
			c-24.813,0-45-20.187-45-45v-15h151v15c0,8.284,6.716,15,15,15h120c8.284,0,15-6.716,15-15v-15h151V406z M420.713,143.5
			L482,82.212v122.576L420.713,143.5z"/>
	</g>
</g>
<g>
</g>
<g>
</g>
<g>
</g>
<g>
</g>
<g>
</g>
<g>
</g>
<g>
</g>
<g>
</g>
<g>
</g>
<g>
</g>
<g>
</g>
<g>
</g>
<g>
</g>
<g>
</g>
<g>
</g>
</svg>
