<?xml version="1.0" encoding="iso-8859-1"?>
<!-- Generator: Adobe Illustrator 19.0.0, SVG Export Plug-In . SVG Version: 6.00 Build 0)  -->
<svg version="1.1" id="Capa_1" xmlns="http://www.w3.org/2000/svg" xmlns:xlink="http://www.w3.org/1999/xlink" x="0px" y="0px"
	 viewBox="0 0 512 512" style="enable-background:new 0 0 512 512;" xml:space="preserve">
<g>
	<g>
		<path d="M75,0C33.645,0,0,33.645,0,75s33.645,75,75,75s75-33.645,75-75S116.355,0,75,0z M75,120c-24.813,0-45-20.187-45-45
			s20.187-45,45-45s45,20.187,45,45S99.813,120,75,120z"/>
	</g>
</g>
<g>
	<g>
		<path d="M75,181c-41.355,0-75,33.645-75,75s33.645,75,75,75s75-33.645,75-75C150,214.645,116.355,181,75,181z M75,301
			c-24.813,0-45-20.187-45-45s20.187-45,45-45s45,20.187,45,45S99.813,301,75,301z"/>
	</g>
</g>
<g>
	<g>
		<path d="M75,362c-41.355,0-75,33.645-75,75c0,41.355,33.645,75,75,75s75-33.645,75-75C150,395.645,116.355,362,75,362z M75,482
			c-24.813,0-45-20.187-45-45s20.187-45,45-45s45,20.187,45,45S99.813,482,75,482z"/>
	</g>
</g>
<g>
	<g>
		<path d="M497,15H195c-8.284,0-15,6.716-15,15v90c0,8.284,6.716,15,15,15h302c8.284,0,15-6.716,15-15V30
			C512,21.716,505.284,15,497,15z M482,105H210V45h272V105z"/>
	</g>
</g>
<g>
	<g>
		<path d="M377,196H195c-8.284,0-15,6.716-15,15v90c0,8.284,6.716,15,15,15h182c8.284,0,15-6.716,15-15v-90
			C392,202.716,385.284,196,377,196z M362,286H210v-60h152V286z"/>
	</g>
</g>
<g>
	<g>
		<path d="M437,377H195c-8.284,0-15,6.716-15,15v90c0,8.284,6.716,15,15,15h242c8.284,0,15-6.716,15-15v-90
			C452,383.716,445.284,377,437,377z M422,467H210v-60h212V467z"/>
	</g>
</g>
<g>
</g>
<g>
</g>
<g>
</g>
<g>
</g>
<g>
</g>
<g>
</g>
<g>
</g>
<g>
</g>
<g>
</g>
<g>
</g>
<g>
</g>
<g>
</g>
<g>
</g>
<g>
</g>
<g>
</g>
</svg>
