<?xml version="1.0" encoding="iso-8859-1"?>
<!-- Generator: Adobe Illustrator 19.0.0, SVG Export Plug-In . SVG Version: 6.00 Build 0)  -->
<svg version="1.1" id="Capa_1" xmlns="http://www.w3.org/2000/svg" xmlns:xlink="http://www.w3.org/1999/xlink" x="0px" y="0px"
	 viewBox="0 0 512 512" style="enable-background:new 0 0 512 512;" xml:space="preserve">
<g>
	<g>
		<path d="M434.068,292.832l-44.087,47.328C384.283,321.84,367.17,308.5,347,308.5h-78.68c-6.902,0-9.951-3.777-16.955-9.939
			c-22.593-19.882-52.688-29.121-82.572-25.344c-25.923,3.276-48.951,15.665-66.067,35.283H15c-8.284,0-15,6.716-15,15v150
			c0,8.284,6.716,15,15,15c10.121,0,327.334,0,332,0c32.874,0,64.275-15.701,84-42l72.014-96.017
			c5.879-7.837,8.986-17.168,8.986-26.984C512,282.643,461.738,263.129,434.068,292.832z M92,458.5H30v-120h62V458.5z
			 M479.015,332.483L407,428.5c-14.089,18.785-36.519,30-60,30H122V332.309c12.574-16.413,30.358-26.777,50.554-29.329
			c21.351-2.698,42.854,3.9,58.993,18.103l7.045,6.199c8.22,7.234,18.778,11.218,29.729,11.218H347c8.271,0,15,6.729,15,15
			s-6.729,15-15,15h-91.279c-8.284,0-15,6.716-15,15s6.716,15,15,15h101.333c12.444,0,24.446-5.222,32.928-14.327l66.038-70.892
			c9.232-9.908,25.98-3.395,25.98,10.22C482,326.773,480.968,329.879,479.015,332.483z"/>
	</g>
</g>
<g>
	<g>
		<path d="M466.285,108.409c-1.753-5.477-6.484-9.469-12.178-10.277l-64.804-9.194l-28.917-57.205
			c-2.553-5.05-7.729-8.233-13.387-8.233c-5.658,0-10.835,3.184-13.387,8.233l-28.916,57.205l-64.805,9.194
			c-5.693,0.808-10.425,4.8-12.178,10.277c-1.754,5.477-0.222,11.475,3.944,15.44l46.678,44.423l-11.002,62.633
			c-0.985,5.608,1.29,11.291,5.873,14.669c4.591,3.385,10.694,3.866,15.75,1.271L347,217.051l58.044,29.794
			c5.066,2.6,11.169,2.108,15.75-1.271c4.583-3.379,6.858-9.061,5.873-14.669l-11.002-62.633l46.676-44.423
			C466.507,119.884,468.039,113.887,466.285,108.409z M389.159,152.082c-3.638,3.462-5.302,8.515-4.433,13.461l7.173,40.833
			l-38.05-19.531c-4.299-2.207-9.4-2.207-13.699,0l-38.05,19.531l7.173-40.833c0.869-4.946-0.795-9.999-4.433-13.461l-30.052-28.601
			l41.873-5.939c4.855-0.689,9.067-3.708,11.279-8.084L347,71.75l19.061,37.707c2.212,4.377,6.424,7.396,11.279,8.084l41.871,5.94
			L389.159,152.082z"/>
	</g>
</g>
<g>
</g>
<g>
</g>
<g>
</g>
<g>
</g>
<g>
</g>
<g>
</g>
<g>
</g>
<g>
</g>
<g>
</g>
<g>
</g>
<g>
</g>
<g>
</g>
<g>
</g>
<g>
</g>
<g>
</g>
</svg>
