<?xml version="1.0" encoding="iso-8859-1"?>
<!-- Generator: Adobe Illustrator 19.0.0, SVG Export Plug-In . SVG Version: 6.00 Build 0)  -->
<svg version="1.1" id="Capa_1" xmlns="http://www.w3.org/2000/svg" xmlns:xlink="http://www.w3.org/1999/xlink" x="0px" y="0px"
	 viewBox="0 0 512 512" style="enable-background:new 0 0 512 512;" xml:space="preserve">
<g>
	<g>
		<path d="M467,53.5h-61c-19.555,0-36.228,12.542-42.42,30h-44.384l-64.282-28.697c-1.924-0.859-4.007-1.303-6.114-1.303H105
			c-24.813,0-45,20.187-45,45c0,5.856,1.136,11.449,3.181,16.586C44.084,120.291,30,137.777,30,158.5
			c0,5.856,1.136,11.449,3.181,16.586C14.084,180.291,0,197.777,0,218.5c0,11.517,4.354,22.032,11.495,30
			C4.354,256.468,0,266.983,0,278.5c0,24.813,20.187,45,45,45h121v75c0,33.084,26.916,60,60,60c16.542,0,30-13.323,30-29.7
			c0-16.37,2.316-32.501,6.884-47.945c0.019-0.063,0.037-0.125,0.055-0.188c6.48-23.009,17.904-43.814,33.958-61.849
			c16.25-16.095,38.605-25.318,61.403-25.318h5.28c6.192,17.458,22.865,30,42.42,30h61c24.813,0,45-20.187,45-45v-180
			C512,73.687,491.813,53.5,467,53.5z M361,263.5h-2.7c-30.831,0-61.049,12.536-82.906,34.394c-0.196,0.196-0.387,0.397-0.572,0.604
			c-19.254,21.519-32.958,46.396-40.732,73.94c-5.339,18.085-8.061,36.945-8.089,56.062c-16.542,0-30-13.458-30-30v-90
			c0-8.284-6.716-15-15-15H45c-8.271,0-15-6.729-15-15s6.729-15,15-15h60c8.284,0,15-6.716,15-15s-6.716-15-15-15H45
			c-8.271,0-15-6.729-15-15s6.729-15,15-15c6.359,0,53.641,0,60,0c8.284,0,15-6.716,15-15s-6.716-15-15-15H75
			c-8.271,0-15-6.729-15-15s6.729-15,15-15c6.359,0,53.641,0,60,0c8.284,0,15-6.716,15-15s-6.716-15-15-15h-30
			c-8.271,0-15-6.729-15-15s6.729-15,15-15h140.604l64.281,28.697c1.925,0.859,4.008,1.303,6.115,1.303h45V263.5z M482,278.5
			c0,8.271-6.729,15-15,15h-61c-8.271,0-15-6.729-15-15v-180c0-8.271,6.729-15,15-15h61c8.271,0,15,6.729,15,15V278.5z"/>
	</g>
</g>
<g>
	<g>
		<circle cx="436" cy="128.5" r="15"/>
	</g>
</g>
<g>
</g>
<g>
</g>
<g>
</g>
<g>
</g>
<g>
</g>
<g>
</g>
<g>
</g>
<g>
</g>
<g>
</g>
<g>
</g>
<g>
</g>
<g>
</g>
<g>
</g>
<g>
</g>
<g>
</g>
</svg>
