<?xml version="1.0" encoding="iso-8859-1"?>
<!-- Generator: Adobe Illustrator 19.0.0, SVG Export Plug-In . SVG Version: 6.00 Build 0)  -->
<svg version="1.1" id="Capa_1" xmlns="http://www.w3.org/2000/svg" xmlns:xlink="http://www.w3.org/1999/xlink" x="0px" y="0px"
	 viewBox="0 0 512 512" style="enable-background:new 0 0 512 512;" xml:space="preserve">
<g>
	<g>
		<circle cx="76" cy="75" r="15"/>
	</g>
</g>
<g>
	<g>
		<circle cx="136" cy="75" r="15"/>
	</g>
</g>
<g>
	<g>
		<circle cx="196" cy="75" r="15"/>
	</g>
</g>
<g>
	<g>
		<path d="M467,0H45C20.187,0,0,20.187,0,45v422c0,24.813,20.187,45,45,45h422c24.813,0,45-20.187,45-45V45
			C512,20.187,491.813,0,467,0z M482,467c0,8.271-6.729,15-15,15H45c-8.271,0-15-6.729-15-15V146.518h452V467z M482,116.518H30V45
			c0-8.271,6.729-15,15-15h422c8.271,0,15,6.729,15,15V116.518z"/>
	</g>
</g>
<g>
	<g>
		<path d="M436,60h-60c-8.284,0-15,6.716-15,15s6.716,15,15,15h60c8.284,0,15-6.716,15-15S444.284,60,436,60z"/>
	</g>
</g>
<g>
	<g>
		<path d="M437.06,189.603c-19.008-15.949-47.447-13.462-63.363,5.506c-11.333,13.41-131.867,156.041-136.468,161.485
			c-4.467,5.324-7.682,11.711-9.296,18.47l-13.94,58.357c-1.319,5.526,0.596,11.324,4.948,14.976
			c4.356,3.656,10.399,4.529,15.607,2.272l55.051-23.862c6.378-2.765,12.109-7.04,16.541-12.323
			c7.328-8.671,130.796-154.773,136.468-161.484C458.556,233.991,456.067,205.551,437.06,189.603z M277.667,399.282l-27.525,11.931
			l6.971-29.179c1.018-4.263,2.88-5.898,8.209-12.204l22.981,19.283C282.908,395.496,281.624,397.566,277.667,399.282z
			 M307.667,366.199l-22.981-19.284l82.912-98.112l22.981,19.284L307.667,366.199z M419.659,233.676l-9.716,11.498l-22.981-19.284
			l9.682-11.457c5.317-6.337,14.799-7.164,21.132-1.849C424.112,217.9,424.941,227.38,419.659,233.676z"/>
	</g>
</g>
<g>
	<g>
		<path d="M226,211H76c-8.284,0-15,6.716-15,15s6.716,15,15,15h150c8.284,0,15-6.716,15-15S234.284,211,226,211z"/>
	</g>
</g>
<g>
	<g>
		<path d="M166,301H76c-8.284,0-15,6.716-15,15s6.716,15,15,15h90c8.284,0,15-6.716,15-15S174.284,301,166,301z"/>
	</g>
</g>
<g>
	<g>
		<path d="M166,391H76c-8.284,0-15,6.716-15,15s6.716,15,15,15h90c8.284,0,15-6.716,15-15S174.284,391,166,391z"/>
	</g>
</g>
<g>
</g>
<g>
</g>
<g>
</g>
<g>
</g>
<g>
</g>
<g>
</g>
<g>
</g>
<g>
</g>
<g>
</g>
<g>
</g>
<g>
</g>
<g>
</g>
<g>
</g>
<g>
</g>
<g>
</g>
</svg>
