<?xml version="1.0" encoding="iso-8859-1"?>
<!-- Generator: Adobe Illustrator 19.0.0, SVG Export Plug-In . SVG Version: 6.00 Build 0)  -->
<svg version="1.1" id="Capa_1" xmlns="http://www.w3.org/2000/svg" xmlns:xlink="http://www.w3.org/1999/xlink" x="0px" y="0px"
	 viewBox="0 0 512 512" style="enable-background:new 0 0 512 512;" xml:space="preserve">
<g>
	<g>
		<g>
			<path d="M507.87,365l-16.134-16.967c-1.019-32.579-10.387-64.486-27.247-92.635c-19.501-32.559-42.996-62.676-69.835-89.514
				l-13.285-13.285c-14.063-14.063-34.83-16.719-51.369-8.73V45c0-24.813-20.187-45-45-45H45C20.187,0,0,20.187,0,45v422
				c0,24.813,20.187,45,45,45h240c24.813,0,45-20.187,45-45v-15.179l21.015-0.021l34.448,1.876l17.12,17.119
				c5.872,5.873,15.423,5.864,21.278-0.065l83.811-84.853C513.365,380.114,513.452,370.871,507.87,365z M30,45
				c0-8.271,6.729-15,15-15h240c8.271,0,15,6.729,15,15v15H30V45z M30,90h270v72.901c-15.621-5.123-33.512-1.487-45.91,10.91
				c-8.137,8.137-12.5,18.638-13.09,29.313c-11.087,0.599-21.425,5.202-29.336,13.113c-3.67,3.669-6.628,7.862-8.805,12.409
				l-33.622-33.622c-4.558-4.558-9.861-7.92-15.518-10.11l21.988-22.409c5.802-5.913,5.712-15.41-0.201-21.212
				c-5.915-5.802-15.41-5.711-21.213,0.201L105.55,191.17l-19.987-19.822c-5.883-5.833-15.38-5.793-21.213,0.088
				c-5.834,5.882-5.794,15.38,0.088,21.213l28.411,28.175c-1.798,13.437,2.446,27.534,12.749,37.838l33.409,33.41L105.55,326.17
				l-19.987-19.822c-5.883-5.833-15.38-5.793-21.213,0.088c-5.834,5.882-5.794,15.38,0.088,21.213l30.695,30.44
				c2.811,2.787,6.607,4.349,10.563,4.349c0.034,0,0.068,0,0.103,0c3.992-0.027,7.809-1.645,10.604-4.494l43.819-44.658
				l48.713,48.713h-9.7c-24.812,0-44.997,20.256-44.997,45.154c0,5.135,0.86,10.135,2.501,14.845H30V90z M300,467
				c0,8.271-6.729,15-15,15H45c-8.271,0-15-6.729-15-15v-15c80.222,0,198.982,0.064,270-0.148V467z M413.124,438.911l-10.542-10.542
				c-2.635-2.634-6.155-4.194-9.877-4.375l-40.604-1.976c-0.243-0.012-0.485-0.018-0.729-0.018c-0.005,0-0.011,0-0.016,0
				c-74.449,0.074-32.555,0.2-154.156,0.2c-6.325-0.854-12.964-6.726-12.964-15.044c0-8.356,6.728-15.155,14.998-15.155L245.283,392
				c0.008,0,0.016,0,0.023,0c6.061,0,11.527-3.648,13.853-9.247c2.325-5.599,1.051-12.046-3.228-16.341
				c0.082,0.097-2.296-2.137-129.12-128.961c-5.848-5.849-5.848-15.365,0-21.213c5.85-5.849,15.366-5.848,21.214,0
				c1.13,1.13,83.741,83.742,84.853,84.853c5.857,5.858,15.354,5.858,21.213,0c5.858-5.858,5.858-15.355,0-21.213l-21.213-21.213
				l-0.031-0.032c-5.834-5.867-5.821-15.33,0.031-21.182c5.861-5.86,15.344-5.864,21.21-0.002c0.001,0.001,0.001,0.002,0.002,0.003
				l21.214,21.213c5.857,5.857,15.355,5.858,21.213,0c5.858-5.858,5.858-15.355,0-21.213l-21.214-21.213
				c-0.001-0.001-0.001-0.001-0.002-0.002c-5.845-5.849-5.844-15.364,0.002-21.211c5.849-5.847,15.365-5.849,21.214,0l21.213,21.213
				c5.856,5.857,15.354,5.858,21.213,0c5.858-5.858,5.858-15.355,0-21.213c-5.848-5.849-5.849-15.365,0-21.213
				c5.864-5.863,15.349-5.864,21.214,0l13.285,13.285c25.1,25.1,47.073,53.266,65.312,83.716
				c15.097,25.204,23.076,53.964,23.076,83.169v0.142c0,3.848,1.479,7.548,4.13,10.336l10.153,10.678L413.124,438.911z"/>
			<path d="M255.931,366.412c-0.004-0.005-0.015-0.016-0.015-0.016C255.921,366.401,255.926,366.407,255.931,366.412z"/>
		</g>
	</g>
</g>
<g>
</g>
<g>
</g>
<g>
</g>
<g>
</g>
<g>
</g>
<g>
</g>
<g>
</g>
<g>
</g>
<g>
</g>
<g>
</g>
<g>
</g>
<g>
</g>
<g>
</g>
<g>
</g>
<g>
</g>
</svg>
