<?xml version="1.0" encoding="iso-8859-1"?>
<!-- Generator: Adobe Illustrator 19.0.0, SVG Export Plug-In . SVG Version: 6.00 Build 0)  -->
<svg version="1.1" id="Capa_1" xmlns="http://www.w3.org/2000/svg" xmlns:xlink="http://www.w3.org/1999/xlink" x="0px" y="0px"
	 viewBox="0 0 512 512" style="enable-background:new 0 0 512 512;" xml:space="preserve">
<g>
	<g>
		<path d="M406,60h-47.58c-6.192-17.458-22.865-30-42.42-30h-17.57C292.239,12.539,275.557,0,256,0s-36.239,12.539-42.43,30H196
			c-19.555,0-36.228,12.542-42.42,30H106c-24.813,0-45,20.187-45,45v362c0,24.813,20.187,45,45,45h300c24.813,0,45-20.187,45-45V105
			C451,80.187,430.813,60,406,60z M181,75c0-8.271,6.729-15,15-15h30c8.284,0,15-6.716,15-15c0-8.271,6.729-15,15-15s15,6.729,15,15
			c0,8.284,6.716,15,15,15h30c8.271,0,15,6.729,15,15v15H181V75z M421,467c0,8.271-6.729,15-15,15H106c-8.271,0-15-6.729-15-15V105
			c0-8.271,6.729-15,15-15h45v15c0,8.284,6.716,15,15,15h180c8.284,0,15-6.716,15-15V90h45c8.271,0,15,6.729,15,15V467z"/>
	</g>
</g>
<g>
	<g>
		<path d="M376,241h-30c-11.426,0-21.865,4.288-29.809,11.33l-9.605-6.203C293.695,237.801,286,223.67,286,208.325V181
			c0-16.542-13.458-30-30-30c-33.084,0-60,26.916-60,60v30h-30.906c-28.415,0-49.691,26-44.126,53.825l18,90
			C143.16,405.786,161.718,421,183.094,421h69.155c14.93,0,29.659-2.455,43.78-7.296l17.929-6.146
			C322.125,415.848,333.47,421,346,421h30c8.284,0,15-6.716,15-15V256C391,247.716,384.284,241,376,241z M301.204,380.216
			l-14.904,5.109c-10.983,3.766-22.44,5.675-34.051,5.675h-69.155c-7.125,0-13.311-5.071-14.708-12.059l-18-90
			c-1.858-9.289,5.251-17.941,14.708-17.941H211c8.284,0,15-6.716,15-15v-45c0-16.542,13.458-30,30-30v27.325
			c0,25.575,12.826,49.128,34.311,63.003l11.303,7.3c-0.397,2.4-0.614,4.861-0.614,7.372v90
			C301,377.422,301.074,378.827,301.204,380.216z M361,391h-15c-8.271,0-15-6.729-15-15v-90c0-8.271,6.729-15,15-15h15V391z"/>
	</g>
</g>
<g>
</g>
<g>
</g>
<g>
</g>
<g>
</g>
<g>
</g>
<g>
</g>
<g>
</g>
<g>
</g>
<g>
</g>
<g>
</g>
<g>
</g>
<g>
</g>
<g>
</g>
<g>
</g>
<g>
</g>
</svg>
