<?xml version="1.0" encoding="iso-8859-1"?>
<!-- Generator: Adobe Illustrator 19.0.0, SVG Export Plug-In . SVG Version: 6.00 Build 0)  -->
<svg version="1.1" id="Capa_1" xmlns="http://www.w3.org/2000/svg" xmlns:xlink="http://www.w3.org/1999/xlink" x="0px" y="0px"
	 viewBox="0 0 512 512" style="enable-background:new 0 0 512 512;" xml:space="preserve">
<g>
	<g>
		<path d="M120,0C53.832,0,0,53.832,0,120s53.832,120,120,120s120-53.832,120-120S186.168,0,120,0z M120,210
			c-49.626,0-90-40.374-90-90c0-49.626,40.374-90,90-90c49.626,0,90,40.374,90,90S169.626,210,120,210z"/>
	</g>
</g>
<g>
	<g>
		<path d="M162.426,141.213c-5.858-5.858-15.356-5.858-21.213,0c-5.653,5.653-13.187,8.766-21.213,8.766s-15.56-3.113-21.213-8.766
			c-5.856-5.858-15.354-5.857-21.213,0c-5.858,5.858-5.858,15.355,0,21.213c11.318,11.319,26.386,17.553,42.426,17.553
			s31.107-6.234,42.426-17.553C168.284,156.568,168.284,147.071,162.426,141.213z"/>
	</g>
</g>
<g>
	<g>
		<path d="M120,272C53.832,272,0,325.832,0,392s53.832,120,120,120s120-53.832,120-120S186.168,272,120,272z M120,482
			c-49.626,0-90-40.374-90-90c0-49.626,40.374-90,90-90c49.626,0,90,40.374,90,90C210,441.626,169.626,482,120,482z"/>
	</g>
</g>
<g>
	<g>
		<circle cx="75" cy="105" r="15"/>
	</g>
</g>
<g>
	<g>
		<circle cx="165" cy="105" r="15"/>
	</g>
</g>
<g>
	<g>
		<path d="M162.426,426.373C151.107,415.054,136.04,408.82,120,408.82s-31.107,6.234-42.426,17.553
			c-5.858,5.858-5.858,15.355,0,21.213c5.857,5.857,15.355,5.858,21.213,0c5.653-5.653,13.187-8.766,21.213-8.766
			s15.56,3.113,21.213,8.766c5.857,5.858,15.354,5.858,21.213,0C168.284,441.728,168.284,432.231,162.426,426.373z"/>
	</g>
</g>
<g>
	<g>
		<circle cx="75" cy="377" r="15"/>
	</g>
</g>
<g>
	<g>
		<circle cx="165" cy="377" r="15"/>
	</g>
</g>
<g>
	<g>
		<path d="M497,0H287c-8.284,0-15,6.716-15,15v210c0,8.284,6.716,15,15,15h210c8.284,0,15-6.716,15-15V15C512,6.716,505.284,0,497,0
			z M482,210H302V30h180V210z"/>
	</g>
</g>
<g>
	<g>
		<path d="M497,272H287c-8.284,0-15,6.716-15,15v210c0,8.284,6.716,15,15,15h210c8.284,0,15-6.716,15-15V287
			C512,278.716,505.284,272,497,272z M482,482H302V302h180V482z"/>
	</g>
</g>
<g>
	<g>
		<path d="M447.607,79.393c-5.857-5.858-15.355-5.858-21.213,0L377,128.787l-19.394-19.393c-5.857-5.858-15.355-5.858-21.213,0
			c-5.858,5.858-5.858,15.355,0,21.213l30.001,29.999c5.857,5.858,15.356,5.858,21.213,0l60-60
			C453.465,94.748,453.465,85.251,447.607,79.393z"/>
	</g>
</g>
<g>
</g>
<g>
</g>
<g>
</g>
<g>
</g>
<g>
</g>
<g>
</g>
<g>
</g>
<g>
</g>
<g>
</g>
<g>
</g>
<g>
</g>
<g>
</g>
<g>
</g>
<g>
</g>
<g>
</g>
</svg>
