<?xml version="1.0" encoding="iso-8859-1"?>
<!-- Generator: Adobe Illustrator 19.0.0, SVG Export Plug-In . SVG Version: 6.00 Build 0)  -->
<svg version="1.1" id="Capa_1" xmlns="http://www.w3.org/2000/svg" xmlns:xlink="http://www.w3.org/1999/xlink" x="0px" y="0px"
	 viewBox="0 0 512 512" style="enable-background:new 0 0 512 512;" xml:space="preserve">
<g>
	<g>
		<path d="M189.556,328.528C211.084,312.068,225,286.13,225,257c0-49.626-40.374-90-90-90c-49.626,0-90,40.374-90,90
			c0,29.13,13.916,55.068,35.444,71.528C33.105,349.526,0,396.966,0,452v45c0,8.284,6.716,15,15,15h240c8.284,0,15-6.716,15-15v-45
			C270,396.966,236.895,349.526,189.556,328.528z M75,257c0-33.084,26.916-60,60-60s60,26.916,60,60s-26.916,60-60,60
			S75,290.084,75,257z M240,482H30v-30c0-57.897,47.103-105,105-105c57.897,0,105,47.103,105,105V482z"/>
	</g>
</g>
<g>
	<g>
		<path d="M497,0H257c-8.284,0-15,6.716-15,15v180c0,8.284,6.716,15,15,15h45v45c0,6.067,3.654,11.536,9.26,13.858
			c5.604,2.322,12.057,1.039,16.347-3.251L383.213,210H497c8.284,0,15-6.716,15-15V15C512,6.716,505.284,0,497,0z M482,180H377
			c-3.979,0-7.794,1.58-10.606,4.393L332,218.787V195c0-8.284-6.716-15-15-15h-45V30h210V180z"/>
	</g>
</g>
<g>
	<g>
		<path d="M432.607,64.394c-5.857-5.858-15.355-5.858-21.213,0L362,113.787l-19.394-19.394c-5.857-5.858-15.355-5.858-21.213,0
			c-5.858,5.858-5.858,15.355,0,21.213l30.001,30.001c5.857,5.857,15.355,5.858,21.213,0l60-60
			C438.465,79.749,438.465,70.252,432.607,64.394z"/>
	</g>
</g>
<g>
</g>
<g>
</g>
<g>
</g>
<g>
</g>
<g>
</g>
<g>
</g>
<g>
</g>
<g>
</g>
<g>
</g>
<g>
</g>
<g>
</g>
<g>
</g>
<g>
</g>
<g>
</g>
<g>
</g>
</svg>
