<?xml version="1.0" encoding="iso-8859-1"?>
<!-- Generator: Adobe Illustrator 19.0.0, SVG Export Plug-In . SVG Version: 6.00 Build 0)  -->
<svg version="1.1" id="Capa_1" xmlns="http://www.w3.org/2000/svg" xmlns:xlink="http://www.w3.org/1999/xlink" x="0px" y="0px"
	 viewBox="0 0 512 512" style="enable-background:new 0 0 512 512;" xml:space="preserve">
<g>
	<g>
		<path d="M136.006,165.5c-0.101,0-0.202,0.001-0.303,0.003h-60c-8.282,0.164-14.864,7.011-14.7,15.293
			c0.162,8.183,6.845,14.704,14.991,14.704c0.101,0,0.202-0.001,0.303-0.003h60c8.282-0.164,14.864-7.011,14.7-15.293
			C150.835,172.022,144.152,165.5,136.006,165.5z"/>
	</g>
</g>
<g>
	<g>
		<path d="M136.006,225.5c-0.101,0-0.202,0.001-0.303,0.003h-60c-8.282,0.164-14.864,7.011-14.7,15.293
			c0.162,8.182,6.845,14.704,14.991,14.704c0.101,0,0.202-0.001,0.303-0.003h60c8.282-0.164,14.864-7.011,14.7-15.293
			C150.835,232.022,144.152,225.5,136.006,225.5z"/>
	</g>
</g>
<g>
	<g>
		<path d="M452,137.009V60.5c0-24.813-20.187-45-45-45c-23.493,0-42.827,18.1-44.819,41.085
			C332.745,71.552,265.39,105.5,197.285,105.5c-14.764,0-107.926,0-122.285,0c-41.355,0-75,33.645-75,75v60
			c0,41.355,33.645,75,75,75h16v136c0,24.813,20.187,45,45,45s45-20.187,45-45v-76h15c24.813,0,45-20.187,45-45v-10.724
			c51.379,9.571,97.811,32.814,121.182,44.65C364.179,387.406,383.51,405.5,407,405.5c24.813,0,45-20.187,45-45v-76.509
			c34.192-6.969,60-37.271,60-73.491C512,174.281,486.192,143.978,452,137.009z M151,451.5c0,8.271-6.729,15-15,15s-15-6.729-15-15
			v-136h30C151,322.528,151,445.315,151,451.5z M75,285.5c-24.813,0-45-20.187-45-45v-60c0-24.813,20.187-45,45-45h106v150H75z
			 M211,330.5c0,8.271-6.729,15-15,15h-15v-30c14.853,0,20.539-0.156,30,0.455V330.5z M362,330.799
			c-33.585-16.448-90.709-41.465-151-44.901V135.106c60.708-3.418,117.673-28.475,151-44.866V330.799z M422,360.5
			c0,8.271-6.729,15-15,15s-15-6.729-15-15v-300c0-8.271,6.729-15,15-15s15,6.729,15,15C422,71.743,422,350.238,422,360.5z
			 M452,252.93v-84.86c17.461,6.191,30,22.873,30,42.43S469.461,246.739,452,252.93z"/>
	</g>
</g>
<g>
</g>
<g>
</g>
<g>
</g>
<g>
</g>
<g>
</g>
<g>
</g>
<g>
</g>
<g>
</g>
<g>
</g>
<g>
</g>
<g>
</g>
<g>
</g>
<g>
</g>
<g>
</g>
<g>
</g>
</svg>
