<?xml version="1.0" encoding="iso-8859-1"?>
<!-- Generator: Adobe Illustrator 19.0.0, SVG Export Plug-In . SVG Version: 6.00 Build 0)  -->
<svg version="1.1" id="Capa_1" xmlns="http://www.w3.org/2000/svg" xmlns:xlink="http://www.w3.org/1999/xlink" x="0px" y="0px"
	 viewBox="0 0 512 512" style="enable-background:new 0 0 512 512;" xml:space="preserve">
<g>
	<g>
		<path d="M511.994,184.565c-0.002-10.97-11.418-18.22-21.34-13.593l-30.35,14.152c-19.811,9.239-42.785,9.816-63.035,1.583
			c-0.172-0.07-0.345-0.136-0.52-0.2l-63.223-23.011c-31.368-11.417-64.843-0.546-84.123,23.477l-19.028-19.896
			c6.191-14.461,9.624-30.373,9.624-47.072c0-66.168-53.832-120-120-120S0,53.838,0,120.006s53.832,120,120,120
			c16.497,0,32.227-3.348,46.547-9.397l38.329,40.523l-37.11,17.305c-22.541,10.511-32.279,37.259-21.766,59.802
			c4.726,10.134,12.858,17.991,23.062,22.347c-3.222,10.617-2.43,21.897,2.295,32.031c7.627,16.355,23.895,25.979,40.853,25.979
			c2.516,0,5.047-0.221,7.567-0.654c0.318,5.519,1.651,11.067,4.126,16.375c8.931,19.152,29.265,28.661,48.397,25.345
			c0.333,5.591,1.712,11.125,4.15,16.354c10.486,22.487,37.307,32.253,59.803,21.766l78.156-36.446
			c36.009-16.791,67.467-40.538,93.495-70.578l0.437-0.503c2.36-2.726,3.659-6.211,3.659-9.817
			C512,347.155,512,243.952,511.994,184.565z M120,210.006c-49.626,0-90-40.374-90-90c0-49.626,40.374-90,90-90
			c49.626,0,90,40.374,90,90C210,169.632,169.626,210.006,120,210.006z M193.142,215.068c7.969-6.146,15.151-13.266,21.357-21.187
			l48.128,50.32l-29.096,13.568L193.142,215.068z M401.73,444.147l-78.156,36.446c-7.495,3.497-16.438,0.242-19.935-7.255
			c-3.504-7.514-0.26-16.429,7.255-19.934l27.189-12.679c7.509-3.501,10.757-12.426,7.256-19.934
			c-3.501-7.509-12.428-10.758-19.934-7.255c-5.764,2.688-48.615,22.669-54.379,25.357c-7.514,3.504-16.429,0.259-19.934-7.255
			c-3.496-7.496-0.241-16.438,7.255-19.934l27.189-12.678c7.509-3.501,10.757-12.426,7.256-19.934
			c-3.502-7.508-12.427-10.757-19.934-7.255c-29.676,13.838-21.208,9.889-54.378,25.357c-7.495,3.498-16.438,0.241-19.934-7.255
			c-3.496-7.496-0.241-16.438,7.255-19.934l54.378-25.357c7.507-3.501,10.756-12.423,7.255-19.934
			c-3.501-7.508-12.427-10.758-19.934-7.255l-54.378,25.357c-7.511,3.505-16.429,0.259-19.934-7.255
			c-3.504-7.514-0.259-16.43,7.255-19.934l142.894-66.633c7.509-3.501,10.757-12.426,7.256-19.934
			c-3.501-7.508-12.429-10.758-19.934-7.255l-19.325,9.012l-20.897-21.85c11.259-17.005,32.85-24.547,52.829-17.279l62.97,22.919
			c27.888,11.251,59.487,10.42,86.746-2.292l9.013-4.203C482,265.448,482,344.573,482,384.772
			C459.395,409.878,432.411,429.841,401.73,444.147z"/>
	</g>
</g>
<g>
	<g>
		<path d="M175.606,79.399c-5.857-5.858-15.355-5.858-21.212,0L105,128.792l-19.394-19.393c-5.857-5.858-15.355-5.858-21.213,0
			c-5.858,5.858-5.858,15.355,0,21.213l30,30c5.857,5.858,15.356,5.858,21.213,0l60-60
			C181.464,94.754,181.464,85.257,175.606,79.399z"/>
	</g>
</g>
<g>
</g>
<g>
</g>
<g>
</g>
<g>
</g>
<g>
</g>
<g>
</g>
<g>
</g>
<g>
</g>
<g>
</g>
<g>
</g>
<g>
</g>
<g>
</g>
<g>
</g>
<g>
</g>
<g>
</g>
</svg>
