<?xml version="1.0" encoding="iso-8859-1"?>
<!-- Generator: Adobe Illustrator 19.0.0, SVG Export Plug-In . SVG Version: 6.00 Build 0)  -->
<svg version="1.1" id="Capa_1" xmlns="http://www.w3.org/2000/svg" xmlns:xlink="http://www.w3.org/1999/xlink" x="0px" y="0px"
	 viewBox="0 0 512 512" style="enable-background:new 0 0 512 512;" xml:space="preserve">
<g>
	<g>
		<path d="M225,0H15C6.716,0,0,6.716,0,15v210c0,8.284,6.716,15,15,15h210c8.284,0,15-6.716,15-15V15C240,6.716,233.284,0,225,0z
			 M210,210H30V30h180V210z"/>
	</g>
</g>
<g>
	<g>
		<path d="M225,272H15c-8.284,0-15,6.716-15,15v210c0,8.284,6.716,15,15,15h210c8.284,0,15-6.716,15-15V287
			C240,278.716,233.284,272,225,272z M210,482H30V302h180V482z"/>
	</g>
</g>
<g>
	<g>
		<path d="M497,272H287c-8.284,0-15,6.716-15,15v210c0,8.284,6.716,15,15,15h210c8.284,0,15-6.716,15-15V287
			C512,278.716,505.284,272,497,272z M482,482H302V302h180V482z"/>
	</g>
</g>
<g>
	<g>
		<path d="M497,0H287c-8.284,0-15,6.716-15,15v210c0,8.284,6.716,15,15,15h210c8.284,0,15-6.716,15-15V15C512,6.716,505.284,0,497,0
			z M482,210H302V30h180V210z"/>
	</g>
</g>
<g>
	<g>
		<path d="M447.607,79.393c-5.857-5.858-15.355-5.858-21.213,0L377,128.787l-19.394-19.393c-5.857-5.858-15.355-5.858-21.213,0
			c-5.858,5.858-5.858,15.355,0,21.213l30.001,29.999c5.857,5.858,15.356,5.858,21.213,0l60-60
			C453.465,94.748,453.465,85.251,447.607,79.393z"/>
	</g>
</g>
<g>
	<g>
		<path d="M175.607,351.393c-5.857-5.858-15.355-5.858-21.213,0L105,400.787l-19.394-19.393c-5.857-5.858-15.355-5.858-21.213,0
			c-5.858,5.858-5.858,15.355,0,21.213l30.001,29.999c5.857,5.858,15.356,5.858,21.213,0l60-60
			C181.465,366.748,181.465,357.251,175.607,351.393z"/>
	</g>
</g>
<g>
	<g>
		<path d="M141.213,120l19.394-19.394c5.858-5.858,5.858-15.355,0-21.213c-5.857-5.858-15.355-5.858-21.213,0L120,98.787
			l-19.394-19.394c-5.857-5.858-15.355-5.858-21.213,0c-5.858,5.858-5.858,15.355,0,21.213L98.787,120l-19.394,19.394
			c-5.857,5.857-5.857,15.355,0.001,21.212c5.857,5.858,15.356,5.858,21.213,0L120,141.213l19.394,19.394
			c5.857,5.858,15.356,5.858,21.213,0c5.858-5.858,5.858-15.355,0-21.213L141.213,120z"/>
	</g>
</g>
<g>
	<g>
		<path d="M413.213,392l19.394-19.394c5.858-5.858,5.858-15.355,0-21.213c-5.857-5.858-15.355-5.858-21.213,0L392,370.787
			l-19.394-19.394c-5.857-5.858-15.355-5.858-21.213,0c-5.858,5.858-5.858,15.355,0,21.213L370.787,392l-19.394,19.394
			c-5.858,5.857-5.858,15.355,0.001,21.212c5.857,5.858,15.356,5.858,21.213,0L392,413.213l19.394,19.394
			c5.857,5.858,15.356,5.858,21.213,0c5.858-5.858,5.858-15.355,0-21.213L413.213,392z"/>
	</g>
</g>
<g>
</g>
<g>
</g>
<g>
</g>
<g>
</g>
<g>
</g>
<g>
</g>
<g>
</g>
<g>
</g>
<g>
</g>
<g>
</g>
<g>
</g>
<g>
</g>
<g>
</g>
<g>
</g>
<g>
</g>
</svg>
