<?xml version="1.0" encoding="iso-8859-1"?>
<!-- Generator: Adobe Illustrator 19.0.0, SVG Export Plug-In . SVG Version: 6.00 Build 0)  -->
<svg version="1.1" id="Capa_1" xmlns="http://www.w3.org/2000/svg" xmlns:xlink="http://www.w3.org/1999/xlink" x="0px" y="0px"
	 viewBox="0 0 512 512" style="enable-background:new 0 0 512 512;" xml:space="preserve">
<g>
	<g>
		<path d="M467,121H332V45c0-24.813-20.187-45-45-45H45C20.187,0,0,20.187,0,45v422c0,24.813,20.187,45,45,45h242
			c24.813,0,45-20.187,45-45v-84.787L383.213,331H467c24.813,0,45-20.187,45-45V166C512,141.187,491.813,121,467,121z M30,45
			c0-8.271,6.729-15,15-15h242c8.271,0,15,6.729,15,15v15H30V45z M302,467c0,8.271-6.729,15-15,15H45c-8.271,0-15-6.729-15-15v-15
			h272V467z M302,376v46H30V90h272v31h-15c-24.813,0-45,20.187-45,45v120c0,24.813,20.187,45,45,45h15V376z M482,286
			c0,8.271-6.729,15-15,15h-90c-3.979,0-7.794,1.581-10.606,4.394L332,339.787v-23.783V316c0-8.284-6.716-15-15-15h-30
			c-8.271,0-15-6.729-15-15V166c0-8.271,6.729-15,15-15h180c8.271,0,15,6.729,15,15V286z"/>
	</g>
</g>
<g>
	<g>
		<path d="M432.606,185.394c-5.857-5.859-15.355-5.859-21.212,0L362,234.787l-19.394-19.393c-5.857-5.858-15.355-5.858-21.213,0
			c-5.858,5.858-5.858,15.355,0,21.213l30,30c5.857,5.858,15.356,5.858,21.213,0l60-60
			C438.464,200.749,438.464,191.252,432.606,185.394z"/>
	</g>
</g>
<g>
</g>
<g>
</g>
<g>
</g>
<g>
</g>
<g>
</g>
<g>
</g>
<g>
</g>
<g>
</g>
<g>
</g>
<g>
</g>
<g>
</g>
<g>
</g>
<g>
</g>
<g>
</g>
<g>
</g>
</svg>
