<?xml version="1.0" encoding="iso-8859-1"?>
<!-- Generator: Adobe Illustrator 19.0.0, SVG Export Plug-In . SVG Version: 6.00 Build 0)  -->
<svg version="1.1" id="Capa_1" xmlns="http://www.w3.org/2000/svg" xmlns:xlink="http://www.w3.org/1999/xlink" x="0px" y="0px"
	 viewBox="0 0 512 512" style="enable-background:new 0 0 512 512;" xml:space="preserve">
<g>
	<g>
		<path d="M181,252.145V120h15c5.532,0,10.615-3.045,13.225-7.922c2.61-4.877,2.324-10.795-0.744-15.398l-60-90
			C145.699,2.506,141.015,0,136,0s-9.699,2.506-12.481,6.68l-60,90c-3.068,4.603-3.354,10.521-0.744,15.398
			C65.385,116.955,70.468,120,76,120h15v132.145C55.557,269.027,31,305.198,31,347c0,57.897,47.103,105,105,105
			c57.897,0,105-47.103,105-105C241,305.198,216.443,269.027,181,252.145z M136,42.042L167.972,90H166c-8.284,0-15,6.716-15,15
			v138.076c-4.901-0.704-9.907-1.076-15-1.076s-10.099,0.372-15,1.076V105c0-8.284-6.716-15-15-15h-1.972L136,42.042z M136,422
			c-41.355,0-75-33.645-75-75c0-41.355,33.645-75,75-75s75,33.645,75,75C211,388.355,177.355,422,136,422z"/>
	</g>
</g>
<g>
	<g>
		<path d="M166,332h-15v-15c0-8.284-6.716-15-15-15s-15,6.716-15,15v15h-15c-8.284,0-15,6.716-15,15s6.716,15,15,15h15v15
			c0,8.284,6.716,15,15,15s15-6.716,15-15v-15h15c8.284,0,15-6.716,15-15S174.284,332,166,332z"/>
	</g>
</g>
<g>
	<g>
		<path d="M406,150h-60c-8.284,0-15,6.716-15,15s6.716,15,15,15h60c8.284,0,15-6.716,15-15S414.284,150,406,150z"/>
	</g>
</g>
<g>
	<g>
		<path d="M436,392h-15V259.855c35.443-16.883,60-53.053,60-94.855c0-57.897-47.103-105-105-105c-57.897,0-105,47.103-105,105
			c0,41.802,24.557,77.973,60,94.855V392h-15c-5.532,0-10.615,3.045-13.226,7.922c-2.609,4.877-2.324,10.795,0.745,15.398l60,90
			c2.781,4.173,7.465,6.68,12.48,6.68s9.699-2.506,12.48-6.68l60-90c3.069-4.603,3.354-10.521,0.745-15.398S441.532,392,436,392z
			 M301,165c0-41.355,33.645-75,75-75c41.355,0,75,33.645,75,75s-33.645,75-75,75C334.645,240,301,206.355,301,165z M376,469.958
			L344.027,422H346c8.284,0,15-6.716,15-15V268.924c4.901,0.704,9.907,1.076,15,1.076c5.093,0,10.099-0.372,15-1.076V407
			c0,8.284,6.716,15,15,15h1.973L376,469.958z"/>
	</g>
</g>
<g>
</g>
<g>
</g>
<g>
</g>
<g>
</g>
<g>
</g>
<g>
</g>
<g>
</g>
<g>
</g>
<g>
</g>
<g>
</g>
<g>
</g>
<g>
</g>
<g>
</g>
<g>
</g>
<g>
</g>
</svg>
