<?xml version="1.0" encoding="iso-8859-1"?>
<!-- Generator: Adobe Illustrator 19.0.0, SVG Export Plug-In . SVG Version: 6.00 Build 0)  -->
<svg version="1.1" id="Capa_1" xmlns="http://www.w3.org/2000/svg" xmlns:xlink="http://www.w3.org/1999/xlink" x="0px" y="0px"
	 viewBox="0 0 512 512" style="enable-background:new 0 0 512 512;" xml:space="preserve">
<g>
	<g>
		<path d="M391.018,271.969c-5.853,0-11.448,1.123-16.581,3.164c-5.211-19.091-22.706-33.168-43.427-33.168
			c-11.516,0-22.036,4.348-30.004,11.487c-7.968-7.14-18.487-11.487-30.004-11.487c-5.258,0-10.308,0.906-15.002,2.57V202.47
			c50.224-41.952,90.012-75.011,90.012-123.044C346.012,35.71,314.415,0,271.002,0c-23.661,0-44.153,11.04-59.262,31.927
			c-0.252,0.348-0.501,0.698-0.746,1.046c-0.245-0.348-0.494-0.698-0.746-1.046C195.14,11.04,174.648,0,150.987,0
			c-43.414,0-75.01,35.709-75.01,79.426c0,48.096,39.922,81.202,90.012,123.043v140.873l-6.973-6.973
			c-17.546-17.545-46.096-17.545-63.643,0c-17.588,17.588-17.59,46.054,0,63.643l107.592,107.593
			c2.813,2.813,6.629,4.395,10.607,4.395h177.445c6.203,0,11.767-3.818,13.998-9.605c20.575-53.371,31.008-109.433,31.008-166.629
			v-18.79C436.024,292.159,415.834,271.969,391.018,271.969z M105.981,79.426c0-28.176,19.349-49.422,45.006-49.422
			c33.47,0,45.1,38.883,45.562,40.478c1.813,6.479,7.719,10.957,14.446,10.957s12.633-4.479,14.446-10.957
			c0.113-0.405,11.726-40.478,45.562-40.478c25.657,0,45.006,21.247,45.006,49.422c0,30.197-24.994,54.333-67.306,90.008
			c-8.039-12.318-21.934-20.482-37.708-20.482c-15.774,0-29.669,8.164-37.708,20.481
			C130.975,133.759,105.981,109.623,105.981,79.426z M380.595,481.996H219.787L116.589,378.798c-5.862-5.862-5.863-15.348,0-21.211
			c5.849-5.848,15.363-5.848,21.212,0l32.586,32.586c4.292,4.289,10.743,5.571,16.347,3.247c5.605-2.322,9.258-7.792,9.258-13.859
			c0-3.717,0-177.885,0-185.602c0-8.272,6.73-15.002,15.002-15.002c7.306,0,15.002,5.239,15.002,16.593v121.425
			c0,8.285,6.717,15.002,15.002,15.002c8.285,0,15.002-6.717,15.002-15.002v-30.004c0-8.272,6.73-15.002,15.002-15.002
			c8.272,0,15.002,6.73,15.002,15.002v30.004c0,8.285,6.717,15.002,15.002,15.002c8.285,0,15.002-6.717,15.002-15.002v-30.004
			c0-8.272,6.73-15.002,15.002-15.002c8.272,0,15.002,6.73,15.002,15.002v30.004c0,8.285,6.717,15.002,15.002,15.002
			c8.285,0,15.002-6.717,15.002-15.002c0-8.272,6.73-15.002,15.002-15.002c8.272,0,15.002,6.73,15.002,15.002v18.789h0.001
			C406.02,385.835,397.47,434.979,380.595,481.996z"/>
	</g>
</g>
<g>
</g>
<g>
</g>
<g>
</g>
<g>
</g>
<g>
</g>
<g>
</g>
<g>
</g>
<g>
</g>
<g>
</g>
<g>
</g>
<g>
</g>
<g>
</g>
<g>
</g>
<g>
</g>
<g>
</g>
</svg>
