<?xml version="1.0" encoding="iso-8859-1"?>
<!-- Generator: Adobe Illustrator 19.0.0, SVG Export Plug-In . SVG Version: 6.00 Build 0)  -->
<svg version="1.1" id="Capa_1" xmlns="http://www.w3.org/2000/svg" xmlns:xlink="http://www.w3.org/1999/xlink" x="0px" y="0px"
	 viewBox="0 0 512 512" style="enable-background:new 0 0 512 512;" xml:space="preserve">
<g>
	<g>
		<path d="M346,181c-5.316,0-10.572,0.263-15.761,0.757C330.735,176.528,331,171.268,331,166C331,74.467,256.981,0,166,0
			C74.772,0,0,74.797,0,166c0,90.981,74.467,165,166,165c5.268,0,10.528-0.265,15.757-0.761C181.263,335.428,181,340.684,181,346
			c0,91.533,74.019,166,165,166c91.228,0,166-74.797,166-166C512,255.019,437.532,181,346,181z M166,301
			c-74.991,0-136-60.561-136-135C30,91.009,91.009,30,166,30c74.439,0,135,61.009,135,136c0,7.308-0.597,14.593-1.755,21.758
			c-23.645,6.999-45.09,19.161-63.027,35.179c-41.044-36.963-104.518-35.841-144.195,3.548c-5.879,5.837-5.913,15.334-0.077,21.213
			c5.836,5.878,15.333,5.914,21.213,0.077c28.201-27.998,73.229-28.917,102.558-2.906c-12.475,16.034-22.055,34.423-27.96,54.375
			C180.593,300.403,173.308,301,166,301z M346,482c-74.439,0-135-61.009-135-136c0-74.439,60.561-135,135-135
			c74.99,0,136,60.561,136,135C482,420.991,420.99,482,346,482z"/>
	</g>
</g>
<g>
	<g>
		<path d="M420.246,384.033c-5.857-5.858-15.355-5.858-21.213,0c-29.242,29.242-76.824,29.242-106.066,0
			c-5.857-5.858-15.355-5.858-21.213,0c-5.858,5.858-5.858,15.355,0,21.213c20.47,20.47,47.357,30.705,74.246,30.705
			c26.889,0,53.776-10.235,74.246-30.705C426.104,399.388,426.104,389.891,420.246,384.033z"/>
	</g>
</g>
<g>
	<g>
		<circle cx="106" cy="136" r="15"/>
	</g>
</g>
<g>
	<g>
		<circle cx="226" cy="136" r="15"/>
	</g>
</g>
<g>
	<g>
		<circle cx="286" cy="316" r="15"/>
	</g>
</g>
<g>
	<g>
		<circle cx="406" cy="316" r="15"/>
	</g>
</g>
<g>
</g>
<g>
</g>
<g>
</g>
<g>
</g>
<g>
</g>
<g>
</g>
<g>
</g>
<g>
</g>
<g>
</g>
<g>
</g>
<g>
</g>
<g>
</g>
<g>
</g>
<g>
</g>
<g>
</g>
</svg>
