<?xml version="1.0" encoding="iso-8859-1"?>
<!-- Generator: Adobe Illustrator 19.0.0, SVG Export Plug-In . SVG Version: 6.00 Build 0)  -->
<svg version="1.1" id="Capa_1" xmlns="http://www.w3.org/2000/svg" xmlns:xlink="http://www.w3.org/1999/xlink" x="0px" y="0px"
	 viewBox="0 0 511.999 511.999" style="enable-background:new 0 0 511.999 511.999;" xml:space="preserve">
<g>
	<g>
		<path d="M511.985,184.554c-0.001-10.97-11.417-18.217-21.338-13.593l-30.349,14.152c-19.81,9.238-42.786,9.815-63.034,1.583
			c-0.172-0.07-0.345-0.136-0.519-0.2l-63.22-23.01c-18.419-6.703-38.413-5.983-56.299,2.026
			c-11.001,4.927-20.468,12.289-27.821,21.451l-19.027-19.895c6.191-14.461,9.624-30.372,9.624-47.071
			C240,53.831,186.169,0,120.003,0S0.006,53.831,0.006,119.997c0,66.166,53.831,119.997,119.997,119.997
			c16.497,0,32.226-3.348,46.546-9.397l38.328,40.522l-37.109,17.305c-22.54,10.511-32.278,37.258-21.765,59.8
			c4.726,10.134,12.858,17.99,23.061,22.346c-3.222,10.617-2.43,21.896,2.295,32.03c8.693,18.641,28.732,28.707,48.419,25.324
			c0.318,5.519,1.651,11.067,4.126,16.375c8.673,18.599,28.648,28.767,48.396,25.344c0.333,5.591,1.712,11.125,4.15,16.354
			c10.479,22.473,37.186,32.31,59.8,21.765l78.156-36.445c36.006-16.79,67.463-40.537,93.509-70.595l0.419-0.484
			c2.36-2.726,3.659-6.211,3.659-9.817C511.991,347.139,511.991,243.938,511.985,184.554z M120.002,209.993
			c-49.625,0-89.998-40.373-89.998-89.998c0-49.625,40.373-89.997,89.998-89.997S210,70.371,210,119.996
			C210,169.62,169.627,209.993,120.002,209.993z M193.142,215.056c7.97-6.146,15.151-13.266,21.356-21.186l48.127,50.319
			l-29.095,13.568L193.142,215.056z M401.725,444.129l-78.156,36.445c-7.496,3.498-16.422,0.275-19.933-7.255
			c-3.496-7.496-0.241-16.438,7.255-19.933l27.188-12.679c7.508-3.501,10.756-12.426,7.255-19.933
			c-3.502-7.509-12.425-10.758-19.933-7.255l-27.188,12.679l-27.188,12.678c-7.514,3.504-16.429,0.259-19.933-7.255
			c-3.494-7.493-0.243-16.432,7.247-19.929l27.196-12.682c7.367-3.436,10.804-12.324,7.255-19.933
			c-3.526-7.56-12.478-10.732-19.933-7.255c-5.894,2.749-49.125,22.907-54.378,25.356c-7.494,3.498-16.438,0.241-19.933-7.255
			c-3.496-7.496-0.241-16.438,7.255-19.933l54.377-25.356c5.455-2.544,8.662-7.951,8.664-13.597
			c0.001-2.125-0.452-4.284-1.409-6.337c-3.501-7.508-12.427-10.758-19.933-7.255l-54.377,25.356
			c-7.511,3.505-16.429,0.259-19.933-7.255c-3.504-7.514-0.259-16.43,7.255-19.933l142.89-66.631
			c7.508-3.501,10.756-12.426,7.255-19.933c-3.502-7.508-12.426-10.758-19.933-7.255l-19.325,9.011l-20.896-21.848
			c11.26-17.006,32.856-24.546,52.828-17.279l62.969,22.918c27.884,11.25,59.482,10.419,86.744-2.292l9.013-4.203
			c0.003,57.335,0.003,136.458,0.003,176.657C459.386,409.862,432.405,429.823,401.725,444.129z"/>
	</g>
</g>
<g>
	<g>
		<path d="M160.608,139.389l-19.393-19.394l19.393-19.393c5.857-5.857,5.857-15.355-0.001-21.211
			c-5.857-5.858-15.355-5.858-21.212,0l-19.393,19.393l-19.393-19.393c-5.857-5.858-15.355-5.858-21.212,0s-5.858,15.355,0,21.212
			l19.394,19.392l-19.393,19.394c-5.858,5.858-5.858,15.355,0,21.212c5.857,5.858,15.356,5.858,21.212,0l19.393-19.393
			l19.393,19.393c5.857,5.858,15.356,5.858,21.212,0C166.466,154.744,166.466,145.247,160.608,139.389z"/>
	</g>
</g>
<g>
</g>
<g>
</g>
<g>
</g>
<g>
</g>
<g>
</g>
<g>
</g>
<g>
</g>
<g>
</g>
<g>
</g>
<g>
</g>
<g>
</g>
<g>
</g>
<g>
</g>
<g>
</g>
<g>
</g>
</svg>
