<?xml version="1.0" encoding="iso-8859-1"?>
<!-- Generator: Adobe Illustrator 19.0.0, SVG Export Plug-In . SVG Version: 6.00 Build 0)  -->
<svg version="1.1" id="Capa_1" xmlns="http://www.w3.org/2000/svg" xmlns:xlink="http://www.w3.org/1999/xlink" x="0px" y="0px"
	 viewBox="0 0 512 512" style="enable-background:new 0 0 512 512;" xml:space="preserve">
<g>
	<g>
		<path d="M467,16H45C20.187,16,0,36.187,0,61v300c0,24.813,20.187,45,45,45h46v75c0,6.067,3.655,11.537,9.26,13.858
			c1.856,0.769,3.805,1.142,5.737,1.142c3.904,0,7.741-1.524,10.61-4.394L202.213,406H467c24.813,0,45-20.187,45-45V61
			C512,36.187,491.813,16,467,16z M482,361c0,8.271-6.729,15-15,15H196c-3.978,0-7.793,1.581-10.606,4.394L121,444.786V391
			c0-8.284-6.716-15-15-15H45c-8.271,0-15-6.729-15-15V61c0-8.271,6.729-15,15-15h422c8.271,0,15,6.729,15,15V361z"/>
	</g>
</g>
<g>
	<g>
		<path d="M346,106h-30c-24.813,0-45,20.187-45,45v30c0,24.813,20.187,45,45,45h30c4.454,0,8.754-0.66,12.82-1.871
			c-5.952,27.254-23.808,50.595-49.529,63.455c-7.41,3.705-10.413,12.715-6.708,20.125c3.706,7.412,12.717,10.412,20.125,6.708
			c20.536-10.268,37.77-26.019,49.841-45.549C384.62,249.336,391,226.877,391,203.918c0-10.293,0-42.664,0-52.918
			C391,126.187,370.813,106,346,106z M361,181c0,8.271-6.729,15-15,15h-30c-8.271,0-15-6.729-15-15v-30c0-8.271,6.729-15,15-15h30
			c8.271,0,15,6.729,15,15C361,161.856,361,170.144,361,181z"/>
	</g>
</g>
<g>
	<g>
		<path d="M196,106h-30c-24.813,0-45,20.187-45,45v30c0,24.813,20.187,45,45,45h30c4.454,0,8.754-0.66,12.82-1.871
			c-5.953,27.254-23.808,50.595-49.529,63.455c-7.41,3.705-10.413,12.715-6.708,20.125c3.706,7.412,12.717,10.412,20.125,6.708
			c20.536-10.268,37.77-26.019,49.841-45.549C234.62,249.336,241,226.877,241,203.918c0-10.293,0-42.664,0-52.918
			C241,126.187,220.813,106,196,106z M211,181c0,8.271-6.729,15-15,15h-30c-8.271,0-15-6.729-15-15v-30c0-8.271,6.729-15,15-15h30
			c8.271,0,15,6.729,15,15C211,161.856,211,170.144,211,181z"/>
	</g>
</g>
<g>
</g>
<g>
</g>
<g>
</g>
<g>
</g>
<g>
</g>
<g>
</g>
<g>
</g>
<g>
</g>
<g>
</g>
<g>
</g>
<g>
</g>
<g>
</g>
<g>
</g>
<g>
</g>
<g>
</g>
</svg>
