<?xml version="1.0" encoding="iso-8859-1"?>
<!-- Generator: Adobe Illustrator 19.0.0, SVG Export Plug-In . SVG Version: 6.00 Build 0)  -->
<svg version="1.1" id="Capa_1" xmlns="http://www.w3.org/2000/svg" xmlns:xlink="http://www.w3.org/1999/xlink" x="0px" y="0px"
	 viewBox="0 0 512 512" style="enable-background:new 0 0 512 512;" xml:space="preserve">
<g>
	<g>
		<path d="M453.126,398.152l-63.101-63.045c-31.837-31.835-66.058-18.818-76.099-0.498c-18.078,32.968-11.106,20.254-14.018,25.564
			c-5.871,4.623-14.429,4.228-19.84-1.184L153.036,231.959c-5.522-5.522-5.728-14.084-1.186-19.838
			c27.975-15.341,26.185-14.304,27.303-15.136c21.893-16.283,24.309-48.18,5.169-67.58c-1.938-2.078-12.768-13.405-69.5-70.238
			c-17.371-17.401-45.963-17.905-63.694-0.175c-70.744,70.765-63.097,172.352-3.203,232.246l173.33,173.33
			C251.85,495.164,292.499,512,335.755,512c0.106,0,0.218,0,0.323,0c43.375-0.084,84.087-17.087,114.639-47.876l2.545-2.565
			C470.647,444.04,470.585,415.596,453.126,398.152z M69.098,83.367l3.203-3.203c5.876-5.876,15.508-5.676,21.33,0.156
			c63.797,63.912,69.304,70.042,69.304,70.042c6.311,6.311,5.685,16.52-0.973,22.064l-10.332,5.666L63.206,89.668
			C65.092,87.521,67.05,85.416,69.098,83.367z M336.021,482.058c-0.089,0-0.175,0-0.264,0c-35.256,0-68.393-13.724-93.33-38.662
			l-173.33-173.33c-41.989-41.99-49.719-105.46-23.2-155.365l80.926,80.926c-5.266,7.492-8.113,16.397-8.113,25.745
			c0,11.997,4.672,23.275,13.154,31.758l127.032,127.033c15.626,15.626,39.988,17.295,57.498,5.035l81.431,81.431
			C379.028,476.667,357.942,482.015,336.021,482.058z M432.009,440.469l-2.545,2.565c-2.152,2.169-4.37,4.249-6.643,6.248
			l-88.886-88.886l5.667-10.334c7.646-9.191,20.374-2.659,29.256,6.223l63.106,63.048
			C437.784,425.148,437.805,434.63,432.009,440.469z"/>
	</g>
</g>
<g>
	<g>
		<path d="M466.565,0H286.914c-24.765,0-44.913,20.148-44.913,44.913V164.68c0,24.765,20.148,44.913,44.913,44.913h14.971v44.913
			c0,6.055,3.648,11.515,9.242,13.831c5.595,2.317,12.034,1.036,16.315-3.246l55.498-55.498h83.624
			c24.765,0,44.913-20.148,44.913-44.913V44.913C511.477,20.148,491.33,0,466.565,0z M481.536,164.68
			c0,8.255-6.716,14.971-14.971,14.971h-89.825c-3.97,0-7.778,1.578-10.585,4.385l-34.327,34.326v-23.741
			c0-8.268-6.703-14.971-14.971-14.971h-29.942c-8.255,0-14.971-6.716-14.971-14.971V44.913c0-8.255,6.716-14.971,14.971-14.971
			h179.651c8.255,0,14.971,6.716,14.971,14.971V164.68z"/>
	</g>
</g>
<g>
	<g>
		<path d="M432.237,64.269c-5.846-5.848-15.325-5.848-21.171,0l-49.298,49.297l-19.356-19.355c-5.846-5.847-15.325-5.847-21.172,0
			s-5.847,15.325,0,21.172l29.942,29.942c5.846,5.847,15.326,5.847,21.172,0l59.883-59.883
			C438.084,79.594,438.084,70.116,432.237,64.269z"/>
	</g>
</g>
<g>
</g>
<g>
</g>
<g>
</g>
<g>
</g>
<g>
</g>
<g>
</g>
<g>
</g>
<g>
</g>
<g>
</g>
<g>
</g>
<g>
</g>
<g>
</g>
<g>
</g>
<g>
</g>
<g>
</g>
</svg>
