<?xml version="1.0" encoding="iso-8859-1"?>
<!-- Generator: Adobe Illustrator 19.0.0, SVG Export Plug-In . SVG Version: 6.00 Build 0)  -->
<svg version="1.1" id="Capa_1" xmlns="http://www.w3.org/2000/svg" xmlns:xlink="http://www.w3.org/1999/xlink" x="0px" y="0px"
	 viewBox="0 0 512 512" style="enable-background:new 0 0 512 512;" xml:space="preserve">
<g>
	<g>
		<path d="M498.755,176.542L421,99.733V15c0-8.284-6.716-15-15-15H106c-8.284,0-15,6.716-15,15v84.733l-77.82,76.874
			c-8.499,8.5-13.18,19.8-13.18,31.82V467c0,24.971,20.351,45,45,45h422c24.816,0,45-20.229,45-45V208.427
			C512,196.407,507.319,185.107,498.755,176.542z M421,141.902l54.746,54.08L421,250.361V141.902z M121,30h270v250.16
			l-44.964,44.663l-58.216-58.216c-17.546-17.545-46.095-17.545-63.64,0l-58.216,58.216L121,280.16V30z M91,141.902v108.459
			l-54.746-54.379L91,141.902z M30,460.787V232.054l114.751,113.981L30,460.787z M51.213,482l194.18-194.18
			c5.849-5.848,15.365-5.848,21.214,0L460.787,482H51.213z M482,460.787L367.249,346.036L482,232.054V460.787z"/>
	</g>
</g>
<g>
	<g>
		<path d="M346,61H166c-8.284,0-15,6.716-15,15s6.716,15,15,15h180c8.284,0,15-6.716,15-15S354.284,61,346,61z"/>
	</g>
</g>
<g>
	<g>
		<path d="M346,121H166c-8.284,0-15,6.716-15,15s6.716,15,15,15h180c8.284,0,15-6.716,15-15S354.284,121,346,121z"/>
	</g>
</g>
<g>
	<g>
		<path d="M256,181h-90c-8.284,0-15,6.716-15,15s6.716,15,15,15h90c8.284,0,15-6.716,15-15S264.284,181,256,181z"/>
	</g>
</g>
<g>
</g>
<g>
</g>
<g>
</g>
<g>
</g>
<g>
</g>
<g>
</g>
<g>
</g>
<g>
</g>
<g>
</g>
<g>
</g>
<g>
</g>
<g>
</g>
<g>
</g>
<g>
</g>
<g>
</g>
</svg>
