<?xml version="1.0" encoding="iso-8859-1"?>
<!-- Generator: Adobe Illustrator 19.0.0, SVG Export Plug-In . SVG Version: 6.00 Build 0)  -->
<svg version="1.1" id="Capa_1" xmlns="http://www.w3.org/2000/svg" xmlns:xlink="http://www.w3.org/1999/xlink" x="0px" y="0px"
	 viewBox="0 0 512 512" style="enable-background:new 0 0 512 512;" xml:space="preserve">
<g>
	<g>
		<path d="M467,166h-94.797c2.478-9.592,3.797-19.645,3.797-30c0-66.168-53.832-120-120-120S136,69.832,136,136
			c0,10.355,1.319,20.408,3.797,30H45c-24.789,0-45,20.194-45,45v240c0,24.811,20.224,45,45,45h422c24.646,0,45-20.027,45-45V211
			C512,186.2,491.795,166,467,166z M256,46c49.626,0,90,40.374,90,90s-40.374,90-90,90c-49.626,0-90-40.374-90-90
			C166,86.374,206.374,46,256,46z M152.108,196c20.78,35.841,59.566,60,103.892,60s83.112-24.359,103.891-60.2h98.484
			c-4.631,4.659-166.904,168.129-191.711,193.089c-2.84,2.87-6.627,4.451-10.665,4.451s-7.825-1.581-10.689-4.477
			C204.966,348.271,69.752,212.227,53.624,196H152.108z M30,444.958v-230.17L145.115,330.61L30,444.958z M51.386,466
			l114.878-114.112l57.744,58.098c8.518,8.612,19.88,13.354,31.993,13.354c12.113,0,23.475-4.743,31.968-13.329l57.303-57.655
			L460.493,466H51.386z M482,445.076L366.419,331.078L482,214.788V445.076z"/>
	</g>
</g>
<g>
	<g>
		<path d="M311.607,95.394c-5.857-5.858-15.355-5.858-21.213,0L241,144.787l-19.394-19.394c-5.857-5.858-15.355-5.858-21.213,0
			c-5.858,5.858-5.858,15.355,0,21.213l30.001,30.001c5.857,5.857,15.355,5.858,21.213,0l60-60
			C317.465,110.749,317.465,101.252,311.607,95.394z"/>
	</g>
</g>
<g>
</g>
<g>
</g>
<g>
</g>
<g>
</g>
<g>
</g>
<g>
</g>
<g>
</g>
<g>
</g>
<g>
</g>
<g>
</g>
<g>
</g>
<g>
</g>
<g>
</g>
<g>
</g>
<g>
</g>
</svg>
