<?xml version="1.0" encoding="iso-8859-1"?>
<!-- Generator: Adobe Illustrator 19.0.0, SVG Export Plug-In . SVG Version: 6.00 Build 0)  -->
<svg version="1.1" id="Capa_1" xmlns="http://www.w3.org/2000/svg" xmlns:xlink="http://www.w3.org/1999/xlink" x="0px" y="0px"
	 viewBox="0 0 512.001 512.001" style="enable-background:new 0 0 512.001 512.001;" xml:space="preserve">
<g>
	<g>
		<path d="M467,181H331V45c0-24.813-20.187-45-45-45H45C20.187,0,0,20.187,0,45v181c0,24.813,20.187,45,45,45h46v45
			c0,6.067,3.655,11.536,9.26,13.858c5.605,2.322,12.057,1.038,16.347-3.251L172.214,271H181v136c0,24.813,20.187,45,45,45h113.787
			l55.607,55.607c4.298,4.298,10.753,5.569,16.347,3.251c5.605-2.322,9.26-7.791,9.26-13.858v-45h46c24.813,0,45-20.187,45-45V226
			C512,201.187,491.813,181,467,181z M181,226v15h-15c-3.978,0-7.793,1.58-10.606,4.393L121,279.787V256c0-8.284-6.716-15-15-15H45
			c-8.271,0-15-6.729-15-15V45c0-8.271,6.729-15,15-15h241c8.271,0,15,6.729,15,15v136h-75C201.187,181,181,201.187,181,226z
			 M482,407c0,8.271-6.729,15-15,15h-61c-8.284,0-15,6.716-15,15v23.787l-34.394-34.394C353.794,423.58,349.978,422,346,422H226
			c-8.271,0-15-6.729-15-15V226c0-8.271,6.729-15,15-15h241c8.271,0,15,6.729,15,15V407z"/>
	</g>
</g>
<g>
	<g>
		<circle cx="106" cy="136" r="15"/>
	</g>
</g>
<g>
	<g>
		<circle cx="166" cy="136" r="15"/>
	</g>
</g>
<g>
	<g>
		<circle cx="226" cy="136" r="15"/>
	</g>
</g>
<g>
	<g>
		<path d="M420.246,339.033c-5.857-5.858-15.355-5.858-21.213,0c-14.14,14.139-32.974,21.926-53.033,21.926
			c-20.059,0-38.894-7.787-53.033-21.926c-5.858-5.858-15.355-5.858-21.213,0c-5.858,5.858-5.858,15.355,0,21.213
			c19.805,19.806,46.173,30.713,74.246,30.713s54.441-10.907,74.246-30.713C426.104,354.388,426.104,344.891,420.246,339.033z"/>
	</g>
</g>
<g>
	<g>
		<circle cx="286" cy="271" r="15"/>
	</g>
</g>
<g>
	<g>
		<circle cx="406" cy="271" r="15"/>
	</g>
</g>
<g>
</g>
<g>
</g>
<g>
</g>
<g>
</g>
<g>
</g>
<g>
</g>
<g>
</g>
<g>
</g>
<g>
</g>
<g>
</g>
<g>
</g>
<g>
</g>
<g>
</g>
<g>
</g>
<g>
</g>
</svg>
