<?xml version="1.0" encoding="iso-8859-1"?>
<!-- Generator: Adobe Illustrator 19.0.0, SVG Export Plug-In . SVG Version: 6.00 Build 0)  -->
<svg version="1.1" id="Capa_1" xmlns="http://www.w3.org/2000/svg" xmlns:xlink="http://www.w3.org/1999/xlink" x="0px" y="0px"
	 viewBox="0 0 512 512" style="enable-background:new 0 0 512 512;" xml:space="preserve">
<g>
	<g>
		<path d="M467,76H244.028l-26.641-39.962C209.021,23.491,195.024,16,179.944,16H45C20.187,16,0,36.187,0,61v390
			c0,24.813,20.187,45,45,45h422c24.813,0,45-20.187,45-45c0-7.029,0-322.971,0-330C512,96.187,491.813,76,467,76z M482,451
			c0,8.271-6.729,15-15,15H45c-8.271,0-15-6.729-15-15V61c0-8.271,6.729-15,15-15h134.944c5.027,0,9.692,2.497,12.48,6.679
			l72.189,108.283C272.979,173.509,286.976,181,302.056,181H467c8.271,0,15,6.729,15,15V451z M482,153.58
			c-4.695-1.665-9.742-2.58-15-2.58H302.056c-5.027,0-9.692-2.497-12.48-6.679L264.028,106H467c8.271,0,15,6.729,15,15V153.58z"/>
	</g>
</g>
<g>
	<g>
		<path d="M375.286,295.911c-1.754-5.479-6.485-9.471-12.179-10.279l-64.804-9.194l-28.916-57.205
			C266.834,214.184,261.658,211,256,211c-5.658,0-10.834,3.184-13.387,8.233l-28.916,57.205l-64.804,9.194
			c-5.694,0.808-10.425,4.8-12.179,10.277c-1.754,5.477-0.221,11.475,3.945,15.439l46.676,44.422l-11.002,62.633
			c-0.985,5.608,1.29,11.291,5.874,14.669c4.583,3.377,10.684,3.87,15.75,1.271L256,404.551l58.043,29.794
			c5.066,2.6,11.167,2.108,15.75-1.271c4.583-3.379,6.858-9.061,5.874-14.669l-11.002-62.633l46.676-44.422
			C375.507,307.385,377.04,301.388,375.286,295.911z M298.159,339.583c-3.638,3.462-5.302,8.515-4.433,13.461l7.173,40.833
			l-38.049-19.531c-4.301-2.207-9.4-2.207-13.7,0l-38.049,19.531l7.173-40.833c0.869-4.946-0.795-9.999-4.433-13.461l-30.052-28.601
			l41.871-5.941c4.855-0.688,9.068-3.708,11.28-8.084L256,259.25l19.06,37.706c2.212,4.377,6.424,7.396,11.28,8.084l41.871,5.941
			L298.159,339.583z"/>
	</g>
</g>
<g>
</g>
<g>
</g>
<g>
</g>
<g>
</g>
<g>
</g>
<g>
</g>
<g>
</g>
<g>
</g>
<g>
</g>
<g>
</g>
<g>
</g>
<g>
</g>
<g>
</g>
<g>
</g>
<g>
</g>
</svg>
