<?xml version="1.0" encoding="iso-8859-1"?>
<!-- Generator: Adobe Illustrator 19.0.0, SVG Export Plug-In . SVG Version: 6.00 Build 0)  -->
<svg version="1.1" id="Capa_1" xmlns="http://www.w3.org/2000/svg" xmlns:xlink="http://www.w3.org/1999/xlink" x="0px" y="0px"
	 viewBox="0 0 512 512" style="enable-background:new 0 0 512 512;" xml:space="preserve">
<g>
	<g>
		<path d="M196.44,340.115C205.502,329.603,211,315.936,211,301c0-33.084-26.916-60-60-60s-60,26.916-60,60
			c0,14.936,5.498,28.603,14.56,39.115C79.126,353.765,61,381.337,61,413.082V436c0,8.284,6.716,15,15,15h150
			c8.284,0,15-6.716,15-15v-22.918C241,381.337,222.874,353.765,196.44,340.115z M151,271c16.542,0,30,13.458,30,30
			s-13.458,30-30,30s-30-13.458-30-30S134.458,271,151,271z M211,421H91v-7.918C91,384.364,114.364,361,143.082,361h15.836
			C187.636,361,211,384.364,211,413.082V421z"/>
	</g>
</g>
<g>
	<g>
		<path d="M467,90H331V75c0-41.355-33.645-75-75-75c-41.355,0-75,33.645-75,75v15H45c-24.813,0-45,20.187-45,45
			c0,4.117,0,311.718,0,332c0,24.813,20.187,45,45,45h422c24.813,0,45-20.187,45-45c0-19.965,0-327.569,0-332
			C512,110.187,491.813,90,467,90z M211,75c0-24.813,20.187-45,45-45s45,20.187,45,45v45h-90V75z M482,467c0,8.271-6.729,15-15,15
			H45c-8.271,0-15-6.729-15-15V210h452V467z M482,180H30v-45c0-8.271,6.729-15,15-15h136v15c0,8.284,6.716,15,15,15h120
			c8.284,0,15-6.716,15-15v-15h136c8.271,0,15,6.729,15,15V180z"/>
	</g>
</g>
<g>
	<g>
		<path d="M437,271H286c-8.284,0-15,6.716-15,15s6.716,15,15,15h151c8.284,0,15-6.716,15-15S445.284,271,437,271z"/>
	</g>
</g>
<g>
	<g>
		<path d="M437,331H286c-8.284,0-15,6.716-15,15s6.716,15,15,15h151c8.284,0,15-6.716,15-15S445.284,331,437,331z"/>
	</g>
</g>
<g>
	<g>
		<path d="M437,391H286c-8.284,0-15,6.716-15,15s6.716,15,15,15h151c8.284,0,15-6.716,15-15S445.284,391,437,391z"/>
	</g>
</g>
<g>
	<g>
		<circle cx="256" cy="75" r="15"/>
	</g>
</g>
<g>
</g>
<g>
</g>
<g>
</g>
<g>
</g>
<g>
</g>
<g>
</g>
<g>
</g>
<g>
</g>
<g>
</g>
<g>
</g>
<g>
</g>
<g>
</g>
<g>
</g>
<g>
</g>
<g>
</g>
</svg>
