<?xml version="1.0" encoding="iso-8859-1"?>
<!-- Generator: Adobe Illustrator 19.0.0, SVG Export Plug-In . SVG Version: 6.00 Build 0)  -->
<svg version="1.1" id="Capa_1" xmlns="http://www.w3.org/2000/svg" xmlns:xlink="http://www.w3.org/1999/xlink" x="0px" y="0px"
	 viewBox="0 0 512 512" style="enable-background:new 0 0 512 512;" xml:space="preserve">
<g>
	<g>
		<path d="M467,16H45C20.187,16,0,36.187,0,61v300c0,24.813,20.187,45,45,45h46v75c0,6.067,3.655,11.537,9.26,13.858
			c5.606,2.321,12.057,1.038,16.347-3.252L202.213,406H467c24.813,0,45-20.187,45-45V61C512,36.187,491.813,16,467,16z M482,361
			c0,8.271-6.729,15-15,15H196c-3.978,0-7.793,1.581-10.606,4.394L121,444.786V391c0-8.284-6.716-15-15-15H45
			c-8.271,0-15-6.729-15-15V61c0-8.271,6.729-15,15-15h422c8.271,0,15,6.729,15,15V361z"/>
	</g>
</g>
<g>
	<g>
		<path d="M357.556,128.754c-12.582-13.986-30.004-21.688-49.056-21.688c-20.877,0-39.001,9.514-52.5,27.532
			c-13.499-18.018-31.623-27.532-52.5-27.532c-39.044,0-67.5,32.1-67.5,71.364c0,20.372,7.885,39.044,24.814,58.765
			c19.404,22.603,49.569,45.529,85.424,76.26c2.809,2.408,6.285,3.611,9.762,3.611s6.953-1.204,9.762-3.611
			c35.812-30.695,66.013-53.649,85.424-76.259C368.115,217.474,376,198.802,376,178.43C376,159.616,369.45,141.974,357.556,128.754z
			 M273.632,267.594c-5.719,4.774-11.566,9.655-17.632,14.779c-6.066-5.125-11.913-10.004-17.632-14.779
			C193.239,229.924,166,207.185,166,178.43c0-23.581,16.122-41.364,37.5-41.364c27.801,0,37.643,32.629,38.073,34.107
			c1.834,6.443,7.722,10.893,14.427,10.893c6.727,0,12.631-4.478,14.444-10.956c0.095-0.34,9.859-34.044,38.056-34.044
			c21.378,0,37.5,17.783,37.5,41.364C346,207.185,318.761,229.924,273.632,267.594z"/>
	</g>
</g>
<g>
</g>
<g>
</g>
<g>
</g>
<g>
</g>
<g>
</g>
<g>
</g>
<g>
</g>
<g>
</g>
<g>
</g>
<g>
</g>
<g>
</g>
<g>
</g>
<g>
</g>
<g>
</g>
<g>
</g>
</svg>
