<?xml version="1.0" encoding="iso-8859-1"?>
<!-- Generator: Adobe Illustrator 19.0.0, SVG Export Plug-In . SVG Version: 6.00 Build 0)  -->
<svg version="1.1" id="Capa_1" xmlns="http://www.w3.org/2000/svg" xmlns:xlink="http://www.w3.org/1999/xlink" x="0px" y="0px"
	 viewBox="0 0 512 512" style="enable-background:new 0 0 512 512;" xml:space="preserve">
<g>
	<g>
		<path d="M467,0H45C20.187,0,0,20.187,0,45v422c0,24.813,20.187,45,45,45h422c24.813,0,45-20.187,45-45V45
			C512,20.187,491.813,0,467,0z M482,467c0,8.271-6.729,15-15,15H45c-8.271,0-15-6.729-15-15V146h452V467z M482,116H30V45
			c0-8.271,6.729-15,15-15h422c8.271,0,15,6.729,15,15V116z"/>
	</g>
</g>
<g>
	<g>
		<circle cx="76" cy="75" r="15"/>
	</g>
</g>
<g>
	<g>
		<circle cx="136" cy="75" r="15"/>
	</g>
</g>
<g>
	<g>
		<circle cx="196" cy="75" r="15"/>
	</g>
</g>
<g>
	<g>
		<path d="M376,271h-30c-11.426,0-21.864,4.288-29.809,11.33l-9.605-6.203C293.696,267.801,286,253.67,286,238.325V211
			c0-16.542-13.458-30-30-30c-33.084,0-60,26.916-60,60v30h-30.906c-28.422,0-49.691,26.005-44.126,53.825l18,90
			C143.16,435.786,161.718,451,183.094,451h69.154c14.929,0,29.66-2.455,43.781-7.296l17.929-6.146
			C322.126,445.848,333.471,451,346,451h30c8.284,0,15-6.716,15-15V286C391,277.716,384.284,271,376,271z M301.205,410.216
			l-14.904,5.109c-10.984,3.766-22.44,5.675-34.052,5.675h-69.154c-7.125,0-13.312-5.071-14.709-12.059l-18-90
			c-1.858-9.289,5.252-17.941,14.709-17.941H211c8.284,0,15-6.716,15-15v-45c0-16.542,13.458-30,30-30v27.325
			c0,25.575,12.826,49.128,34.311,63.003l11.304,7.3c-0.397,2.4-0.614,4.861-0.614,7.372v90
			C301.001,407.422,301.075,408.827,301.205,410.216z M361,421h-15c-8.271,0-15-6.729-15-15v-90c0-8.271,6.729-15,15-15h15V421z"/>
	</g>
</g>
<g>
	<g>
		<path d="M437,60h-61c-8.284,0-15,6.716-15,15s6.716,15,15,15h61c8.284,0,15-6.716,15-15S445.284,60,437,60z"/>
	</g>
</g>
<g>
</g>
<g>
</g>
<g>
</g>
<g>
</g>
<g>
</g>
<g>
</g>
<g>
</g>
<g>
</g>
<g>
</g>
<g>
</g>
<g>
</g>
<g>
</g>
<g>
</g>
<g>
</g>
<g>
</g>
</svg>
