<?xml version="1.0" encoding="iso-8859-1"?>
<!-- Generator: Adobe Illustrator 19.0.0, SVG Export Plug-In . SVG Version: 6.00 Build 0)  -->
<svg version="1.1" id="Capa_1" xmlns="http://www.w3.org/2000/svg" xmlns:xlink="http://www.w3.org/1999/xlink" x="0px" y="0px"
	 viewBox="0 0 512 512" style="enable-background:new 0 0 512 512;" xml:space="preserve">
<g>
	<g>
		<path d="M256,0C115.03,0,0,115.049,0,256c0,140.97,115.049,256,256,256c140.97,0,256-115.049,256-256C512,115.03,396.951,0,256,0z
			 M455.045,149.048l-69.417,31.553c-13.087-22.413-31.816-41.142-54.229-54.229l31.553-69.417
			C401.909,77.972,434.028,110.091,455.045,149.048z M376,256c0,66.168-53.832,120-120,120s-120-53.832-120-120s53.832-120,120-120
			S376,189.832,376,256z M256,30c28.026,0,54.869,5.142,79.656,14.509l-31.547,69.403C289.001,108.783,272.819,106,256,106
			c-16.819,0-33.001,2.783-48.109,7.912l-31.547-69.403C201.131,35.142,227.974,30,256,30z M149.049,56.955l31.553,69.417
			c-22.413,13.087-41.142,31.816-54.229,54.229l-69.417-31.553C77.972,110.091,110.091,77.972,149.049,56.955z M30,256
			c0-28.026,5.142-54.869,14.509-79.655l69.403,31.547C108.783,222.999,106,239.181,106,256c0,16.819,2.783,33.001,7.912,48.108
			l-69.403,31.547C35.142,310.869,30,284.026,30,256z M56.955,362.951l69.417-31.553c13.087,22.413,31.816,41.143,54.229,54.229
			l-31.553,69.417C110.091,434.028,77.972,401.909,56.955,362.951z M256,482c-28.026,0-54.869-5.142-79.656-14.509l31.547-69.403
			C222.999,403.217,239.181,406,256,406c16.819,0,33.001-2.783,48.109-7.912l31.547,69.403C310.869,476.858,284.026,482,256,482z
			 M362.951,455.045l-31.553-69.417c22.413-13.087,41.143-31.816,54.229-54.229l69.417,31.553
			C434.028,401.909,401.909,434.028,362.951,455.045z M398.088,304.108C403.217,289.001,406,272.819,406,256
			c0-16.819-2.783-33.001-7.912-48.108l69.403-31.547C476.858,201.131,482,227.974,482,256s-5.142,54.869-14.509,79.655
			L398.088,304.108z"/>
	</g>
</g>
<g>
	<g>
		<path d="M256,166c-24.813,0-45,20.187-45,45c0,8.284,6.716,15,15,15s15-6.716,15-15c0-8.271,6.729-15,15-15s15,6.729,15,15
			c0,4.889-2.283,9.334-6.263,12.196C250.526,233.412,241,249.864,241,271c0,8.284,6.716,15,15,15s15-6.716,15-15
			c0-10.837,4.314-18.461,11.248-23.445C293.99,239.114,301,225.448,301,211C301,186.187,280.813,166,256,166z"/>
	</g>
</g>
<g>
	<g>
		<circle cx="256" cy="331" r="15"/>
	</g>
</g>
<g>
</g>
<g>
</g>
<g>
</g>
<g>
</g>
<g>
</g>
<g>
</g>
<g>
</g>
<g>
</g>
<g>
</g>
<g>
</g>
<g>
</g>
<g>
</g>
<g>
</g>
<g>
</g>
<g>
</g>
</svg>
