<?xml version="1.0" encoding="iso-8859-1"?>
<!-- Generator: Adobe Illustrator 19.0.0, SVG Export Plug-In . SVG Version: 6.00 Build 0)  -->
<svg version="1.1" id="Capa_1" xmlns="http://www.w3.org/2000/svg" xmlns:xlink="http://www.w3.org/1999/xlink" x="0px" y="0px"
	 viewBox="0 0 512.001 512.001" style="enable-background:new 0 0 512.001 512.001;" xml:space="preserve">
<g>
	<g>
		<path d="M267.607,124.394c-5.857-5.858-15.355-5.858-21.213,0L197,173.787l-19.394-19.394c-5.857-5.858-15.355-5.858-21.213,0
			c-5.858,5.858-5.858,15.355,0,21.213l30.001,30.001c5.857,5.857,15.355,5.858,21.213,0l60-60
			C273.465,139.749,273.465,130.252,267.607,124.394z"/>
	</g>
</g>
<g>
	<g>
		<path d="M267.606,364.393c-5.857-5.858-15.355-5.858-21.212,0L197,413.787l-19.394-19.394c-5.857-5.858-15.355-5.858-21.213,0
			c-5.858,5.858-5.858,15.355,0,21.213l30,30c5.857,5.857,15.355,5.858,21.213,0l60-60
			C273.464,379.748,273.464,370.251,267.606,364.393z"/>
	</g>
</g>
<g>
	<g>
		<path d="M507.607,394.394l-50.851-50.851C472.569,323.215,482,297.689,482,270c0-44.326-24.159-83.112-60-103.891V90h75
			c8.284,0,15-6.716,15-15c0-19.909-7.419-38.368-20.89-51.977C476.2,7.961,455.155,0,430.25,0H165
			c-0.193,0-0.386,0.004-0.578,0.011C118.425,0.367,90,38.285,90,77.53V390H15c-8.284,0-15,6.716-15,15v47c0,33.084,26.916,60,60,60
			h317c24.813,0,45-20.187,45-45v-93.109c4.728-2.741,9.25-5.797,13.543-9.135l50.851,50.851c5.857,5.857,15.355,5.858,21.213,0
			C513.465,409.749,513.465,400.252,507.607,394.394z M90,451.999V452c0,16.542-13.458,30-30,30s-30-13.458-30-30v-32h60V451.999z
			 M430.25,30c29.13,0,43.928,14.099,49.312,30h-241.09c-2.238-10.878-6.871-21.138-13.503-30H430.25z M392,467
			c0,8.271-6.729,15-15,15H111.928c5.123-8.833,8.072-19.075,8.072-30v-0.001c0-15.647,0-359.93,0-374.469
			c0-20.982,12.327-39.545,29.978-45.14c14.635-4.64,29.786-2.356,41.565,6.267C203.101,47.117,210,60.703,210,75
			c0,8.284,6.716,15,15,15h167v63.797c-9.592-2.478-19.645-3.797-30-3.797c-58.114,0-106.706,41.526-117.676,96.463L197,293.787
			l-19.394-19.394c-5.857-5.858-15.355-5.858-21.213,0c-5.858,5.858-5.858,15.355,0,21.213l30,30c5.857,5.857,15.355,5.858,21.213,0
			l36.003-36.003C252.996,346.479,302.507,390,362,390c10.355,0,20.408-1.319,30-3.797V467z M362,360c-49.626,0-90-40.374-90-90
			c0-49.626,40.374-90,90-90c49.626,0,90,40.374,90,90C452,319.626,411.626,360,362,360z"/>
	</g>
</g>
<g>
	<g>
		<path d="M347,420h-60c-8.284,0-15,6.716-15,15s6.716,15,15,15h60c8.284,0,15-6.716,15-15S355.284,420,347,420z"/>
	</g>
</g>
<g>
</g>
<g>
</g>
<g>
</g>
<g>
</g>
<g>
</g>
<g>
</g>
<g>
</g>
<g>
</g>
<g>
</g>
<g>
</g>
<g>
</g>
<g>
</g>
<g>
</g>
<g>
</g>
<g>
</g>
</svg>
