<?xml version="1.0" encoding="iso-8859-1"?>
<!-- Generator: Adobe Illustrator 19.0.0, SVG Export Plug-In . SVG Version: 6.00 Build 0)  -->
<svg version="1.1" id="Capa_1" xmlns="http://www.w3.org/2000/svg" xmlns:xlink="http://www.w3.org/1999/xlink" x="0px" y="0px"
	 viewBox="0 0 512 512" style="enable-background:new 0 0 512 512;" xml:space="preserve">
<g>
	<g>
		<path d="M406,0H106C81.187,0,61,20.187,61,45v422c0,24.813,20.187,45,45,45h300c24.813,0,45-20.187,45-45V45
			C451,20.187,430.813,0,406,0z M421,467c0,8.271-6.729,15-15,15H106c-8.271,0-15-6.729-15-15v-15h330V467z M421,422H91V90h330V422z
			 M421,60H91V45c0-8.271,6.729-15,15-15h300c8.271,0,15,6.729,15,15V60z"/>
	</g>
</g>
<g>
	<g>
		<path d="M376,211h-30c-11.426,0-21.864,4.288-29.809,11.33l-9.605-6.203C293.696,207.802,286,193.67,286,178.325V151
			c0-16.542-13.458-30-30-30c-33.084,0-60,26.916-60,60v30h-30.906c-28.422,0-49.691,26.005-44.126,53.825l18,90
			C143.16,375.786,161.718,391,183.094,391h69.154c14.929,0,29.659-2.455,43.782-7.297l17.928-6.146
			C322.125,385.848,333.471,391,346,391h30c8.284,0,15-6.716,15-15V226C391,217.716,384.284,211,376,211z M301.205,350.216
			l-14.904,5.109C275.316,359.091,263.86,361,252.249,361h-69.154c-7.125,0-13.312-5.071-14.709-12.058l-18-90
			c-1.858-9.29,5.252-17.942,14.709-17.942H211c8.284,0,15-6.716,15-15v-45c0-16.542,13.458-30,30-30v27.325
			c0,25.575,12.826,49.128,34.311,63.003l11.304,7.3c-0.397,2.4-0.614,4.861-0.614,7.372v90
			C301.001,347.422,301.075,348.827,301.205,350.216z M361,361h-15c-8.271,0-15-6.729-15-15v-90c0-8.271,6.729-15,15-15h15V361z"/>
	</g>
</g>
<g>
</g>
<g>
</g>
<g>
</g>
<g>
</g>
<g>
</g>
<g>
</g>
<g>
</g>
<g>
</g>
<g>
</g>
<g>
</g>
<g>
</g>
<g>
</g>
<g>
</g>
<g>
</g>
<g>
</g>
</svg>
