<?xml version="1.0" encoding="iso-8859-1"?>
<!-- Generator: Adobe Illustrator 19.0.0, SVG Export Plug-In . SVG Version: 6.00 Build 0)  -->
<svg xmlns="http://www.w3.org/2000/svg" xmlns:xlink="http://www.w3.org/1999/xlink" version="1.1" id="Capa_1" x="0px" y="0px" viewBox="0 0 512 512" style="enable-background:new 0 0 512 512;" xml:space="preserve">
<g>
	<g>
		<path d="M512,45V15c0-8.284-6.716-15-15-15H15C6.716,0,0,6.716,0,15v30c0,19.555,12.541,36.228,30,42.42V316    c0,24.813,20.187,45,45,45h166v63.58c-17.459,6.192-30,22.865-30,42.42c0,24.813,20.187,45,45,45s45-20.187,45-45    c0-19.555-12.541-36.228-30-42.42V361h32.056c7.24,51.37,51.09,91,103.944,91c57.897,0,105-47.551,105-106    c0-28.543-11.454-54.458-30-73.404V87.42C499.459,81.228,512,64.555,512,45z M256,482c-8.271,0-15-6.729-15-15s6.729-15,15-15    s15,6.729,15,15S264.271,482,256,482z M75,331c-8.271,0-15-6.729-15-15V90h392v161.145c-13.646-6.5-28.905-10.145-45-10.145    c-52.805,0-96.623,39.184-103.924,90H75z M407,422c-41.355,0-75-34.093-75-76c0-41.355,33.645-75,75-75c41.355,0,75,33.645,75,75    C482,387.907,448.355,422,407,422z M467,60H45c-8.271,0-15-6.729-15-15V30h452v15C482,53.271,475.271,60,467,60z"/>
	</g>
</g>
<g>
	<g>
		<path d="M437,331h-15v-15c0-8.284-6.716-15-15-15s-15,6.716-15,15v30c0,8.284,6.716,15,15,15h30c8.284,0,15-6.716,15-15    S445.284,331,437,331z"/>
	</g>
</g>
<g>
	<g>
		<path d="M376.995,119.999H347c-8.284,0-15,6.716-15,15c0,6.435,4.059,11.907,9.75,14.037l-85.662,85.662l-49.394-50.217    c-2.806-2.852-6.633-4.465-10.633-4.481c-0.021,0-0.041,0-0.062,0c-3.978,0-7.793,1.58-10.606,4.394l-61,61    c-5.858,5.858-5.858,15.355,0,21.213C127.322,269.536,131.161,271,135,271s7.678-1.464,10.606-4.394l50.306-50.305l49.394,50.217    c2.806,2.852,6.633,4.465,10.633,4.481c0.021,0,0.041,0,0.062,0c3.977,0.001,7.792-1.579,10.605-4.393l96.357-96.357    c2.13,5.691,7.603,9.75,14.037,9.75c8.284,0,15-6.716,15-15v-29.995C392.004,126.743,385.267,119.999,376.995,119.999z"/>
	</g>
</g>
<g>
</g>
<g>
</g>
<g>
</g>
<g>
</g>
<g>
</g>
<g>
</g>
<g>
</g>
<g>
</g>
<g>
</g>
<g>
</g>
<g>
</g>
<g>
</g>
<g>
</g>
<g>
</g>
<g>
</g>
</svg>
