<?xml version="1.0" encoding="iso-8859-1"?>
<!-- Generator: Adobe Illustrator 19.0.0, SVG Export Plug-In . SVG Version: 6.00 Build 0)  -->
<svg xmlns="http://www.w3.org/2000/svg" xmlns:xlink="http://www.w3.org/1999/xlink" version="1.1" id="Capa_1" x="0px" y="0px" viewBox="0 0 512 512" style="enable-background:new 0 0 512 512;" xml:space="preserve">
<g>
	<g>
		<path d="M467.177,61h-317.66c-2.872-14.372-9.854-27.66-20.363-38.412C114.914,8.022,96.038,0,76,0    C55.967,0,36.955,7.979,22.467,22.467C7.979,36.955,0,55.967,0,76c0,20.038,8.022,38.915,22.589,53.153    C37.001,143.241,55.97,151,76,151c36.22,0,66.522-25.808,73.491-60h317.597C475.449,91.05,482,97.56,482,105.823V226    c0,8.271-6.729,15-15,15h-23.787l4.394-4.394c5.858-5.858,5.858-15.355,0-21.213c-5.857-5.858-15.355-5.858-21.213,0l-30,30    c-5.858,5.858-5.858,15.355,0,21.213l30,30c5.857,5.858,15.356,5.858,21.213,0c5.858-5.858,5.858-15.355,0-21.213L443.213,271H467    c24.813,0,45-20.187,45-45V105.823C512,81.253,491.932,61.146,467.177,61z M76,121c-24.935,0-46-20.607-46-45    c0-24.935,21.065-46,46-46c24.393,0,45,21.065,45,46C121,100.813,100.813,121,76,121z"/>
	</g>
</g>
<g>
	<g>
		<path d="M256,151c-57.897,0-105,47.103-105,105c0,57.897,47.103,105,105,105c58.448,0,106-47.103,106-105    C362,198.103,314.448,151,256,151z M256,331c-41.355,0-75-33.645-75-75s33.645-75,75-75c41.906,0,76,33.645,76,75    S297.906,331,256,331z"/>
	</g>
</g>
<g>
	<g>
		<path d="M287,241h-16v-15c0-8.284-6.716-15-15-15s-15,6.716-15,15v30c0,8.284,6.716,15,15,15h31c8.284,0,15-6.716,15-15    S295.284,241,287,241z"/>
	</g>
</g>
<g>
	<g>
		<path d="M437,361c-36.22,0-66.522,25.808-73.491,60H45c-8.271,0-15-6.729-15-15V286c0-8.271,6.729-15,15-15h24.787l-4.394,4.394    c-5.858,5.858-5.858,15.355,0,21.213c5.857,5.858,15.356,5.858,21.213,0l30-30c5.858-5.858,5.858-15.355,0-21.213l-30-30    c-5.857-5.858-15.355-5.858-21.213,0c-5.858,5.858-5.858,15.355,0,21.213L69.787,241H45c-24.813,0-45,20.187-45,45v120    c0,24.813,20.187,45,45,45h318.484c6.775,33.905,36.668,61,73.516,61c41.463,0,75-34.534,75-76C512,394.645,478.355,361,437,361z     M437,482c-24.393,0-45-21.065-45-46c0-24.813,20.187-45,45-45s45,20.187,45,45C482,460.935,461.393,482,437,482z"/>
	</g>
</g>
<g>
</g>
<g>
</g>
<g>
</g>
<g>
</g>
<g>
</g>
<g>
</g>
<g>
</g>
<g>
</g>
<g>
</g>
<g>
</g>
<g>
</g>
<g>
</g>
<g>
</g>
<g>
</g>
<g>
</g>
</svg>
