<?xml version="1.0" encoding="iso-8859-1"?>
<!-- Generator: Adobe Illustrator 19.0.0, SVG Export Plug-In . SVG Version: 6.00 Build 0)  -->
<svg xmlns="http://www.w3.org/2000/svg" xmlns:xlink="http://www.w3.org/1999/xlink" version="1.1" id="Capa_1" x="0px" y="0px" viewBox="0 0 512 512" style="enable-background:new 0 0 512 512;" xml:space="preserve">
<g>
	<g>
		<path d="M256,0c-8.284,0-15,6.716-15,15v15.504C129.063,37.834,37.968,127.432,30.51,240H15c-8.284,0-15,6.716-15,15    c0,140.905,114.956,257,256,257c140.895,0,256-115.956,256-257C512,114.393,397.159,0,256,0z M256,150c8.284,0,15-6.716,15-15    v-14.162c26,2.887,49.792,13.186,69.216,28.733l-9.97,9.969c-5.858,5.858-5.858,15.356,0,21.213    c5.857,5.858,15.354,5.858,21.213,0l9.97-9.97C376.976,190.208,387.275,214,390.162,240H376c-8.284,0-15,6.716-15,15    s6.716,14.88,15,14.88h14.162c-2.887,26-13.186,49.912-28.733,69.336l-9.97-9.97c-5.857-5.857-15.355-5.857-21.213,0    c-5.858,5.858-5.858,15.355,0,21.213l9.97,9.969C320.792,375.976,297,386.275,271,389.162V375c0-8.284-6.716-15-15-15    s-15,6.716-15,15v14.162c-26-2.887-49.792-13.186-69.216-28.733l9.97-9.969c5.858-5.858,5.858-15.355,0-21.213    c-5.856-5.858-15.354-5.857-21.213,0l-9.97,9.97C135.024,319.792,124.725,296,121.838,270H136c8.284,0,15-6.716,15-15    s-6.716-15-15-15h-14.162c2.887-26,13.186-49.792,28.733-69.216l9.97,9.97c5.857,5.857,15.355,5.858,21.213,0    c5.858-5.858,5.858-15.355,0-21.213l-9.97-9.969C191.208,134.024,215,123.725,241,120.838V135C241,143.284,247.716,150,256,150z     M241,60.566v30.123C161.957,97.847,98.845,160.969,91.689,240H60.574C67.92,144.384,144.883,67.837,241,60.566z M256,482    c-119.597,0-217.795-93.801-225.512-212h61.201c7.61,84.038,78.464,150,164.311,150c90.981,0,165-74.056,165-165    c0-86.216-66.264-156.729-150-164.311V30.49C388.646,38.206,482,135.955,482,255C482,380.168,380.617,482,256,482z"/>
	</g>
</g>
<g>
	<g>
		<path d="M296.607,274.393L271,248.787V195c0-8.284-6.716-15-15-15s-15,6.716-15,15v60c0,3.978,1.58,7.793,4.394,10.606l30,30    c5.857,5.858,15.356,5.858,21.213,0C302.465,289.748,302.465,280.251,296.607,274.393z"/>
	</g>
</g>
<g>
</g>
<g>
</g>
<g>
</g>
<g>
</g>
<g>
</g>
<g>
</g>
<g>
</g>
<g>
</g>
<g>
</g>
<g>
</g>
<g>
</g>
<g>
</g>
<g>
</g>
<g>
</g>
<g>
</g>
</svg>
