<?xml version="1.0" encoding="iso-8859-1"?>
<!-- Generator: Adobe Illustrator 19.0.0, SVG Export Plug-In . SVG Version: 6.00 Build 0)  -->
<svg xmlns="http://www.w3.org/2000/svg" xmlns:xlink="http://www.w3.org/1999/xlink" version="1.1" id="Capa_1" x="0px" y="0px" viewBox="0 0 511.999 511.999" style="enable-background:new 0 0 511.999 511.999;" xml:space="preserve">
<g>
	<g>
		<path d="M510.019,489.558L389.014,276.895c-2.642-4.643-7.552-7.53-12.894-7.581c-5.324-0.026-10.307,2.744-13.036,7.334    l-50.541,85.026c-11.15-18.645-90.753-151.758-101.55-169.813v-40.852H345.98c5.18,0,9.994-2.674,12.732-7.071    c2.738-4.398,3.014-9.897,0.727-14.546l-26.713-54.319l26.67-53.342c2.325-4.65,2.077-10.171-0.656-14.593    c-2.733-4.422-7.561-7.113-12.759-7.113H195.996c-8.283,0-14.998,6.715-14.998,14.998v176.82L2.162,489.246    c-6.003,9.984,1.208,22.728,12.853,22.728c5.111,0,475.528,0,481.968,0C508.447,511.974,515.711,499.559,510.019,489.558z     M210.995,30.023h110.718l-19.144,38.288c-2.097,4.192-2.112,9.121-0.044,13.327l19.365,39.376H210.995V30.023z M195.962,225.169    l48.515,81.128l-18.483,18.482l-19.392-19.391c-5.856-5.857-15.353-5.857-21.211,0l-19.392,19.391l-18.695-18.695L195.962,225.169    z M41.537,481.976l89.838-149.4l24.02,24.02c5.856,5.857,15.353,5.857,21.211,0l19.392-19.391l19.392,19.391    c2.929,2.929,6.767,4.394,10.605,4.394s7.677-1.464,10.605-4.394l23.753-23.753c3.633,6.075,85.79,143.461,89.182,149.133H41.537z     M384.485,481.977l-54.439-91.036l45.649-76.799l95.497,167.835H384.485z"/>
	</g>
</g>
<g>
</g>
<g>
</g>
<g>
</g>
<g>
</g>
<g>
</g>
<g>
</g>
<g>
</g>
<g>
</g>
<g>
</g>
<g>
</g>
<g>
</g>
<g>
</g>
<g>
</g>
<g>
</g>
<g>
</g>
</svg>
