<?xml version="1.0" encoding="iso-8859-1"?>
<!-- Generator: Adobe Illustrator 19.0.0, SVG Export Plug-In . SVG Version: 6.00 Build 0)  -->
<svg xmlns="http://www.w3.org/2000/svg" xmlns:xlink="http://www.w3.org/1999/xlink" version="1.1" id="Capa_1" x="0px" y="0px" viewBox="0 0 512 512" style="enable-background:new 0 0 512 512;" xml:space="preserve">
<g>
	<g>
		<path d="M286,98h-15V83c0-8.284-6.716-15-15-15s-15,6.716-15,15v30c0,8.284,6.716,15,15,15h30c8.284,0,15-6.716,15-15    S294.284,98,286,98z"/>
	</g>
</g>
<g>
	<g>
		<path d="M497,218c-8.284,0-15,6.716-15,15c0,24.393-13.738,45-30,45c-0.236,0-0.471-0.012-0.706-0.02    c-5.401-57.889-41.698-109.242-94.885-134.251C359.391,134.005,361,123.688,361,113C361,55.103,313.897,8,256,8    c-57.897,0-105,47.103-105,105c0,6.445,0.587,12.755,1.704,18.882C132.873,110.473,105.035,98,76,98c-8.284,0-15,6.716-15,15    c0,0.588-0.001,55.927-0.114,85.249c-11.543,16.252-19.877,33.23-24.869,50.652C15.494,253.076,0,271.263,0,293v30    c0,24.813,20.187,44.9,45,44.9c0,0,1.603,0,3.98,0.002c13.327,26.242,33.178,48.692,57.02,64.359V459c0,24.813,20.187,45,45,45    s45-20.187,45-45h90c0,24.813,20.188,45,45.001,45c24.812,0,44.998-20.19,44.999-45.006v-26.412    c1.179-0.681,4.394-3.222,4.905-3.582c40.081-28.156,65.941-72.626,70.401-121.019c0.231,0.003,0.462,0.019,0.694,0.019    c16.612,0,32.584-8.592,43.819-23.574C506.254,270.515,512,252.251,512,233C512,224.716,505.284,218,497,218z M256,38    c41.355,0,75,33.645,75,75s-33.645,75-75,75c-41.355,0-75-33.645-75-75S214.645,38,256,38z M353.495,410.945    c-0.008,0.005-0.017,0.01-0.025,0.015c-0.002,0.001-0.003,0.002-0.006,0.003c-0.007,0.004-0.013,0.008-0.021,0.012    c-0.001,0-0.003,0.001-0.004,0.002c-4.831,2.822-7.521,7.946-7.433,13.219c-0.004,3.417-0.006,31.222-0.006,34.795    c-0.001,8.276-6.729,15.009-15,15.009s-15.001-6.729-15.001-15v-15.741c0-9.56-8.809-16.017-16.481-15.259H182.481    c-8.085-0.802-16.481,5.381-16.481,16v15c0,8.271-6.729,15-15,15s-15-6.729-15-15v-45.002c0-8.284-6.716-15-15-15    c-2.648,0-5.132,0.692-7.291,1.896c-17.69-13.865-32.128-32.498-41.477-53.882c-2.381-5.445-7.752-8.972-13.695-8.991    C52.047,338,45,338,45,338c-8.271,0-15-6.729-15-15v-30c0-8.271,6.729-15,15-15h2.998c7.134,0,13.28-5.024,14.7-12.016    c3.737-18.407,12.206-36.517,25.172-53.826c1.929-2.575,2.979-5.702,2.994-8.919c0.091-18.708,0.121-53.222,0.131-73.717    c18.118,3.735,34.263,14.221,45.659,30.015c3.876,5.371,10.815,7.564,17.073,5.396c3.094-1.072,6.264-2.013,9.479-2.842    c5.922,11.148,13.792,21.107,23.156,29.422C183.086,194.264,181,198.387,181,203c0,8.284,6.716,15,15,15h120    c8.284,0,15-6.716,15-15c0-4.613-2.086-8.736-5.363-11.488c6.833-6.067,12.87-13.009,17.936-20.651    C390.943,193.1,422,240.723,422,293C422,341.305,395.751,386.499,353.495,410.945z"/>
	</g>
</g>
<g>
	<g>
		<circle cx="106" cy="263" r="15"/>
	</g>
</g>
<g>
</g>
<g>
</g>
<g>
</g>
<g>
</g>
<g>
</g>
<g>
</g>
<g>
</g>
<g>
</g>
<g>
</g>
<g>
</g>
<g>
</g>
<g>
</g>
<g>
</g>
<g>
</g>
<g>
</g>
</svg>
