<?xml version="1.0" encoding="iso-8859-1"?>
<!-- Generator: Adobe Illustrator 19.0.0, SVG Export Plug-In . SVG Version: 6.00 Build 0)  -->
<svg xmlns="http://www.w3.org/2000/svg" xmlns:xlink="http://www.w3.org/1999/xlink" version="1.1" id="Capa_1" x="0px" y="0px" viewBox="0 0 512 512" style="enable-background:new 0 0 512 512;" xml:space="preserve">
<g>
	<g>
		<path d="M301,256c0,58.448,47.103,106,105,106c57.529,0,106-47.468,106-106c0-18.067-4.673-37.259-14.058-53.515L420.11,69.413    C410.592,29.094,373.084,0,331,0c-22.405,0-43.68,8.314-60,22.913V15c0-8.284-6.716-15-15-15s-15,6.716-15,15v7.914    C224.68,8.314,203.405,0,181,0c-42.15,0-79.606,29.156-89.11,69.413L14.016,202.558C4.729,218.644,0,237.814,0,256    c0,58.192,48.072,106,106,106c57.897,0,105-47.552,105-106c0-18.331-4.8-37.479-14.017-53.444L122.032,72.767    C129.621,48.049,154.041,30,181,30c15.256,0,29.725,5.791,40.698,15.92C215.033,53.77,211,63.92,211,75    c0,19.555,12.541,36.228,30,42.42V150h-15c-8.284,0-15,6.716-15,15s6.716,15,15,15h15v182h-45c-24.813,0-45,20.187-45,45v15h-45    c-24.813,0-45,20.187-45,45v30c0,8.284,6.716,15,15,15h360c8.284,0,15-6.716,15-15v-30c0-24.813-20.187-45-45-45h-45v-15    c0-24.813-20.187-45-45-45h-45V180h15c8.284,0,15-6.716,15-15s-6.716-15-15-15h-15v-32.58c17.459-6.192,30-22.865,30-42.42    c0-11.08-4.033-21.23-10.698-29.08C301.275,35.791,315.744,30,331,30c26.959,0,51.379,18.049,58.968,42.767l-74.953,129.791    C305.811,218.501,301,237.652,301,256z M181,256c0,41.906-33.645,76-75,76c-41.196,0-76-34.804-76-76c0-41.154,34.767-76,76-76    C147.362,180,181,214.115,181,256z M134.242,153.9c-8.99-2.538-18.461-3.9-28.242-3.9c-9.877,0-19.565,1.382-28.856,4.046    l28.773-49.194L134.242,153.9z M406,452c8.271,0,15,6.729,15,15v15H91v-15c0-8.271,6.729-15,15-15    C116.777,452,393.203,452,406,452z M316,392c8.271,0,15,6.729,15,15v15H181v-15c0-8.271,6.729-15,15-15H316z M256,90    c-8.271,0-15-6.729-15-15s6.729-15,15-15s15,6.729,15,15S264.271,90,256,90z M406.083,104.851l28.774,49.195    C425.566,151.383,415.877,150,406,150c-9.781,0-19.252,1.362-28.242,3.899L406.083,104.851z M406,180c41.241,0,76,34.852,76,76    c0,41.196-34.804,76-76,76c-41.355,0-75-34.094-75-76C331,214.138,364.616,180,406,180z"/>
	</g>
</g>
<g>
	<g>
		<path d="M436,241h-15v-16c0-8.284-6.716-15-15-15s-15,6.716-15,15v31c0,8.284,6.716,15,15,15h30c8.284,0,15-6.716,15-15    S444.284,241,436,241z"/>
	</g>
</g>
<g>
	<g>
		<path d="M136,241h-15v-16c0-8.284-6.716-15-15-15s-15,6.716-15,15v31c0,8.284,6.716,15,15,15h30c8.284,0,15-6.716,15-15    S144.284,241,136,241z"/>
	</g>
</g>
<g>
</g>
<g>
</g>
<g>
</g>
<g>
</g>
<g>
</g>
<g>
</g>
<g>
</g>
<g>
</g>
<g>
</g>
<g>
</g>
<g>
</g>
<g>
</g>
<g>
</g>
<g>
</g>
<g>
</g>
</svg>
