<?xml version="1.0" encoding="iso-8859-1"?>
<!-- Generator: Adobe Illustrator 19.0.0, SVG Export Plug-In . SVG Version: 6.00 Build 0)  -->
<svg xmlns="http://www.w3.org/2000/svg" xmlns:xlink="http://www.w3.org/1999/xlink" version="1.1" id="Capa_1" x="0px" y="0px" viewBox="0 0 512 512" style="enable-background:new 0 0 512 512;" xml:space="preserve">
<g>
	<g>
		<path d="M256,120c-90.981,0-165,74.019-165,165c0,8.284,6.716,15,15,15h150c8.284,0,15-6.716,15-15V135    C271,126.716,264.284,120,256,120z M241,270H121.828c6.938-62.478,56.693-112.233,119.172-119.172V270z"/>
	</g>
</g>
<g>
	<g>
		<path d="M446.918,115.295l10.607,10.606c5.856,5.858,15.354,5.858,21.213,0c5.858-5.858,5.858-15.355,0-21.213    c-5.105-5.105-37.254-37.254-42.426-42.427c-5.857-5.859-15.355-5.857-21.213,0c-5.858,5.858-5.858,15.355,0,21.213l10.606,10.606    l-21.647,21.647C375.232,90.482,339.931,72.458,301,64.524V30h15c8.284,0,15-6.716,15-15s-6.716-15-15-15H196    c-8.284,0-15,6.716-15,15s6.716,15,15,15h15v34.524c-38.931,7.934-74.232,25.958-103.059,51.204L86.294,94.081L96.9,83.474    c5.858-5.858,5.858-15.355,0-21.213c-5.857-5.858-15.355-5.858-21.213,0C70.519,67.43,38.42,99.53,33.262,104.688    c-5.858,5.858-5.858,15.355,0,21.213c5.857,5.858,15.355,5.858,21.213,0l10.606-10.607l21.647,21.646    C52.05,176.537,31,228.354,31,285c0,123.523,100.147,227,225,227c125.013,0,225-103.631,225-227    c0-56.646-21.05-108.463-55.728-148.059L446.918,115.295z M241,30h30v30.512C266.04,60.184,261.042,60,256,60    c-5.042,0-10.04,0.184-15,0.512V30z M451,285c0,108.626-87.477,197-195,197S61,393.626,61,285c0-107.523,87.477-195,195-195    S451,177.477,451,285z"/>
	</g>
</g>
<g>
</g>
<g>
</g>
<g>
</g>
<g>
</g>
<g>
</g>
<g>
</g>
<g>
</g>
<g>
</g>
<g>
</g>
<g>
</g>
<g>
</g>
<g>
</g>
<g>
</g>
<g>
</g>
<g>
</g>
</svg>
