<?xml version="1.0" encoding="iso-8859-1"?>
<!-- Generator: Adobe Illustrator 19.0.0, SVG Export Plug-In . SVG Version: 6.00 Build 0)  -->
<svg xmlns="http://www.w3.org/2000/svg" xmlns:xlink="http://www.w3.org/1999/xlink" version="1.1" id="Capa_1" x="0px" y="0px" viewBox="0 0 512 512" style="enable-background:new 0 0 512 512;" xml:space="preserve">
<g>
	<g>
		<path d="M47.09,75.275c-7.405-3.717-16.419-0.729-20.136,6.675C9.068,117.573,0,155.945,0,196    c0,30.798,5.461,60.928,16.231,89.555c2.916,7.749,11.562,11.677,19.322,8.758c7.753-2.917,11.674-11.568,8.757-19.321    C34.814,249.753,30,223.177,30,196c0-35.338,7.996-69.181,23.765-100.59C57.482,88.006,54.494,78.992,47.09,75.275z"/>
	</g>
</g>
<g>
	<g>
		<path d="M485.046,81.949c-3.718-7.404-12.73-10.391-20.136-6.675c-7.403,3.717-10.392,12.732-6.675,20.135    C474.004,126.819,482,160.662,482,196c0,27.177-4.814,53.753-14.31,78.991c-2.917,7.754,1.004,16.404,8.757,19.321    c7.761,2.92,16.406-1.009,19.322-8.757C506.539,256.928,512,226.798,512,196C512,155.945,502.932,117.573,485.046,81.949z"/>
	</g>
</g>
<g>
	<g>
		<path d="M83.445,139.413c-8.049-1.932-16.152,3.031-18.085,11.087C61.804,165.327,60,180.635,60,196    c0,11.839,1.075,23.704,3.196,35.268c1.495,8.15,9.313,13.543,17.46,12.048c8.148-1.495,13.542-9.312,12.048-17.46    C90.91,216.073,90,206.028,90,196c0-13.01,1.525-25.964,4.532-38.502C96.465,149.442,91.501,141.345,83.445,139.413z"/>
	</g>
</g>
<g>
	<g>
		<path d="M446.64,150.5c-1.933-8.056-10.029-13.02-18.085-11.087c-8.056,1.933-13.02,10.029-11.087,18.085    C420.475,170.036,422,182.99,422,196c0,10.028-0.91,20.073-2.704,29.855c-1.494,8.149,3.899,15.966,12.048,17.46    c8.172,1.498,15.969-3.922,17.46-12.048C450.925,219.704,452,207.839,452,196C452,180.635,450.196,165.327,446.64,150.5z"/>
	</g>
</g>
<g>
	<g>
		<path d="M407,361c-5.4,0-7.038-1.646-7.737-2.349c-7.876-7.916-6.832-37.059-7.263-43.639V196    c0-61.914-41.92-113.241-96.21-130.015C299.11,59.715,301,52.576,301,45c0-24.813-20.187-45-45-45s-45,20.187-45,45    c0,7.576,1.89,14.715,5.21,20.985C161.934,82.755,120,134.066,120,196c0,0,0.038,99.982,0.062,105    c0.124,25.517-0.094,50.383-7.325,57.65C112.038,359.354,110.4,361,105,361c-24.813,0-45,20.187-45,45v31c0,8.284,6.716,15,15,15    h107.509c6.968,34.192,37.271,60,73.491,60c36.22,0,66.522-25.808,73.491-60H437c8.284,0,15-6.716,15-15v-31    C452,381.187,431.813,361,407,361z M256,30c8.271,0,15,6.729,15,15s-6.729,15-15,15s-15-6.729-15-15S247.729,30,256,30z M150,196    c0-58.449,47.552-106,106-106s106,47.551,106,106c0,0,0.005,103.947,0,105H150V196z M149.639,331H362.36    c0.577,11.295,1.866,21.374,4.663,30H144.976C147.773,352.374,149.063,342.295,149.639,331z M256,482    c-19.555,0-36.228-12.641-42.42-30.1h84.84C292.228,469.359,275.555,482,256,482z M422,422H90v-16c0-8.271,6.729-15,15-15h302    c8.271,0,15,6.729,15,15V422z"/>
	</g>
</g>
<g>
</g>
<g>
</g>
<g>
</g>
<g>
</g>
<g>
</g>
<g>
</g>
<g>
</g>
<g>
</g>
<g>
</g>
<g>
</g>
<g>
</g>
<g>
</g>
<g>
</g>
<g>
</g>
<g>
</g>
</svg>
