<?xml version="1.0" encoding="iso-8859-1"?>
<!-- Generator: Adobe Illustrator 19.0.0, SVG Export Plug-In . SVG Version: 6.00 Build 0)  -->
<svg xmlns="http://www.w3.org/2000/svg" xmlns:xlink="http://www.w3.org/1999/xlink" version="1.1" id="Capa_1" x="0px" y="0px" viewBox="0 0 512 512" style="enable-background:new 0 0 512 512;" xml:space="preserve">
<g>
	<g>
		<path d="M296.607,155.393L271,129.787V75c0-8.284-6.716-15-15-15s-15,6.716-15,15v60.995c-0.002,4.004,1.642,7.861,4.396,10.613    l29.998,29.998c5.857,5.858,15.355,5.858,21.213,0C302.465,170.748,302.465,161.251,296.607,155.393z"/>
	</g>
</g>
<g>
	<g>
		<path d="M452,363.509V347c0-24.813-20.187-45-45-45H271v-30.844c67.406-7.542,120-65.273,120-135.156C391,61.009,330.439,0,256,0    S121,61.009,121,136c0,69.883,52.594,127.614,120,135.156V302H105c-24.813,0-45,20.187-45,45v16.509    C25.808,370.478,0,400.78,0,437c0,41.355,33.645,75,75,75s75-33.645,75-75c0-36.22-25.808-66.522-60-73.491V347    c0-8.271,6.729-15,15-15h136v31.509c-34.192,6.968-60,37.271-60,73.491c0,41.355,33.645,75,75,75s75-33.645,75-75    c0-36.22-25.808-66.522-60-73.491V332h136c8.271,0,15,6.729,15,15v16.509c-34.192,6.968-60,37.271-60,73.491    c0,41.355,33.645,75,75,75c41.355,0,75-33.645,75-75C512,400.78,486.192,370.478,452,363.509z M120,437c0,24.813-20.187,45-45,45    s-45-20.187-45-45s20.187-45,45-45S120,412.187,120,437z M301,437c0,24.813-20.187,45-45,45s-45-20.187-45-45s20.187-45,45-45    S301,412.187,301,437z M256,242c-57.897,0-105-47.552-105-106c0-58.449,47.103-106,105-106c57.897,0,105,47.551,105,106    C361,194.448,313.897,242,256,242z M437,482c-24.813,0-45-20.187-45-45s20.187-45,45-45s45,20.187,45,45S461.813,482,437,482z"/>
	</g>
</g>
<g>
</g>
<g>
</g>
<g>
</g>
<g>
</g>
<g>
</g>
<g>
</g>
<g>
</g>
<g>
</g>
<g>
</g>
<g>
</g>
<g>
</g>
<g>
</g>
<g>
</g>
<g>
</g>
<g>
</g>
</svg>
