<?xml version="1.0" encoding="iso-8859-1"?>
<!-- Generator: Adobe Illustrator 19.0.0, SVG Export Plug-In . SVG Version: 6.00 Build 0)  -->
<svg xmlns="http://www.w3.org/2000/svg" xmlns:xlink="http://www.w3.org/1999/xlink" version="1.1" id="Capa_1" x="0px" y="0px" viewBox="0 0 512 512" style="enable-background:new 0 0 512 512;" xml:space="preserve">
<g>
	<g>
		<path d="M256,91c-90.981,0-165,74.019-165,165s74.019,165,165,165s165-74.019,165-165S346.981,91,256,91z M256,391    c-74.439,0-135-60.561-135-135s60.561-135,135-135s135,60.561,135,135S330.439,391,256,391z"/>
	</g>
</g>
<g>
	<g>
		<path d="M301,196c-17.908,0-33.997,7.896-45,20.377C244.997,203.896,228.908,196,211,196c-33.084,0-60,26.916-60,60    s26.916,60,60,60c17.908,0,33.997-7.896,45-20.377C267.003,308.104,283.092,316,301,316c33.084,0,60-26.916,60-60    S334.084,196,301,196z M211,286c-16.542,0-30-13.458-30-30s13.458-30,30-30s30,13.458,30,30S227.542,286,211,286z M301,286    c-16.542,0-30-13.458-30-30s13.458-30,30-30s30,13.458,30,30S317.542,286,301,286z"/>
	</g>
</g>
<g>
	<g>
		<path d="M256,0c-8.284,0-15,6.716-15,15s6.716,15,15,15c124.617,0,226,101.383,226,226S380.617,482,256,482S30,380.617,30,256    c0-60.357,25.37-118.632,69.017-161.036V121c0,8.284,6.716,15,15,15S129,129.284,129,121V61c0-8.284-6.699-15-14.983-15H53.5    c-8.284,0-15,6.716-15,15s6.716,14.9,15,14.9h22.012C25.496,125.831,0,191.028,0,256c0,140.74,115.209,256,256,256    c140.741,0,256-115.209,256-256C512,115.259,396.791,0,256,0z"/>
	</g>
</g>
<g>
</g>
<g>
</g>
<g>
</g>
<g>
</g>
<g>
</g>
<g>
</g>
<g>
</g>
<g>
</g>
<g>
</g>
<g>
</g>
<g>
</g>
<g>
</g>
<g>
</g>
<g>
</g>
<g>
</g>
</svg>
