<?xml version="1.0" encoding="iso-8859-1"?>
<!-- Generator: Adobe Illustrator 19.0.0, SVG Export Plug-In . SVG Version: 6.00 Build 0)  -->
<svg xmlns="http://www.w3.org/2000/svg" xmlns:xlink="http://www.w3.org/1999/xlink" version="1.1" id="Capa_1" x="0px" y="0px" viewBox="0 0 512.001 512.001" style="enable-background:new 0 0 512.001 512.001;" xml:space="preserve">
<g>
	<g>
		<path d="M299.681,240h-36.214l-38.035-38.319c-5.858-5.857-15.356-5.857-21.213,0c-5.858,5.858-5.857,15.356,0,21.213    l42.429,42.426c0.016,0.016,0.033,0.029,0.049,0.045c2.898,2.869,6.807,4.635,10.557,4.635h42.427c8.284,0,15-6.716,15-15    C314.681,246.716,307.965,240,299.681,240z"/>
	</g>
</g>
<g>
	<g>
		<path d="M498.927,392.877l-59.974-62.479l-46.723-77.873c-0.311-19.709-4.819-38.732-13.105-56.042l16.018-16.018    c17.546-17.545,17.546-46.095,0-63.64c-17.544-17.545-46.095-17.546-63.641,0l-16.067,16.067    c-17.637-8.403-36.733-12.768-55.886-13.091l-77.98-46.788l-62.462-59.958C101.55-4.369,73.091-4.33,55.587,13.175L13.159,55.603    c-17.545,17.545-17.545,46.094,0,63.64c0.072,0.072,0.146,0.144,0.22,0.215l62.334,59.835l46.629,77.716    c0.57,33.802,13.714,67.429,39.451,93.166c25.74,25.74,59.36,38.882,93.166,39.451l77.714,46.629l59.853,62.352    c0.071,0.074,0.143,0.147,0.215,0.219c17.546,17.546,46.098,17.542,63.641,0l42.427-42.427    C516.34,438.867,516.417,410.493,498.927,392.877z M352.715,138.039c5.849-5.848,15.363-5.849,21.214,0    c5.849,5.849,5.849,15.365,0,21.213l-11.193,11.193c-3.114-3.882-6.451-7.623-10.021-11.193    c-3.585-3.585-7.328-6.917-11.199-10.015L352.715,138.039z M34.282,97.938c-5.758-5.855-5.728-15.303,0.09-21.121L76.8,34.389    c5.849-5.848,15.365-5.848,21.213,0c0.072,0.072,0.146,0.144,0.219,0.214l52.734,50.62L87.33,148.859L34.282,97.938z     M106.435,172.185l68.29-68.291l38.626,23.175c-18.849,6.449-36.547,17.172-51.557,32.184    c-15.011,15.011-25.734,32.709-32.184,51.558L106.435,172.185z M183.006,328.962c-40.941-40.941-40.941-107.556,0-148.496    c40.94-40.939,107.554-40.941,148.496,0c41.037,41.037,41.04,107.455,0,148.496C290.526,369.935,223.912,369.866,183.006,328.962z     M301.156,382.358c18.85-6.45,36.55-17.173,51.56-32.183c14.747-14.747,25.654-32.31,32.237-51.47l23.123,38.539l-68.292,68.29    L301.156,382.358z M477.594,435.184l-42.427,42.427c-5.817,5.818-15.268,5.849-21.124,0.089l-50.936-53.062L426.743,361    l50.636,52.751c0.07,0.074,0.143,0.146,0.215,0.219C483.457,419.834,483.457,429.321,477.594,435.184z"/>
	</g>
</g>
<g>
</g>
<g>
</g>
<g>
</g>
<g>
</g>
<g>
</g>
<g>
</g>
<g>
</g>
<g>
</g>
<g>
</g>
<g>
</g>
<g>
</g>
<g>
</g>
<g>
</g>
<g>
</g>
<g>
</g>
</svg>
