<?xml version="1.0" encoding="iso-8859-1"?>
<!-- Generator: Adobe Illustrator 19.0.0, SVG Export Plug-In . SVG Version: 6.00 Build 0)  -->
<svg xmlns="http://www.w3.org/2000/svg" xmlns:xlink="http://www.w3.org/1999/xlink" version="1.1" id="Capa_1" x="0px" y="0px" viewBox="0 0 512 512" style="enable-background:new 0 0 512 512;" xml:space="preserve">
<g>
	<g>
		<path d="M296.607,380.393L271,354.787L270.998,301c0-8.284-6.716-15-15-15S241,292.716,241,301v60    c0,0.018,0.003,0.035,0.003,0.052c0.013,4.049,1.691,7.854,4.394,10.557l29.997,29.997c5.857,5.858,15.356,5.858,21.213,0    C302.465,395.748,302.465,386.251,296.607,380.393z"/>
	</g>
</g>
<g>
	<g>
		<path d="M467,16H45C20.187,16,0,36.187,0,61v300c0,24.813,20.187,45,45,45h83.722c18.574,52.38,68.611,90,127.278,90    s108.704-37.62,127.278-90H467c24.813,0,45-20.187,45-45V61C512,36.187,491.813,16,467,16z M256,466c-57.897,0-105-47.103-105-105    c0-57.897,47.103-105,105-105c57.897,0,105,47.103,105,105C361,418.897,313.897,466,256,466z M482,361c0,8.271-6.729,15-15,15    h-76.838c0.547-4.927,0.838-9.93,0.838-15c0-74.439-60.561-135-135-135s-135,60.561-135,135c0,5.07,0.291,10.073,0.838,15H45    c-8.271,0-15-6.729-15-15V61c0-8.271,6.729-15,15-15h422c8.271,0,15,6.729,15,15V361z"/>
	</g>
</g>
<g>
	<g>
		<path d="M437,76h-91c-8.284,0-15,6.716-15,15v90c0,8.284,6.716,15,15,15h91c8.284,0,15-6.716,15-15V91    C452,82.716,445.284,76,437,76z M422,166h-61v-60h61V166z"/>
	</g>
</g>
<g>
	<g>
		<path d="M226,76H75c-8.284,0-15,6.716-15,15s6.716,15,15,15h151c8.284,0,15-6.716,15-15S234.284,76,226,76z"/>
	</g>
</g>
<g>
	<g>
		<path d="M226,136H75c-8.284,0-15,6.716-15,15s6.716,15,15,15h151c8.284,0,15-6.716,15-15S234.284,136,226,136z"/>
	</g>
</g>
<g>
</g>
<g>
</g>
<g>
</g>
<g>
</g>
<g>
</g>
<g>
</g>
<g>
</g>
<g>
</g>
<g>
</g>
<g>
</g>
<g>
</g>
<g>
</g>
<g>
</g>
<g>
</g>
<g>
</g>
</svg>
