<?xml version="1.0" encoding="iso-8859-1"?>
<!-- Generator: Adobe Illustrator 19.0.0, SVG Export Plug-In . SVG Version: 6.00 Build 0)  -->
<svg xmlns="http://www.w3.org/2000/svg" xmlns:xlink="http://www.w3.org/1999/xlink" version="1.1" id="Capa_1" x="0px" y="0px" viewBox="0 0 512 512" style="enable-background:new 0 0 512 512;" xml:space="preserve">
<g>
	<g>
		<path d="M391,196c0-74.991-60.561-136-135-136s-135,61.009-135,136c0,69.883,52.594,127.614,120,135.156v33.424    c-17.459,6.192-30,22.865-30,42.42c0,24.813,20.187,45,45,45s45-20.187,45-45c0-19.555-12.541-36.228-30-42.42v-33.424    C338.406,323.614,391,265.883,391,196z M256,422c-8.271,0-15-6.729-15-15s6.729-15,15-15s15,6.729,15,15S264.271,422,256,422z     M256,302c-57.897,0-105-47.551-105-106c0-58.449,47.103-106,105-106c57.897,0,105,47.551,105,106    C361,254.449,313.897,302,256,302z"/>
	</g>
</g>
<g>
	<g>
		<path d="M296.606,215.393L271,189.787L270.998,135c0-8.284-6.716-15-15-15S241,126.716,241,135v61    c0,4.075,1.716,7.931,4.396,10.609l29.997,29.997c5.857,5.858,15.356,5.858,21.213,0    C302.464,230.748,302.464,221.251,296.606,215.393z"/>
	</g>
</g>
<g>
	<g>
		<path d="M256,0C148.477,0,61,87.925,61,196v271c0,24.813,20.187,45,45,45h300c24.813,0,45-20.187,45-45V196    C451,87.925,363.523,0,256,0z M421,467c0,8.271-6.729,15-15,15H106c-8.271,0-15-6.729-15-15V196c0-91.533,74.019-166,165-166    s165,74.467,165,166V467z"/>
	</g>
</g>
<g>
</g>
<g>
</g>
<g>
</g>
<g>
</g>
<g>
</g>
<g>
</g>
<g>
</g>
<g>
</g>
<g>
</g>
<g>
</g>
<g>
</g>
<g>
</g>
<g>
</g>
<g>
</g>
<g>
</g>
</svg>
