<?xml version="1.0" encoding="iso-8859-1"?>
<!-- Generator: Adobe Illustrator 19.0.0, SVG Export Plug-In . SVG Version: 6.00 Build 0)  -->
<svg xmlns="http://www.w3.org/2000/svg" xmlns:xlink="http://www.w3.org/1999/xlink" version="1.1" id="Capa_1" x="0px" y="0px" viewBox="0 0 512.001 512.001" style="enable-background:new 0 0 512.001 512.001;" xml:space="preserve">
<g>
	<g>
		<path d="M509.156,247.211c-1.149-1.59-28.663-39.377-73.179-77.593C385.398,126.197,322.903,91,256,91    c-66.921,0-129.421,35.217-179.976,78.619c-44.516,38.216-72.03,76.003-73.18,77.593c-3.792,5.245-3.792,12.332,0,17.577    c1.15,1.589,28.664,39.377,73.18,77.592C126.601,385.802,189.098,421,256,421c66.923,0,129.421-35.217,179.977-78.619    c44.516-38.216,72.029-76.003,73.179-77.593C512.949,259.542,512.949,252.456,509.156,247.211z M417.001,319.066    C375.292,355.028,318.06,391,256,391c-63.672,0-122.116-38.583-159.933-70.951c-29.614-25.347-51.613-51.004-62.093-64.044    C44.316,243.158,65.872,218.049,95,192.934C136.708,156.972,193.94,121,256,121c63.673,0,122.116,38.583,159.933,70.951    c29.612,25.345,51.609,51.001,62.093,64.044C467.685,268.842,446.129,293.952,417.001,319.066z"/>
	</g>
</g>
<g>
	<g>
		<path d="M256,151c-57.897,0-105,47.103-105,105c0,57.897,47.103,105,105,105c57.897,0,105-47.103,105-105    C361,198.103,313.897,151,256,151z M256,331c-41.355,0-75-33.645-75-75c0-41.355,33.645-75,75-75c41.355,0,75,33.645,75,75    S297.355,331,256,331z"/>
	</g>
</g>
<g>
	<g>
		<path d="M286,241h-15v-15c0-8.284-6.716-15-15-15s-15,6.716-15,15v30c0,8.284,6.716,15,15,15h30c8.284,0,15-6.716,15-15    S294.284,241,286,241z"/>
	</g>
</g>
<g>
</g>
<g>
</g>
<g>
</g>
<g>
</g>
<g>
</g>
<g>
</g>
<g>
</g>
<g>
</g>
<g>
</g>
<g>
</g>
<g>
</g>
<g>
</g>
<g>
</g>
<g>
</g>
<g>
</g>
</svg>
