<?xml version="1.0" encoding="iso-8859-1"?>
<!-- Generator: Adobe Illustrator 19.0.0, SVG Export Plug-In . SVG Version: 6.00 Build 0)  -->
<svg xmlns="http://www.w3.org/2000/svg" xmlns:xlink="http://www.w3.org/1999/xlink" version="1.1" id="Capa_1" x="0px" y="0px" viewBox="0 0 512.001 512.001" style="enable-background:new 0 0 512.001 512.001;" xml:space="preserve">
<g>
	<g>
		<path d="M420.986,325.593c-0.036-13.36,0-12.491,0-39.596c0-24.813-20.187-44.999-44.999-44.999    c-5.857,0-11.449,1.136-16.586,3.181c-5.205-19.096-22.691-33.181-43.413-33.181c-5.857,0-11.449,1.136-16.586,3.181    c-5.205-19.096-22.691-33.181-43.413-33.181c-5.258,0-10.305,0.915-15,2.58v-60.551l36.68,24.453    c6.897,4.597,16.209,2.729,20.801-4.161c4.596-6.893,2.733-16.206-4.16-20.801l-14.271-9.514    c12.579-7.988,20.95-22.033,20.95-38.005c0-24.813-20.187-44.999-44.999-44.999c-7.057,0-13.588,1.782-16.571,3.236    C234.231,14.112,216.73,0,195.989,0c-20.924,0-38.557,14.356-43.571,33.735c-1.836-1.016-3.019-1.757-5.155-2.308    C118.699,24.052,90.99,45.739,90.99,74.999c0,15.972,8.372,30.017,20.95,38.005l-14.271,9.514    c-6.893,4.596-8.756,13.909-4.161,20.801c4.595,6.892,13.909,8.755,20.801,4.161l36.68-24.453v117.97h-15    c-24.813,0-44.999,20.187-44.999,44.999v22.918c0,81.211,28.19,128.013,61.575,194.788c2.54,5.08,7.732,8.29,13.412,8.292    c39.794,0.013,103.312,0.005,210.01,0c5.682,0,10.876-3.21,13.417-8.292C421.324,439.855,421.172,394.399,420.986,325.593z     M252.024,60.524c9.555-2.606,18.963,4.62,18.963,14.475c0,9.847-9.397,17.083-18.963,14.475    c-11.651-6.593-12.844-7.268-25.579-14.475C226.445,74.999,252.023,60.525,252.024,60.524z M180.989,44.999    c0-8.271,6.729-15,15-15c8.271,0,15,6.729,15,15v4.277l-15.08,8.534l-14.92-8.259V44.999z M138.212,89.837    c-9.153,1.349-17.224-5.762-17.224-14.838c0-9.086,8.081-16.186,17.224-14.838c10.163,5.626,16.645,9.214,26.805,14.838    C154.857,80.623,148.377,84.21,138.212,89.837z M366.57,481.993c-83.427,0.004-148.728,0.011-191.339,0.002    c-31.088-61.582-54.242-102.747-54.242-173.082v-22.918c0-8.271,6.729-15,15-15h15v42.183c0,8.284,6.716,15,15,15s15-6.716,15-15    V103.027l15-10l15,10c0,10.32,0,172.888,0,182.969c0,8.284,6.716,15,15,15s15-6.716,15-15v-59.999c0-8.271,6.729-15,15-15    c8.271,0,15,6.729,15,15c0,9.497,0,80.291,0,89.999c0,8.284,6.716,15,15,15s15-6.716,15-15c0-6.359,0-53.64,0-59.999    c0-8.271,6.729-15,15-15c8.271,0,15,6.729,15,15c0,6.359,0,53.64,0,59.999c0,8.284,6.716,15,15,15s15-6.716,15-15v-30    c0-8.271,6.729-15,15-15s15,6.729,15,15v39.677C391.157,389.227,391.294,428.815,366.57,481.993z"/>
	</g>
</g>
<g>
</g>
<g>
</g>
<g>
</g>
<g>
</g>
<g>
</g>
<g>
</g>
<g>
</g>
<g>
</g>
<g>
</g>
<g>
</g>
<g>
</g>
<g>
</g>
<g>
</g>
<g>
</g>
<g>
</g>
</svg>
