<?xml version="1.0" encoding="iso-8859-1"?>
<!-- Generator: Adobe Illustrator 19.0.0, SVG Export Plug-In . SVG Version: 6.00 Build 0)  -->
<svg xmlns="http://www.w3.org/2000/svg" xmlns:xlink="http://www.w3.org/1999/xlink" version="1.1" id="Capa_1" x="0px" y="0px" viewBox="0 0 512.001 512.001" style="enable-background:new 0 0 512.001 512.001;" xml:space="preserve">
<g>
	<g>
		<path d="M256,0.001c-47.402,0-93.851,13.689-135.104,39.683l-35.29-35.29c-4.29-4.29-10.743-5.573-16.347-3.251    C63.655,3.464,60,8.934,60,15.001v45H15c-6.067,0-11.537,3.655-13.858,9.26c-2.321,5.605-1.038,12.057,3.252,16.347l35.29,35.29    C13.689,162.15,0,208.599,0,256.001c0,140.969,115.05,256,256,256c140.97,0,256-115.049,256-256    C512,115.03,396.951,0.001,256,0.001z M75,90.001c8.284,0,15-6.716,15-15V51.214l61,61v38.787h-38.787l-61-61H75z M256,391.001    c74.439,0,135-60.561,135-135c0-74.439-60.561-135-135-135c-27.732,0-53.534,8.409-75,22.806v-34.734    c23.132-11.845,48.814-18.071,75-18.071c90.981,0,165,74.019,165,165s-74.019,165-165,165s-165-74.019-165-165    c0-26.187,6.227-51.87,18.072-75.001h34.734c-14.396,21.466-22.806,47.268-22.806,75C121,330.44,181.561,391.001,256,391.001z     M256,331.001c41.355,0,75-33.645,75-75c0-41.355-33.645-75-75-75c-15.264,0-29.47,4.594-41.329,12.458l-21.52-21.52    c17.535-13.143,39.299-20.938,62.849-20.938c57.897,0,105,47.103,105,105c0,57.897-47.103,105-105,105s-105-47.103-105-105    c0-23.551,7.795-45.315,20.938-62.85l21.52,21.52C185.595,226.53,181,240.736,181,256.001    C181,297.356,214.645,331.001,256,331.001z M266.607,245.394l-29.996-29.996C242.486,212.581,249.061,211,256,211    c24.813,0,45,20.187,45,45s-20.187,45-45,45s-45-20.187-45-45c0-6.939,1.581-13.514,4.398-19.389l29.996,29.996    c5.857,5.857,15.355,5.858,21.213,0C272.465,260.749,272.465,251.252,266.607,245.394z M256,482.001    c-124.617,0-226-101.383-226-226c0-39.496,10.844-78.317,31.502-113.286l22.144,22.144C68.803,192.849,61,224.115,61,256.001    c0,107.523,87.477,195,195,195s195-87.477,195-195s-87.477-195-195-195c-31.886,0-63.152,7.802-91.141,22.646l-22.144-22.144    C177.684,40.844,216.504,30.001,256,30.001c124.617,0,226,101.383,226,226S380.617,482.001,256,482.001z"/>
	</g>
</g>
<g>
</g>
<g>
</g>
<g>
</g>
<g>
</g>
<g>
</g>
<g>
</g>
<g>
</g>
<g>
</g>
<g>
</g>
<g>
</g>
<g>
</g>
<g>
</g>
<g>
</g>
<g>
</g>
<g>
</g>
</svg>
