<?xml version="1.0" encoding="iso-8859-1"?>
<!-- Generator: Adobe Illustrator 19.0.0, SVG Export Plug-In . SVG Version: 6.00 Build 0)  -->
<svg xmlns="http://www.w3.org/2000/svg" xmlns:xlink="http://www.w3.org/1999/xlink" version="1.1" id="Capa_1" x="0px" y="0px" viewBox="0 0 512 512" style="enable-background:new 0 0 512 512;" xml:space="preserve">
<g>
	<g>
		<path d="M467,30h-15V15c0-8.284-6.716-15-15-15s-15,6.716-15,15v15h-60V15c0-8.284-6.716-15-15-15s-15,6.716-15,15v15h-61V15    c0-8.284-6.716-15-15-15s-15,6.716-15,15v15h-61V15c0-8.284-6.716-15-15-15s-15,6.716-15,15v15H90V15c0-8.284-6.716-15-15-15    S60,6.716,60,15v15H45C20.187,30,0,50.187,0,75v392c0,24.813,20.187,45,45,45h422c24.813,0,45-20.187,45-45V75    C512,50.187,491.813,30,467,30z M482,467c0,8.271-6.729,15-15,15H45c-8.271,0-15-6.729-15-15v-15h452V467z M482,422H30V150h452    V422z M482,120H30V75c0-8.271,6.729-15,15-15h15v15c0,8.284,6.716,15,15,15s15-6.716,15-15V60h60v15c0,8.284,6.716,15,15,15    s15-6.716,15-15V60h61v15c0,8.284,6.716,15,15,15s15-6.716,15-15V60h61v15c0,8.284,6.716,15,15,15s15-6.716,15-15V60h60v15    c0,8.284,6.716,15,15,15s15-6.716,15-15V60h15c8.271,0,15,6.729,15,15V120z"/>
	</g>
</g>
<g>
	<g>
		<path d="M437,180H75c-8.284,0-15,6.716-15,15v182c0,8.284,6.716,15,15,15h362c8.284,0,15-6.716,15-15V195    C452,186.716,445.284,180,437,180z M150,362H90v-61h60V362z M150,271H90v-61h60V271z M241,362h-61v-61h61V362z M241,271h-61v-61    h61V271z M332,362h-61v-61h61V362z M332,271h-61v-61h61V271z M422,362h-60v-61h60V362z M422,271h-60v-61h60V271z"/>
	</g>
</g>
<g>
</g>
<g>
</g>
<g>
</g>
<g>
</g>
<g>
</g>
<g>
</g>
<g>
</g>
<g>
</g>
<g>
</g>
<g>
</g>
<g>
</g>
<g>
</g>
<g>
</g>
<g>
</g>
<g>
</g>
</svg>
