<?xml version="1.0" encoding="iso-8859-1"?>
<!-- Generator: Adobe Illustrator 19.0.0, SVG Export Plug-In . SVG Version: 6.00 Build 0)  -->
<svg xmlns="http://www.w3.org/2000/svg" xmlns:xlink="http://www.w3.org/1999/xlink" version="1.1" id="Capa_1" x="0px" y="0px" viewBox="0 0 512 512" style="enable-background:new 0 0 512 512;" xml:space="preserve">
<g>
	<g>
		<path d="M446.606,335.394c-5.857-5.858-15.355-5.858-21.213,0L361,399.787l-23.611-23.612c-5.856-5.858-15.354-5.858-21.213,0    c-5.858,5.858-5.858,15.355,0,21.213l34.218,34.218C353.206,434.42,357.021,436,361,436s7.794-1.58,10.606-4.393l75-75    C452.464,350.749,452.464,341.252,446.606,335.394z"/>
	</g>
</g>
<g>
	<g>
		<path d="M136,0C61.354,0,0,61.379,0,136c0,74.439,61.009,135,136,135c74.439,0,135-60.561,135-135C271,61.009,210.439,0,136,0z     M136,241c-58.449,0-106-47.103-106-105C30,77.551,77.551,30,136,30c57.897,0,105,47.551,105,106C241,193.897,193.897,241,136,241    z"/>
	</g>
</g>
<g>
	<g>
		<path d="M376,241c-74.439,0-135,60.561-135,135c0,74.991,60.561,136,135,136c74.509,0,136-61.226,136-136    C512,301.561,450.99,241,376,241z M376,482c-57.897,0-105-47.552-105-106c0-57.897,47.103-105,105-105    c58.448,0,106,47.103,106,105C482,434.448,434.448,482,376,482z"/>
	</g>
</g>
<g>
	<g>
		<path d="M176.607,155.394L151,129.785V76.001c0-8.284-6.715-15-15-15.001c-8.284,0-15,6.716-15,14.999v60    c0,3.776,1.503,7.732,4.419,10.633l29.975,29.975c5.857,5.858,15.355,5.858,21.213,0    C182.465,170.749,182.465,161.252,176.607,155.394z"/>
	</g>
</g>
<g>
	<g>
		<path d="M211,451H106c-8.271,0-15-6.729-15-15v-83.787l4.394,4.394c5.857,5.857,15.355,5.858,21.213,0    c5.858-5.858,5.858-15.355,0-21.213l-30-30c-5.857-5.858-15.355-5.858-21.213,0l-30,30c-5.858,5.858-5.858,15.355,0,21.213    c5.857,5.858,15.355,5.858,21.213,0L61,352.213V436c0,24.813,20.187,45,45,45h105c8.284,0,15-6.716,15-15S219.284,451,211,451z"/>
	</g>
</g>
<g>
	<g>
		<path d="M476.606,155.393c-5.857-5.858-15.355-5.858-21.213,0L451,159.787V76c0-24.813-20.187-45-45-45H301    c-8.284,0-15,6.716-15,15s6.716,15,15,15h105c8.271,0,15,6.729,15,15v83.787l-4.394-4.394c-5.857-5.858-15.355-5.858-21.213,0    c-5.858,5.858-5.858,15.355,0,21.213l30,30c5.857,5.857,15.355,5.858,21.213,0l30-30    C482.464,170.748,482.464,161.251,476.606,155.393z"/>
	</g>
</g>
<g>
</g>
<g>
</g>
<g>
</g>
<g>
</g>
<g>
</g>
<g>
</g>
<g>
</g>
<g>
</g>
<g>
</g>
<g>
</g>
<g>
</g>
<g>
</g>
<g>
</g>
<g>
</g>
<g>
</g>
</svg>
