<?xml version="1.0" encoding="iso-8859-1"?>
<!-- Generator: Adobe Illustrator 19.0.0, SVG Export Plug-In . SVG Version: 6.00 Build 0)  -->
<svg xmlns="http://www.w3.org/2000/svg" xmlns:xlink="http://www.w3.org/1999/xlink" version="1.1" id="Capa_1" x="0px" y="0px" viewBox="0 0 512.001 512.001" style="enable-background:new 0 0 512.001 512.001;" xml:space="preserve">
<g>
	<g>
		<path d="M256,91c-90.975,0-165,74.049-165,165c0,90.981,74.055,165,165,165c91.149,0,166-73.831,166-165    C422,164.85,347.168,91,256,91z M362.308,340.095l-9.849-9.849c-5.857-5.858-15.355-5.858-21.213,0    c-5.858,5.858-5.858,15.355,0,21.213l9.802,9.802c-19.633,15.663-43.72,26.032-70.049,28.913V376c0-8.284-6.716-15-15-15    c-8.284,0-15,6.716-15,15v14.162c-26-2.888-49.792-13.186-69.216-28.733l9.97-9.97c5.858-5.858,5.858-15.355,0-21.213    c-5.857-5.858-15.355-5.858-21.213,0l-9.97,9.97C135.024,320.792,124.725,297,121.838,271H136c8.284,0,15-6.716,15-15    s-6.716-15-15-15h-14.162c2.888-26,13.186-49.792,28.733-69.216l9.97,9.97c5.857,5.858,15.356,5.858,21.213,0    c5.858-5.858,5.858-15.355,0-21.213l-9.97-9.97C191.208,135.024,215,124.726,241,121.838V136c0,8.284,6.716,15,15,15    c8.284,0,15-6.716,15-15v-14.175c26.329,2.881,50.415,13.25,70.049,28.913l-9.802,9.802c-5.858,5.858-5.858,15.355,0,21.213    c5.857,5.858,15.356,5.858,21.213,0l9.849-9.849c15.608,19.401,25.945,43.15,28.848,69.095H377c-8.284,0-15,6.716-15,15    s6.716,14.901,15,14.901h14.156C388.253,296.845,377.916,320.694,362.308,340.095z"/>
	</g>
</g>
<g>
	<g>
		<path d="M296.607,275.393L271,249.787V196c0-8.284-6.716-15-15-15c-8.284,0-15,6.716-15,15v60c0,3.978,1.581,7.793,4.394,10.606    l30,30c5.857,5.858,15.356,5.858,21.213,0C302.465,290.748,302.465,281.251,296.607,275.393z"/>
	</g>
</g>
<g>
	<g>
		<path d="M471.739,188.679C497.144,168.867,512,138.765,512,106C512,47.551,464.897,0,407,0c-32.874,0-63.068,14.956-82.877,40.516    C302.346,33.602,279.436,30,256,30c-23.148,0-45.784,3.513-67.321,10.261C168.867,14.856,138.765,0,106,0C48.043,0,0,47.843,0,106    c0,32.765,14.856,62.867,40.261,82.679C33.512,210.216,30,232.852,30,256c0,52.074,17.716,101.574,50.298,141.721L60.313,493.95    c-1.239,5.968,1.255,12.091,6.312,15.495c5.061,3.406,11.672,3.405,16.73,0.013l74.499-49.966    C188.128,474.213,221.497,482,256,482c34.702,0,68.257-7.877,98.669-22.766l73.906,50.176c5.032,3.417,11.634,3.457,16.708,0.096    c5.073-3.36,7.614-9.452,6.432-15.42l-19.271-97.288C464.551,356.815,482,307.676,482,256    C482,232.852,478.488,210.216,471.739,188.679z M30,106c0-41.196,34.804-76,76-76c20.289,0,39.151,7.979,53.037,21.929    C112.613,74.168,74.256,112.43,51.929,159.037C37.98,145.15,30,126.289,30,106z M97.157,464.078l8.29-39.917    c7.503,6.742,15.378,12.928,23.572,18.547L97.157,464.078z M383.356,442.45c8.283-5.705,16.243-11.983,23.816-18.837l8.011,40.445    L383.356,442.45z M256,452c-108.006,0-196-87.888-196-196c0-23.829,4.28-46.675,12.102-67.819c0.051-0.133,0.105-0.266,0.153-0.4    C100.192,112.776,172.392,60,256,60c84.095,0,155.981,53.24,183.746,127.781c0.047,0.134,0.101,0.267,0.153,0.4    C447.72,209.325,452,232.171,452,256C452,364.529,363.577,452,256,452z M353.633,52.257C367.55,38.103,386.551,30,407,30    c41.355,0,75,34.093,75,76c0,20.289-7.98,39.15-21.929,53.037C437.904,112.764,399.88,74.603,353.633,52.257z"/>
	</g>
</g>
<g>
</g>
<g>
</g>
<g>
</g>
<g>
</g>
<g>
</g>
<g>
</g>
<g>
</g>
<g>
</g>
<g>
</g>
<g>
</g>
<g>
</g>
<g>
</g>
<g>
</g>
<g>
</g>
<g>
</g>
</svg>
