<?xml version="1.0" encoding="iso-8859-1"?>
<!-- Generator: Adobe Illustrator 19.0.0, SVG Export Plug-In . SVG Version: 6.00 Build 0)  -->
<svg xmlns="http://www.w3.org/2000/svg" xmlns:xlink="http://www.w3.org/1999/xlink" version="1.1" id="Capa_1" x="0px" y="0px" viewBox="0 0 512 512" style="enable-background:new 0 0 512 512;" xml:space="preserve">
<g>
	<g>
		<path d="M446.604,124.391c-0.003-0.003-120.01-120.009-120.01-120.009C323.727,1.521,319.817,0,316,0H76c-8.284,0-15,6.716-15,15    v482c0,8.284,6.716,15,15,15h360c8.284,0,15-6.716,15-15V135C451,130.907,449.23,126.95,446.604,124.391z M331,51.213L399.787,120    H331V51.213z M421,482H91V30h210v105c0,8.284,6.716,15,15,15h105V482z"/>
	</g>
</g>
<g>
	<g>
		<path d="M256,180c-74.439,0-135,61.009-135,136s60.561,136,135,136s135-61.009,135-136S330.439,180,256,180z M256,422    c-57.897,0-105-47.551-105-106c0-58.449,47.103-106,105-106c57.897,0,105,47.551,105,106C361,374.449,313.897,422,256,422z"/>
	</g>
</g>
<g>
	<g>
		<path d="M296.606,335.394L271,309.787L270.998,255c0-8.284-6.716-15-15-15S241,246.716,241,255v61.052    c0.014,4.105,1.738,7.898,4.397,10.557l29.997,29.997c5.857,5.858,15.356,5.858,21.213,0    C302.464,350.749,302.464,341.251,296.606,335.394z"/>
	</g>
</g>
<g>
</g>
<g>
</g>
<g>
</g>
<g>
</g>
<g>
</g>
<g>
</g>
<g>
</g>
<g>
</g>
<g>
</g>
<g>
</g>
<g>
</g>
<g>
</g>
<g>
</g>
<g>
</g>
<g>
</g>
</svg>
