<?xml version="1.0" encoding="iso-8859-1"?>
<!-- Generator: Adobe Illustrator 19.0.0, SVG Export Plug-In . SVG Version: 6.00 Build 0)  -->
<svg xmlns="http://www.w3.org/2000/svg" xmlns:xlink="http://www.w3.org/1999/xlink" version="1.1" id="Capa_1" x="0px" y="0px" viewBox="0 0 512 512" style="enable-background:new 0 0 512 512;" xml:space="preserve">
<g>
	<g>
		<path d="M497,482h-15V165c0-8.284-6.716-15-15-15h-92c-8.284,0-15,6.716-15,15v317h-30V255c0-8.284-6.716-15-15-15h-90    c-8.284,0-15,6.716-15,15v227h-30V315c0-8.284-6.716-15-15-15H75c-8.284,0-15,6.716-15,15v167H30V15c0-8.284-6.716-15-15-15    S0,6.716,0,15v482c0,8.284,6.716,15,15,15c2.186,0,476.808,0,482,0c8.284,0,15-6.716,15-15S505.284,482,497,482z M150,482H90V330    h60V482z M300,482h-60V270h60V482z M452,482h-62V180h62V482z"/>
	</g>
</g>
<g>
	<g>
		<path d="M165,0C107.103,0,60,47.103,60,105s47.103,105,105,105c57.897,0,105-47.103,105-105C270,47.103,222.897,0,165,0z M165,180    c-41.355,0-75-33.645-75-75s33.645-75,75-75s75,33.645,75,75S206.355,180,165,180z"/>
	</g>
</g>
<g>
	<g>
		<path d="M195,90h-15V75c0-8.284-6.716-15-15-15s-15,6.716-15,15v30c0,8.284,6.716,15,15,15h30c8.284,0,15-6.716,15-15    S203.284,90,195,90z"/>
	</g>
</g>
<g>
</g>
<g>
</g>
<g>
</g>
<g>
</g>
<g>
</g>
<g>
</g>
<g>
</g>
<g>
</g>
<g>
</g>
<g>
</g>
<g>
</g>
<g>
</g>
<g>
</g>
<g>
</g>
<g>
</g>
</svg>
