<?xml version="1.0" encoding="iso-8859-1"?>
<!-- Generator: Adobe Illustrator 19.0.0, SVG Export Plug-In . SVG Version: 6.00 Build 0)  -->
<svg xmlns="http://www.w3.org/2000/svg" xmlns:xlink="http://www.w3.org/1999/xlink" version="1.1" id="Capa_1" x="0px" y="0px" viewBox="0 0 512.001 512.001" style="enable-background:new 0 0 512.001 512.001;" xml:space="preserve">
<g>
	<g>
		<path d="M316.984,60.003c-74.442,0-135.006,60.564-135.006,135.006s60.564,135.006,135.006,135.006S451.99,269.451,451.99,195.008    S391.427,60.003,316.984,60.003z M316.984,300.013c-57.899,0-105.005-47.105-105.005-105.005    c0-57.899,47.105-105.005,105.005-105.005s105.005,47.105,105.005,105.005C421.989,252.908,374.884,300.013,316.984,300.013z"/>
	</g>
</g>
<g>
	<g>
		<path d="M357.594,214.402l-25.609-25.607l-0.002-53.789c0-8.284-6.716-15.001-15.001-15.001s-14.999,6.716-14.998,15.001v60.003    c0,0.018,0.003,0.035,0.003,0.052c0.014,4.034,1.688,7.853,4.394,10.557l29.998,29.998c5.857,5.858,15.357,5.858,21.214,0    C363.452,229.758,363.452,220.26,357.594,214.402z"/>
	</g>
</g>
<g>
	<g>
		<path d="M316.984,0C209.456,0,121.976,87.481,121.976,195.008c0,48.045,17.475,92.079,46.39,126.104l-25.41,25.41l-10.607-10.607    c-5.887-5.887-15.441-5.851-21.285,0.071c0,0-97.885,99.202-97.896,99.212c-17.545,17.546-17.545,46.096,0,63.643    c17.545,17.545,46.095,17.547,63.643,0c0.023-0.024,0.047-0.047,0.071-0.071l97.965-99.283c5.791-5.869,5.76-15.313-0.071-21.143    l-10.607-10.607l25.302-25.302c34.214,29.632,78.807,47.582,127.514,47.582c107.528,0,195.008-87.481,195.008-195.008    S424.513,0,316.984,0z M55.569,477.655c-5.851,5.821-15.347,5.812-21.187-0.028c-5.848-5.849-5.848-15.366,0.071-21.285    l45.215-45.823l21.214,21.214L55.569,477.655z M121.954,410.378l-21.214-21.214l21.073-21.356l21.214,21.214L121.954,410.378z     M316.984,360.016c-90.985,0-165.007-74.022-165.007-165.007S225.999,30.001,316.984,30.001s165.007,74.022,165.007,165.007    C481.991,285.993,407.97,360.016,316.984,360.016z"/>
	</g>
</g>
<g>
</g>
<g>
</g>
<g>
</g>
<g>
</g>
<g>
</g>
<g>
</g>
<g>
</g>
<g>
</g>
<g>
</g>
<g>
</g>
<g>
</g>
<g>
</g>
<g>
</g>
<g>
</g>
<g>
</g>
</svg>
