<?xml version="1.0" encoding="iso-8859-1"?>
<!-- Generator: Adobe Illustrator 19.0.0, SVG Export Plug-In . SVG Version: 6.00 Build 0)  -->
<svg xmlns="http://www.w3.org/2000/svg" xmlns:xlink="http://www.w3.org/1999/xlink" version="1.1" id="Capa_1" x="0px" y="0px" viewBox="0 0 512 512" style="enable-background:new 0 0 512 512;" xml:space="preserve">
<g>
	<g>
		<path d="M507.606,64.394l-60-60C444.793,1.58,440.978,0,437,0H15C6.716,0,0,6.716,0,15v120c0,8.284,6.716,15,15,15h422    c3.978,0,7.793-1.58,10.606-4.393l60-60C513.464,79.749,513.464,70.252,507.606,64.394z M213.017,120H30V30h183.017V120z     M430.787,120h-187.97V30h187.97l45,45L430.787,120z"/>
	</g>
</g>
<g>
	<g>
		<path d="M507.606,244.394l-60-60C444.793,181.58,440.978,180,437,180H15c-8.284,0-15,6.716-15,15v120c0,8.284,6.716,15,15,15h422    c3.978,0,7.793-1.58,10.606-4.393l60-60C513.464,259.749,513.464,250.252,507.606,244.394z M213.017,300H30v-90h183.017V300z     M430.787,300h-187.97v-90h187.97l45,45L430.787,300z"/>
	</g>
</g>
<g>
	<g>
		<path d="M507.694,425.482l-60-61C444.874,361.615,441.021,360,437,360H15c-8.284,0-15,6.716-15,15v122c0,8.284,6.716,15,15,15h422    c4.021,0,7.874-1.615,10.694-4.481l60-61C513.436,440.682,513.436,431.319,507.694,425.482z M211.141,482H30v-92h181.141V482z     M430.714,482H240.941v-92h189.773l45.246,46L430.714,482z"/>
	</g>
</g>
<g>
</g>
<g>
</g>
<g>
</g>
<g>
</g>
<g>
</g>
<g>
</g>
<g>
</g>
<g>
</g>
<g>
</g>
<g>
</g>
<g>
</g>
<g>
</g>
<g>
</g>
<g>
</g>
<g>
</g>
</svg>
