<?xml version="1.0" encoding="iso-8859-1"?>
<!-- Generator: Adobe Illustrator 19.0.0, SVG Export Plug-In . SVG Version: 6.00 Build 0)  -->
<svg xmlns="http://www.w3.org/2000/svg" xmlns:xlink="http://www.w3.org/1999/xlink" version="1.1" id="Capa_1" x="0px" y="0px" viewBox="0 0 512 512" style="enable-background:new 0 0 512 512;" xml:space="preserve">
<g>
	<g>
		<path d="M406,270H271V135c0-8.284-6.716-15-15-15c-90.981,0-165,74.019-165,165c0,90.841,73.672,167,165,167    c91.444,0,165-76.255,165-167C421,276.716,414.284,270,406,270z M256,422c-74.439,0-135-61.458-135-137    c0-69.369,52.595-126.686,120-134.172V285c0,8.284,6.716,15,15,15h134.196C382.812,368.513,325.446,422,256,422z"/>
	</g>
</g>
<g>
	<g>
		<path d="M446.918,115.295l10.607,10.606c5.859,5.859,15.357,5.856,21.213,0c5.858-5.858,5.858-15.355,0-21.213    c-5.037-5.037-37.262-37.262-42.426-42.427c-5.857-5.858-15.355-5.858-21.213,0c-5.858,5.858-5.858,15.355,0,21.213l10.607,10.607    l-21.646,21.646C375.232,90.482,339.931,72.458,301,64.524V30h15c8.284,0,15-6.716,15-15s-6.716-15-15-15H196    c-8.284,0-15,6.716-15,15s6.716,15,15,15h15v34.524c-38.931,7.934-74.232,25.958-103.059,51.204L86.294,94.081l10.607-10.607    c5.858-5.858,5.858-15.355,0-21.213c-5.857-5.858-15.355-5.857-21.213,0c-5.037,5.037-37.262,37.262-42.426,42.427    c-5.858,5.858-5.858,15.355,0,21.213c5.857,5.858,15.355,5.858,21.213,0l10.607-10.607l21.646,21.646    C52.05,176.537,31,228.354,31,285c0,123.523,100.147,227,225,227c125.013,0,225-103.631,225-227    c0-56.646-21.05-108.463-55.728-148.059L446.918,115.295z M241,30h30v30.512C266.04,60.184,261.042,60,256,60    c-5.042,0-10.04,0.184-15,0.512V30z M451,285c0,108.626-87.477,197-195,197S61,393.626,61,285c0-107.523,87.477-195,195-195    S451,177.477,451,285z"/>
	</g>
</g>
<g>
</g>
<g>
</g>
<g>
</g>
<g>
</g>
<g>
</g>
<g>
</g>
<g>
</g>
<g>
</g>
<g>
</g>
<g>
</g>
<g>
</g>
<g>
</g>
<g>
</g>
<g>
</g>
<g>
</g>
</svg>
