<?xml version="1.0" encoding="iso-8859-1"?>
<!-- Generator: Adobe Illustrator 19.0.0, SVG Export Plug-In . SVG Version: 6.00 Build 0)  -->
<svg xmlns="http://www.w3.org/2000/svg" xmlns:xlink="http://www.w3.org/1999/xlink" version="1.1" id="Capa_1" x="0px" y="0px" viewBox="0 0 512 512" style="enable-background:new 0 0 512 512;" xml:space="preserve">
<g>
	<g>
		<path d="M363.361,260.12c-1.764-5.43-6.458-9.388-12.109-10.209l-57.522-8.358l-25.772-53.101    c-2.509-5.169-7.749-8.451-13.495-8.451c-5.746,0-10.986,3.282-13.495,8.451l-25.763,53.082l-58.499,8.372    c-5.686,0.814-10.408,4.803-12.16,10.273c-1.751,5.469-0.226,11.459,3.929,15.425l42.454,40.526l-10.703,58.155    c-1.036,5.629,1.222,11.357,5.82,14.766c4.599,3.409,10.736,3.902,15.82,1.275l52.539-27.157l51.564,27.109    c5.047,2.654,11.163,2.216,15.782-1.131c4.618-3.346,6.938-9.021,5.989-14.645l-9.86-58.372l41.686-40.634    C363.654,271.511,365.126,265.55,363.361,260.12z M291.31,300.135c-3.526,3.437-5.14,8.385-4.32,13.24l6.124,36.251    l-31.669-16.649c-4.337-2.28-9.515-2.298-13.868-0.048l-32.308,16.7l6.632-36.037c0.915-4.973-0.737-10.073-4.395-13.565    l-25.978-24.798l35.818-5.128c4.933-0.706,9.194-3.816,11.37-8.299l15.748-32.448l15.748,32.448    c2.171,4.473,6.417,7.58,11.338,8.295l35.312,5.131L291.31,300.135z"/>
	</g>
</g>
<g>
	<g>
		<path d="M467,30h-15V15c0-8.284-6.716-15-15-15s-15,6.716-15,15v15h-61V15c0-8.284-6.716-15-15-15s-15,6.716-15,15v15h-60V15    c0-8.284-6.716-15-15-15s-15,6.716-15,15v15h-61V15c0-8.284-6.716-15-15-15s-15,6.716-15,15v15H90V15c0-8.284-6.716-15-15-15    S60,6.716,60,15v15H45C20.187,30,0,50.187,0,75v392c0,24.813,20.187,45,45,45h422c24.813,0,45-20.187,45-45V75    C512,50.187,491.813,30,467,30z M482,467c0,8.271-6.729,15-15,15H45c-8.271,0-15-6.729-15-15v-15h452V467z M482,422H30V150h452    V422z M482,120H30V75c0-8.271,6.729-15,15-15h15v15c0,8.284,6.716,15,15,15s15-6.716,15-15V60h60v15c0,8.284,6.716,15,15,15    s15-6.716,15-15V60h61v15c0,8.284,6.716,15,15,15s15-6.716,15-15V60h60v15c0,8.284,6.716,15,15,15s15-6.716,15-15V60h61v15    c0,8.284,6.716,15,15,15s15-6.716,15-15V60h15c8.271,0,15,6.729,15,15V120z"/>
	</g>
</g>
<g>
</g>
<g>
</g>
<g>
</g>
<g>
</g>
<g>
</g>
<g>
</g>
<g>
</g>
<g>
</g>
<g>
</g>
<g>
</g>
<g>
</g>
<g>
</g>
<g>
</g>
<g>
</g>
<g>
</g>
</svg>
