<?xml version="1.0" encoding="iso-8859-1"?>
<!-- Generator: Adobe Illustrator 19.0.0, SVG Export Plug-In . SVG Version: 6.00 Build 0)  -->
<svg xmlns="http://www.w3.org/2000/svg" xmlns:xlink="http://www.w3.org/1999/xlink" version="1.1" id="Capa_1" x="0px" y="0px" viewBox="0 0 512 512" style="enable-background:new 0 0 512 512;" xml:space="preserve">
<g>
	<g>
		<path d="M467,31H45C20.187,31,0,51.187,0,76v300c0,24.813,20.187,45,45,45h15v45c0,8.284,6.716,15,15,15h362    c8.284,0,15-6.716,15-15v-45h15c24.813,0,45-20.187,45-45V76C512,51.187,491.813,31,467,31z M422,451H90v-30h332V451z M482,376    c0,8.271-6.729,15-15,15c-5.717,0-416.158,0-422,0c-8.271,0-15-6.729-15-15v-16h452V376z M482,330H30V121h452V330z M482,91H30V76    c0-8.271,6.729-15,15-15h422c8.271,0,15,6.729,15,15V91z"/>
	</g>
</g>
<g>
	<g>
		<rect x="181" y="181" width="30" height="30"/>
	</g>
</g>
<g>
	<g>
		<rect x="181" y="241" width="30" height="30"/>
	</g>
</g>
<g>
	<g>
		<path d="M316,151h-60c-8.284,0-15,6.716-15,15v120c0,8.284,6.716,15,15,15h60c8.284,0,15-6.716,15-15V166    C331,157.716,324.284,151,316,151z M301,271h-30v-90h30V271z"/>
	</g>
</g>
<g>
	<g>
		<path d="M437,151h-61c-8.284,0-15,6.716-15,15v120c0,8.284,6.716,15,15,15h61c8.284,0,15-6.716,15-15V166    C452,157.716,445.284,151,437,151z M422,271h-31v-90h31V271z"/>
	</g>
</g>
<g>
	<g>
		<path d="M136,151H75c-8.284,0-15,6.716-15,15v60c0,8.284,6.716,15,15,15h46v30H75c-8.284,0-15,6.716-15,15s6.716,15,15,15h61    c8.284,0,15-6.716,15-15c0-5.273,0-114.737,0-120C151,157.716,144.284,151,136,151z M121,211H90v-30h31V211z"/>
	</g>
</g>
<g>
</g>
<g>
</g>
<g>
</g>
<g>
</g>
<g>
</g>
<g>
</g>
<g>
</g>
<g>
</g>
<g>
</g>
<g>
</g>
<g>
</g>
<g>
</g>
<g>
</g>
<g>
</g>
<g>
</g>
</svg>
