<?xml version="1.0" encoding="iso-8859-1"?>
<!-- Generator: Adobe Illustrator 19.0.0, SVG Export Plug-In . SVG Version: 6.00 Build 0)  -->
<svg xmlns="http://www.w3.org/2000/svg" xmlns:xlink="http://www.w3.org/1999/xlink" version="1.1" id="Capa_1" x="0px" y="0px" viewBox="0 0 512.002 512.002" style="enable-background:new 0 0 512.002 512.002;" xml:space="preserve">
<g>
	<g>
		<path d="M512,194.962C511.978,87.519,424.083,0.001,316,0.001c-107.411,0-195,87.388-195,195c0,15.386,1.78,30.567,5.303,45.347    C55.821,245.301,0,303.798,0,375.001c0,74.766,61.472,137,136,137c71.476,0,129.754-57.191,134.658-127.302    c14.779,3.522,29.958,5.302,45.342,5.302c107.814,0,195.978-87.52,196-194.961c0-0.013,0.002-0.026,0.002-0.039    S512,194.975,512,194.962z M248.291,44.541C239.371,58.394,232.36,74.055,227,90h-38.186    C204.816,70.652,225.139,55.001,248.291,44.541z M169.052,120.001h49.731c-4.119,18.926-6.659,39.14-7.483,60h-59.611    C153.63,158.565,159.676,138.297,169.052,120.001z M211.3,210.001c0.797,20.172,3.197,39.742,7.079,58.126    c-17.368-13.419-38.081-22.702-60.656-26.37c-3.053-10.349-5.076-20.966-6.046-31.756H211.3z M136,482.001    c-57.458,0-106-49-106-107c0-57.897,47.551-105,106-105c57.897,0,105,47.103,105,105C241,434.001,193.897,482.001,136,482.001z     M301,356.267c-19.877-9.832-34.008-35.519-42.111-56.266H301V356.267z M301,270.001h-51.464c-4.521-18.614-7.314-38.883-8.213-60    H301V270.001z M301,180.001h-59.676c0.899-21.117,3.692-41.386,8.213-60H301V180.001z M301,90.001h-42.111    c8.098-20.735,22.228-46.432,42.111-56.266V90.001z M443.957,90.001H405c-5.349-15.913-12.405-31.72-21.448-45.707    C407.079,54.754,427.728,70.495,443.957,90.001z M331,33.735c19.877,9.831,34.008,35.519,42.111,56.266H331V33.735z M331,120.001    h51.464c4.521,18.614,7.314,38.883,8.213,60H331V120.001z M331,356.266V299.9h42.111C365.013,320.636,350.883,346.433,331,356.266    z M331,270.001v-60.1h59.676c-0.899,21.117-3.692,41.486-8.213,60.1H331z M383.553,345.707    c9.041-13.985,16.097-29.89,21.448-45.807h38.957C427.728,319.406,407.079,335.247,383.553,345.707z M463.839,270.001h-50.622    c4.119-18.926,6.659-39.24,7.483-60.1h60.607C479.354,231.336,473.271,251.705,463.839,270.001z M420.7,180.001    c-0.824-20.86-3.365-41.074-7.483-60h50.622c9.433,18.296,15.515,38.564,17.468,60H420.7z"/>
	</g>
</g>
<g>
	<g>
		<path d="M176.608,394.393L151,368.788L150.998,315c0-8.284-6.716-15-15-15s-14.998,6.716-14.997,15v60    c0,0.018,0.003,0.035,0.003,0.052c0.014,4.105,1.735,7.899,4.394,10.557l29.997,29.997c5.857,5.858,15.356,5.858,21.213,0    C182.466,409.748,182.466,400.251,176.608,394.393z"/>
	</g>
</g>
<g>
</g>
<g>
</g>
<g>
</g>
<g>
</g>
<g>
</g>
<g>
</g>
<g>
</g>
<g>
</g>
<g>
</g>
<g>
</g>
<g>
</g>
<g>
</g>
<g>
</g>
<g>
</g>
<g>
</g>
</svg>
