<?xml version="1.0" encoding="iso-8859-1"?>
<!-- Generator: Adobe Illustrator 19.0.0, SVG Export Plug-In . SVG Version: 6.00 Build 0)  -->
<svg xmlns="http://www.w3.org/2000/svg" xmlns:xlink="http://www.w3.org/1999/xlink" version="1.1" id="Capa_1" x="0px" y="0px" viewBox="0 0 512 512" style="enable-background:new 0 0 512 512;" xml:space="preserve">
<g>
	<g>
		<path d="M256,121c-57.897,0-105,47.103-105,105c0,57.897,47.103,105,105,105c57.897,0,105-47.103,105-105    C361,168.103,313.897,121,256,121z M256,301c-41.355,0-75-33.645-75-75c0-41.355,33.645-75,75-75c41.355,0,75,33.645,75,75    S297.355,301,256,301z"/>
	</g>
</g>
<g>
	<g>
		<path d="M286,211h-15v-15c0-8.284-6.716-15-15-15s-15,6.716-15,15v30c0,8.284,6.716,15,15,15h30c8.284,0,15-6.716,15-15    S294.284,211,286,211z"/>
	</g>
</g>
<g>
	<g>
		<path d="M497,331h-15V106c0-24.813-20.187-45-45-45H75c-24.813,0-45,20.187-45,45v225H15c-8.284,0-15,6.716-15,15v60    c0,24.813,20.187,45,45,45h422c24.813,0,45-20.187,45-45v-60C512,337.716,505.284,331,497,331z M60,106c0-8.271,6.729-15,15-15    h362c8.271,0,15,6.729,15,15v225H346c-8.284,0-15,6.716-15,15c0,8.271-6.729,15-15,15H196c-8.271,0-15-6.729-15-15    c0-8.284-6.716-15-15-15H60V106z M482,406c0,8.271-6.729,15-15,15H45c-8.271,0-15-6.729-15-15v-45h123.57    c6.191,17.461,22.874,30,42.43,30h120c19.556,0,36.239-12.539,42.43-30H482V406z"/>
	</g>
</g>
<g>
</g>
<g>
</g>
<g>
</g>
<g>
</g>
<g>
</g>
<g>
</g>
<g>
</g>
<g>
</g>
<g>
</g>
<g>
</g>
<g>
</g>
<g>
</g>
<g>
</g>
<g>
</g>
<g>
</g>
</svg>
