<?xml version="1.0" encoding="iso-8859-1"?>
<!-- Generator: Adobe Illustrator 19.0.0, SVG Export Plug-In . SVG Version: 6.00 Build 0)  -->
<svg xmlns="http://www.w3.org/2000/svg" xmlns:xlink="http://www.w3.org/1999/xlink" version="1.1" id="Capa_1" x="0px" y="0px" viewBox="0 0 512 512" style="enable-background:new 0 0 512 512;" xml:space="preserve">
<g>
	<g>
		<path d="M407,302c-24.813,0-45,20.187-45,45s20.187,45,45,45s45-20.187,45-45S431.813,302,407,302z M407,362    c-8.271,0-15-6.729-15-15s6.729-15,15-15s15,6.729,15,15S415.271,362,407,362z"/>
	</g>
</g>
<g>
	<g>
		<path d="M105,302c-24.813,0-45,20.187-45,45s20.187,45,45,45s45-20.187,45-45S129.813,302,105,302z M105,362    c-8.271,0-15-6.729-15-15s6.729-15,15-15s15,6.729,15,15S113.271,362,105,362z"/>
	</g>
</g>
<g>
	<g>
		<path d="M286,90h-15V75c0-8.284-6.716-15-15-15s-15,6.716-15,15v30c0,8.284,6.716,15,15,15h30c8.284,0,15-6.716,15-15    S294.284,90,286,90z"/>
	</g>
</g>
<g>
	<g>
		<path d="M449.024,242.976l-16.11-66.166c-8.168-32.673-38.791-56.441-72.992-56.793C360.627,115.11,361,110.098,361,105    C361,47.103,313.897,0,256,0c-57.897,0-105,47.103-105,105c0,5.098,0.373,10.11,1.078,15.017    c-34.201,0.352-64.825,24.121-73.014,56.883l-16.088,66.077C27.319,248.749,0,279.738,0,317v60c0,36.219,25.808,66.522,60,73.491    V467c0,24.813,20.187,45,45,45h30c24.867,0,46-20.096,46-45v-15h150v15c0,24.872,21.096,45,46,45h30c24.813,0,45-20.187,45-45    v-16.509c34.192-6.968,60-37.271,60-73.491v-60C512,279.738,484.681,248.749,449.024,242.976z M256,30c41.355,0,75,33.645,75,75    s-33.645,75-75,75c-41.355,0-75-33.645-75-75S214.645,30,256,30z M108.19,184.085c4.938-19.75,23.718-34.085,44.656-34.085h8.298    c16.883,35.443,53.053,60,94.855,60s77.973-24.557,94.855-60h8.298c20.938,0,39.719,14.335,44.634,33.996L417.91,242H94.09    L108.19,184.085z M151,467c0,7.991-7.477,15-16,15h-30c-8.271,0-15-6.729-15-15v-15h61V467z M190.271,422l15-30H306.73l15,30    H190.271z M422,467c0,8.271-6.729,15-15,15h-30c-8.523,0-16-7.009-16-15v-15h61V467z M482,377c0,24.813-20.187,45-45,45h-81.729    l-25.854-51.708C326.875,365.21,321.682,362,316,362H196c-5.682,0-10.875,3.21-13.417,8.292L156.729,422H75    c-24.813,0-45-20.187-45-45v-60c0-24.794,20.157-44.968,44.944-44.999c0.023,0,0.045,0.002,0.068,0.002    c0.027,0,0.054-0.003,0.081-0.003h361.814c0.027,0,0.054,0.003,0.081,0.003c0.015,0,0.029-0.002,0.044-0.003    C461.83,272.018,482,292.198,482,317V377z"/>
	</g>
</g>
<g>
	<g>
		<path d="M316,302H196c-8.284,0-15,6.716-15,15s6.716,15,15,15h120c8.284,0,15-6.716,15-15S324.284,302,316,302z"/>
	</g>
</g>
<g>
</g>
<g>
</g>
<g>
</g>
<g>
</g>
<g>
</g>
<g>
</g>
<g>
</g>
<g>
</g>
<g>
</g>
<g>
</g>
<g>
</g>
<g>
</g>
<g>
</g>
<g>
</g>
<g>
</g>
</svg>
