<?xml version="1.0" encoding="iso-8859-1"?>
<!-- Generator: Adobe Illustrator 19.0.0, SVG Export Plug-In . SVG Version: 6.00 Build 0)  -->
<svg xmlns="http://www.w3.org/2000/svg" xmlns:xlink="http://www.w3.org/1999/xlink" version="1.1" id="Capa_1" x="0px" y="0px" viewBox="0 0 512 512" style="enable-background:new 0 0 512 512;" xml:space="preserve">
<g>
	<g>
		<path d="M376,0H136c-24.813,0-45,20.187-45,45v422c0,24.813,20.187,45,45,45h240c24.813,0,45-20.187,45-45V45    C421,20.187,400.813,0,376,0z M391,467c0,8.271-6.729,15-15,15H136c-8.271,0-15-6.729-15-15v-75h270V467z M391,362H121V90h270V362    z M391,60H121V45c0-8.271,6.729-15,15-15h240c8.271,0,15,6.729,15,15V60z"/>
	</g>
</g>
<g>
	<g>
		<path d="M256,121c-57.897,0-105,47.103-105,105c0,58.449,47.103,106,105,106c57.897,0,105-47.551,105-106    C361,168.103,313.897,121,256,121z M256,302c-41.355,0-75-34.093-75-76c0-41.355,33.645-75,75-75s75,33.645,75,75    C331,267.907,297.355,302,256,302z"/>
	</g>
</g>
<g>
	<g>
		<path d="M286,211h-15v-15c0-8.284-6.716-15-15-15s-15,6.716-15,15v30c0,8.284,6.716,15,15,15h30c8.284,0,15-6.716,15-15    S294.284,211,286,211z"/>
	</g>
</g>
<g>
	<g>
		<circle cx="256" cy="437" r="15"/>
	</g>
</g>
<g>
</g>
<g>
</g>
<g>
</g>
<g>
</g>
<g>
</g>
<g>
</g>
<g>
</g>
<g>
</g>
<g>
</g>
<g>
</g>
<g>
</g>
<g>
</g>
<g>
</g>
<g>
</g>
<g>
</g>
</svg>
