<?xml version="1.0" encoding="iso-8859-1"?>
<!-- Generator: Adobe Illustrator 19.0.0, SVG Export Plug-In . SVG Version: 6.00 Build 0)  -->
<svg xmlns="http://www.w3.org/2000/svg" xmlns:xlink="http://www.w3.org/1999/xlink" version="1.1" id="Capa_1" x="0px" y="0px" viewBox="0 0 512 512" style="enable-background:new 0 0 512 512;" xml:space="preserve">
<g>
	<g>
		<path d="M319.279,223.794C363.674,200.253,391,154.714,391,105V87.42c17.459-6.192,30-22.865,30-42.42V15c0-8.284-6.716-15-15-15    H106c-8.284,0-15,6.716-15,15v30c0,19.555,12.541,36.228,30,42.42V105c0,49.27,26.938,95.047,71.72,118.793    c2.784,1.965,6.214,4.652,9.854,7.655C207.867,237.639,211,246.054,211,255c0,13.173-6.779,25.208-17.27,30.66    C149.548,308.619,121,356.248,121,407v17.58c-17.459,6.192-30,22.865-30,42.42v30c0,8.284,6.716,15,15,15h300    c8.284,0,15-6.716,15-15v-30c0-19.555-12.541-36.228-30-42.42V407c0-50.752-28.548-98.381-72.73-121.34    C307.779,280.208,301,268.174,301,255c0-8.946,3.133-17.361,8.425-23.551C313.066,228.445,316.496,225.758,319.279,223.794z     M121,45V30h270v15c0,8.271-6.729,15-15,15H136C127.729,60,121,53.271,121,45z M152.085,120c-0.712-4.921-1.085-9.93-1.085-15V90    h210v15c0,5.07-0.373,10.079-1.085,15H152.085z M391,467v15H121v-15c0-8.271,6.729-15,15-15h240C384.271,452,391,458.729,391,467z     M304.437,312.281C338.797,330.136,361,367.316,361,407v15H151v-15c0-39.684,22.203-76.864,56.564-94.72    c17.446-9.066,29.3-26.17,32.54-46.125c4.773,2.678,10.217,4.149,15.896,4.15c0.001,0,0,0,0.002,0    c5.678,0,11.122-1.47,15.895-4.148C275.137,286.111,286.99,303.214,304.437,312.281z M304.201,197.848    c-0.04,0.021-0.079,0.042-0.119,0.064c-6.08,3.212-11.47,7.405-16.045,12.355c-12.007,10.028-26.063,22.907-29.943,28.899    c-0.488,0.755-1.192,1.138-2.092,1.138c-0.899,0-1.603-0.383-2.092-1.138c-3.875-5.987-17.936-18.869-29.947-28.899    c-4.575-4.95-9.964-9.142-16.043-12.354c-0.04-0.022-0.08-0.043-0.12-0.065c-0.08-0.042-0.157-0.087-0.237-0.129    c-20.69-10.75-36.732-27.721-46.363-47.819h189.6c-9.631,20.098-25.673,37.069-46.363,47.82    C304.357,197.762,304.28,197.807,304.201,197.848z"/>
	</g>
</g>
<g>
</g>
<g>
</g>
<g>
</g>
<g>
</g>
<g>
</g>
<g>
</g>
<g>
</g>
<g>
</g>
<g>
</g>
<g>
</g>
<g>
</g>
<g>
</g>
<g>
</g>
<g>
</g>
<g>
</g>
</svg>
