<?xml version="1.0" encoding="iso-8859-1"?>
<!-- Generator: Adobe Illustrator 19.0.0, SVG Export Plug-In . SVG Version: 6.00 Build 0)  -->
<svg xmlns="http://www.w3.org/2000/svg" xmlns:xlink="http://www.w3.org/1999/xlink" version="1.1" id="Capa_1" x="0px" y="0px" viewBox="0 0 512 512" style="enable-background:new 0 0 512 512;" xml:space="preserve">
<g>
	<g>
		<path d="M391,60H91c-8.284,0-15,6.716-15,15v91c0,8.284,6.716,15,15,15h300c8.284,0,15-6.716,15-15V75    C406,66.716,399.284,60,391,60z M376,151H106V90h270V151z"/>
	</g>
</g>
<g>
	<g>
		<path d="M151,211H91c-8.284,0-15,6.716-15,15v60c0,8.284,6.716,15,15,15h60c8.284,0,15-6.716,15-15v-60    C166,217.716,159.284,211,151,211z M136,271h-30v-30h30V271z"/>
	</g>
</g>
<g>
	<g>
		<path d="M151,331H91c-8.284,0-15,6.716-15,15v60c0,8.284,6.716,15,15,15h60c8.284,0,15-6.716,15-15v-60    C166,337.716,159.284,331,151,331z M136,391h-30v-30h30V391z"/>
	</g>
</g>
<g>
	<g>
		<path d="M271,211h-60c-8.284,0-15,6.716-15,15v60c0,8.284,6.716,15,15,15h60c8.284,0,15-6.716,15-15v-60    C286,217.716,279.284,211,271,211z M256,271h-30v-30h30V271z"/>
	</g>
</g>
<g>
	<g>
		<path d="M466,311.721V45c0-24.813-20.187-45-45-45H61C36.187,0,16,20.187,16,45v391c0,24.813,20.187,45,45,45h234.883    c21.26,19.262,49.353,31,80.117,31c66.168,0,120-54.28,120-121C496,360.638,484.66,332.879,466,311.721z M211,331    c-8.284,0-15,6.716-15,15v60c0,8.284,6.716,15,15,15h48.735c2.699,10.63,6.798,20.701,12.086,30H61c-8.271,0-15-6.729-15-15V45    c0-8.271,6.729-15,15-15h360c8.271,0,15,6.729,15,15v242.109c-9.288-5.385-19.359-9.563-30-12.312V226c0-8.284-6.716-15-15-15h-60    c-8.284,0-15,6.716-15,15v60c0,0.363,0.029,0.72,0.054,1.077c-18.222,10.552-33.426,25.756-43.978,43.978    C271.72,331.029,271.363,331,271,331H211z M256,361v30h-30v-30H256z M376,241v30h-30v-30H376z M376,482c-49.584,0-90-40.789-90-91    c0-49.626,40.374-90,90-90c49.626,0,90,40.374,90,90C466,441.177,425.626,482,376,482z"/>
	</g>
</g>
<g>
	<g>
		<path d="M406,376h-15v-15c0-8.284-6.716-15-15-15s-15,6.716-15,15v30c0,8.284,6.716,15,15,15h30c8.284,0,15-6.716,15-15    S414.284,376,406,376z"/>
	</g>
</g>
<g>
</g>
<g>
</g>
<g>
</g>
<g>
</g>
<g>
</g>
<g>
</g>
<g>
</g>
<g>
</g>
<g>
</g>
<g>
</g>
<g>
</g>
<g>
</g>
<g>
</g>
<g>
</g>
<g>
</g>
</svg>
