<?xml version="1.0" encoding="iso-8859-1"?>
<!-- Generator: Adobe Illustrator 19.0.0, SVG Export Plug-In . SVG Version: 6.00 Build 0)  -->
<svg xmlns="http://www.w3.org/2000/svg" xmlns:xlink="http://www.w3.org/1999/xlink" version="1.1" id="Capa_1" x="0px" y="0px" viewBox="0 0 512 512" style="enable-background:new 0 0 512 512;" xml:space="preserve">
<g>
	<g>
		<path d="M499.429,211.198l-56.194-9.223c-4.021-13.952-9.604-27.398-16.674-40.161l32.564-45.588    c4.262-5.967,3.585-14.14-1.6-19.325L415.1,54.475c-5.185-5.185-13.358-5.861-19.325-1.6l-45.59,32.563    c-12.761-7.069-26.206-12.651-40.159-16.673l-9.224-56.194C299.612,5.321,293.347,0,286,0h-60    c-7.347,0-13.612,5.321-14.802,12.571l-9.224,56.194c-13.953,4.022-27.398,9.604-40.159,16.673l-45.59-32.563    c-5.966-4.261-14.14-3.586-19.325,1.6L54.475,96.9c-5.185,5.185-5.861,13.359-1.6,19.325l32.564,45.588    c-7.07,12.763-12.653,26.208-16.674,40.161l-56.194,9.223C5.321,212.388,0,218.653,0,226v60c0,7.347,5.321,13.612,12.571,14.802    l56.194,9.223c4.021,13.951,9.604,27.396,16.673,40.159l-32.563,45.589c-4.262,5.967-3.585,14.14,1.599,19.325L96.9,457.525    c5.185,5.185,13.358,5.862,19.325,1.6l45.59-32.563c12.761,7.069,26.207,12.651,40.159,16.673l9.224,56.194    C212.388,506.679,218.653,512,226,512h60c7.347,0,13.612-5.321,14.802-12.571l9.224-56.194    c13.953-4.022,27.398-9.604,40.159-16.673l45.59,32.563c5.967,4.262,14.141,3.585,19.325-1.6l42.425-42.427    c5.185-5.185,5.861-13.358,1.599-19.325l-32.563-45.589c7.069-12.763,12.651-26.208,16.673-40.159l56.194-9.223    C506.679,299.612,512,293.347,512,286v-60C512,218.653,506.679,212.388,499.429,211.198z M482,273.261l-53.25,8.74    c-5.998,0.984-10.809,5.49-12.183,11.411c-4.069,17.533-11,34.232-20.599,49.634c-3.208,5.146-3.001,11.718,0.523,16.653    l30.836,43.171l-24.456,24.457l-43.172-30.836c-4.935-3.525-11.507-3.732-16.653-0.523c-15.398,9.599-32.097,16.529-49.633,20.599    c-5.92,1.374-10.426,6.185-11.411,12.182l-8.74,53.25H238.74l-8.74-53.25c-0.984-5.997-5.49-10.808-11.411-12.182    c-17.536-4.07-34.235-11.001-49.633-20.599c-5.146-3.208-11.718-3.002-16.653,0.523l-43.172,30.836L84.673,402.87l30.836-43.171    c3.525-4.935,3.731-11.507,0.523-16.653c-9.6-15.402-16.53-32.101-20.599-49.634c-1.374-5.92-6.185-10.427-12.183-11.411    L30,273.261v-34.522l53.25-8.74c5.998-0.984,10.809-5.49,12.183-11.411c4.069-17.534,11-34.234,20.601-49.635    c3.208-5.147,3.001-11.719-0.523-16.654l-30.837-43.171l24.455-24.455l43.173,30.836c4.935,3.525,11.507,3.732,16.653,0.523    c15.398-9.599,32.097-16.529,49.633-20.599c5.92-1.374,10.426-6.185,11.411-12.182L238.739,30h34.522l8.74,53.251    c0.984,5.997,5.49,10.808,11.411,12.182c17.536,4.07,34.235,11.001,49.633,20.599c5.147,3.208,11.718,3.002,16.653-0.523    l43.173-30.836l24.455,24.455l-30.837,43.171c-3.525,4.935-3.731,11.507-0.523,16.654c9.601,15.401,16.532,32.101,20.601,49.635    c1.374,5.92,6.185,10.427,12.183,11.411l53.25,8.74V273.261z"/>
	</g>
</g>
<g>
	<g>
		<path d="M256,121c-74.439,0-135,60.561-135,135s60.561,135,135,135s135-60.561,135-135S330.439,121,256,121z M256,361    c-57.897,0-105-47.103-105-105c0-57.897,47.103-105,105-105c57.897,0,105,47.103,105,105C361,313.897,313.897,361,256,361z"/>
	</g>
</g>
<g>
	<g>
		<path d="M296.606,275.394L271,249.787V196c0-8.284-6.716-15-15-15s-15,6.716-15,15v60c0,0.015,0.002,0.029,0.002,0.044    c0.012,4.089,1.712,7.883,4.391,10.563l30,30c5.858,5.858,15.355,5.858,21.213,0C302.464,290.749,302.464,281.252,296.606,275.394    z"/>
	</g>
</g>
<g>
</g>
<g>
</g>
<g>
</g>
<g>
</g>
<g>
</g>
<g>
</g>
<g>
</g>
<g>
</g>
<g>
</g>
<g>
</g>
<g>
</g>
<g>
</g>
<g>
</g>
<g>
</g>
<g>
</g>
</svg>
